<?xml version="1.0" encoding="utf-8"?>
<!-- Generator: Adobe Illustrator 26.0.1, SVG Export Plug-In . SVG Version: 6.00 Build 0)  -->
<svg version="1.1" id="Layer_1" xmlns="http://www.w3.org/2000/svg" xmlns:xlink="http://www.w3.org/1999/xlink" x="0px" y="0px"
	 viewBox="0 0 563.4 537.5" style="enable-background:new 0 0 563.4 537.5;" xml:space="preserve">
<style type="text/css">
	.st0{fill:#FFFFFF;}
</style>
<g>
	<path class="st0" d="M275.9,140.4c0,10-2.3,18.4-7,25c-4.7,6.6-13.5,14-26.4,22.2c-11.9,7.6-20.1,14.4-24.4,20.5l-0.1,0.2h57.9
		v22.9h-90.2v0c0-12.1,3.1-22.5,9.2-31.1c6.1-8.6,17.6-18.9,34.5-30.8c7.6-5.3,12.9-10.1,16-14.5c3.1-4.4,4.6-9.3,4.6-14.7
		c0-5.9-1.7-10.6-5.1-14.2c-3.4-3.6-7.9-5.4-13.4-5.4c-5.9,0-10.6,2.2-13.9,6.7c-3.3,4.5-4.9,10.6-4.6,18.2h-25.5
		c-0.4-14.3,3.3-25.7,11.3-34.1c8-8.4,18.9-12.6,32.9-12.6c13,0,23.7,3.9,32,11.6C271.8,118.2,275.9,128.1,275.9,140.4z"/>
	<path class="st0" d="M323.6,234.5c-11.1,0-20.1-3.2-27.2-9.5c-7-6.4-10.8-14.7-11.3-25.1h25.7c-0.1,4.1,1.2,7.4,3.7,9.9
		c2.5,2.5,5.9,3.7,10,3.7h1.3c7.7,0.1,13.5-3.7,17.2-11.2c2.9-5.9,4.7-14.5,5.4-25.9c-7.2,7.4-15.8,11.2-25.8,11.2
		c-11.8,0-21.5-4-29-12.1c-7.5-8.1-11.3-18.4-11.3-31.1c0-13.4,4.3-24.4,12.8-32.9c8.5-8.5,19.5-12.8,32.9-12.8
		c14.9,0,26.3,5.6,34.1,16.7c7.8,11.2,11.7,27.5,11.7,48.9c0,23.6-4.3,41.4-12.9,53.3c-8,11.2-19.5,16.8-34.7,16.8L323.6,234.5z
		 M347.9,143.9c0-6.9-1.9-12.7-5.6-17.3c-3.8-4.6-8.5-6.9-14.2-6.9c-6.5,0-11.4,2.1-14.8,6.2c-3.4,4.1-5,10.1-5,18
		c0,6.9,1.8,12.4,5.4,16.6c3.6,4.2,8.4,6.3,14.3,6.3c5.9,0,10.7-2.1,14.3-6.3C346.1,156.3,347.9,150.7,347.9,143.9z"/>
</g>
<path class="st0" d="M52.7,194c1.8-2.6,4.1-4.8,6.7-6.5c3.6-2,7.6-3.2,11.7-3.4c6.5-0.4,13,0.2,19.2,1.9c0.3,0,0.7,0.2,0.9,0.4
	c0.1,0.1,0,0.3-0.1,0.5c-5.4,6.8-11.8,12-20.4,14.2c-5.9,1.4-12.1,1.5-18.1,0.1l-0.9-0.2c-0.8-0.2-1.1,0.1-1.3,0.9
	c-1,3.8-1.9,7.6-2.6,11.4c-0.5,2.5-1,5-1.5,7.5c-0.2,0.5-0.2,1,0,1.4c0.3,0.1,0.4-0.2,0.5-0.3c3.8-6.4,9.6-9.8,16.6-11.3
	c5.7-1.2,11.6-1.5,17.4-0.9c1.6,0,3.2,0.2,4.7,0.6c0.1,0.5-0.1,1.1-0.5,1.5c-3.2,5-7.2,9.3-12,12.8c-5.5,3.8-12,6-18.7,6.3
	c-2.7,0.2-5.5,0.2-8.3,0c-0.8-0.1-1.3,0-1.4,1c-0.8,6.8-1.4,13.6-1.6,20.5c0,0.3,0,0.6,0.1,0.9c0.2,0.1,0.4,0,0.5-0.2l0,0l0,0
	c3.2-7,8.7-11.3,15.8-13.7c4.7-1.6,9.5-2.6,14.4-3.1c2.9-0.3,5.8-0.4,8.7-0.3c0.1,0.4,0.1,0.8-0.2,1.1c-3.3,7.1-7.8,13.3-14.1,18
	c-5.6,4.1-12,6.3-18.8,7.4c-1.8,0.3-3.6,0.5-5.4,0.5c-1,0-1.4,0.2-1.3,1.3c0.3,6,0.3,12,1,18c0.2,1.4,0.2,2.9,0.4,4.3
	c0.8-0.2,0.7-0.7,0.8-1.1c2-5.9,6.1-11,11.6-14.1c5.8-3.4,12.1-5.7,18.6-7c2.5-0.6,5.1-1,7.6-1.2c0.2,0.8,0,1.7-0.3,2.4
	c-5.2,15.7-15.6,26-31.8,30.3c-1.3,0.3-2.6,0.6-3.9,0.9c-0.9,0.2-1.3,0.5-1.2,1.5c1.2,7.6,2.8,15.1,4.7,22.5c0.2,0,0.5-0.2,0.5-0.4
	l0,0c1.2-7.3,5.1-12.9,10.8-17.4c5.6-4.2,11.9-7.5,18.7-9.7c2.1-0.8,4.3-1.5,6.5-2c0.3,0.3,0.5,0.7,0.3,1.1
	c-1.9,11.5-6.4,21.7-15.4,29.5c-4.9,4.1-10.5,7.4-16.6,9.5c-1.6,0.6-1.7,0.6-1.2,2.3c2.3,7.3,5,14.4,7.9,21.4
	c0.1,0.2,0.1,0.5,0.6,0.5c0-1.8,0.2-3.6,0.6-5.4c1.1-5.4,3.8-10.3,7.6-14.2c5.1-5.3,11.1-9.8,17.7-13.2c2.3-1.3,4.7-2.5,7.2-3.5
	c0.1,1.4,0.1,2.7,0,4.1c-0.6,9.8-3.1,19.1-9,27.1c-4.6,6.2-10.4,11.4-17.2,15.1c-2.5,1.4-2.3,0.9-1.1,3.3c3,5.9,6.2,11.6,9.6,17.3
	c0.6,1,1.2,1.9,1.9,2.9c0.7-0.3,0.4-0.8,0.3-1.2c-0.6-7.4,1.5-14.8,6-20.8c4.8-6.5,10.6-12.2,17.2-16.9c1.6-1.2,3.3-2.4,5.1-3.4
	c0.6,1.1,0.9,2.4,0.8,3.7c0.7,8.2,0.3,16.4-2.4,24.3c-2.6,7.2-6.8,13.7-12.1,19.2c-1.9,2-4,3.8-6.1,5.5c-1.1,0.9-1.1,0.9-0.3,2.1
	c3.7,5.2,7.7,10.2,11.9,15.1c1.2,1.5,2.5,2.9,3.8,4.3c0.5-0.2,0.3-0.6,0.3-0.9c-2.1-7.5-1-14.7,2.2-21.7c2.6-5.6,6-10.8,10-15.4
	c2.7-3.2,5.6-6.2,8.6-9c0.3-0.4,0.7-0.7,1.2-0.9c0.4,0,0.5,0.4,0.5,0.7c2.5,7.6,3.6,15.7,3.1,23.7c-0.7,8.5-3.4,16.8-8.1,24
	c-2,3.3-4.4,6.5-7,9.4c-0.6,0.7-0.6,1.1,0,1.7c5.9,5.5,11.9,11,18.2,16c0.4,0.4,0.9,0.7,1.5,0.8c0.2-0.3,0.1-0.6,0-0.9
	c-3.6-8-3.3-16.1-0.8-24.2c2.6-8.5,7-16.1,12.1-23.3c1-1.5,2.1-3,3.3-4.3c0.7,0.7,1.2,1.6,1.6,2.5c4.2,8.9,6.9,18.2,6.6,28.1
	c-0.3,10.3-3.4,19.7-8.4,28.6l-0.5,0.8c-1.2,2-1.2,2.1,0.7,3.3c6.6,4.3,13.4,8.4,20.3,12.1c0.6,0.3,1.1,0.5,1.8,0.8
	c0.2-0.6-0.2-0.9-0.4-1.3c-4.6-6.9-6-14.6-5.1-22.8c1.1-11.3,5.2-21.7,10.3-31.8c0.1-0.2,0.3-0.4,0.4-0.6c0.6,0.1,0.8,0.6,1.1,1
	c6.4,8.1,10.7,17.6,12.7,27.7c1,5.6,1.1,11.3,0.4,17c-0.6,5.7-2,11.4-4.1,16.7c-0.4,1,0,1.3,0.8,1.7c4.3,1.9,8.8,3.5,13.2,5.2
	c3.5,1.3,7,2.4,10.6,3.5c0.6,0.3,1.3,0.5,2.1,0.5c0.1-0.6-0.4-0.8-0.7-1.1c-4.8-5-7.9-11.3-9-18.1c-1.5-8.9-0.8-17.8,0.9-26.5
	c0.7-3.6,1.6-7.1,2.6-10.6c0.1-0.7,0.4-1.4,0.8-2c1,0.7,1.9,1.5,2.7,2.4c7.7,7.4,13.8,15.9,17.3,26c3,9,4.1,18.6,3.1,28
	c-0.2,1.7-0.3,3.3-0.6,5c-0.2,1,0.1,1.5,1.1,1.7c2.9,0.7,5.8,1.1,8.7,1.6c8.1,1.4,16.2,2.4,24.4,2.9h0.4c1.6,0,1.6,0.1,2.3-1.4
	c0.9-2.3,2.4-4.3,4.2-5.9c6.7-5.8,16.8-5.1,22.6,1.5c1.1,1.3,2,2.7,2.7,4.3c0.7,1.6,0.6,1.5,2.4,1.4c8.2-0.5,16.5-1.5,24.6-2.9
	c4.9-0.8,9.7-1.9,14.5-2.9c1.9-0.4,1.9-0.4,1.6-2.4c-1.8-10.7-1.7-21.3,1.4-31.8c2.7-8.5,7.1-16.4,13-23.1c1.5-1.8,3-3.5,4.7-5.1
	c0.5-0.5,1.1-1,1.6-1.5c0.3,0,0.6,0.2,0.6,0.5c3.7,11.1,6.1,22.5,5.5,34.3c-0.2,5-1.4,9.9-3.5,14.4c-1.3,2.8-3,5.4-5.1,7.7
	c-0.5,0.4-0.9,0.9-1.2,1.5c0.4,0.3,0.7,0.1,1.1,0c8.4-2.7,16.5-5.9,24.5-9.6c1.4-0.6,1.4-0.6,0.8-2.1c-3.3-8.3-5-17.1-5-26
	c0-4.8,0.8-9.6,2.1-14.2c2.2-7.4,5.5-14.4,10-20.6c0.3-0.4,0.5-0.7,0.8-1.1c0.1-0.1,0.3-0.2,0.4-0.4c0.6,0,0.7,0.5,0.9,0.9
	c4.8,8.8,8.6,17.9,10.5,27.7c1.3,6.2,1.1,12.6-0.5,18.6c-0.7,2.4-1.7,4.7-3,6.8c-0.3,0.5-0.6,1.1-0.9,1.7c-0.2,0.1-0.3,0.2-0.3,0.4
	c-0.2,0.1-0.2,0.2,0,0.1v-0.2c0.2,0.1,0.4,0,0.6-0.1c1.8-0.8,3.6-1.7,5.2-2.8c5.8-3.5,11.6-7.1,17.1-11.1c1.1-0.8,1.1-0.8,0.4-2.1
	c-4.7-7.1-7.9-15.1-9.5-23.5c-1.3-7.5-1-15.3,0.9-22.7c1.1-4.4,2.6-8.7,4.5-12.8c0.3-0.6,0.6-1.1,0.8-1.6c0.3-0.2,0.6-0.1,0.8,0.2
	c6.9,8.5,12.8,17.6,16.1,28.1c1,3.2,1.6,6.6,1.8,10c0.1,4-0.5,8.1-2,11.9c-0.3,0.6-0.5,1.3-0.6,2c-0.2,0.1-0.3,0.1-0.1,0.3l0.2-0.2
	c0.3,0,0.6-0.2,0.8-0.4c6.4-5.3,12.4-10.9,18.2-16.8c1-1.1,1.3-0.9,0-2.4c-6.6-6.9-11.4-15.2-14.1-24.4c-1.9-6.9-2.3-14.1-1.3-21.1
	c0.4-3.5,1.1-7,2.1-10.4c0.1-0.4,0.3-0.7,0.4-1.1c0.2,0.1,0.5,0.1,0.6,0.2c7.5,6.2,13.8,13.6,18.8,21.9c3,5,4.7,10.7,5,16.5
	c0.1,2.5-0.1,5-0.7,7.4c-0.2,0.4-0.2,0.9-0.2,1.3c0.6,0,0.8-0.5,1.1-0.9c5.1-6,9.8-12.3,14.3-18.8c1-1.4,1-1.4-0.4-2.5
	c-6.9-5.1-12.5-11.6-16.6-19.1c-2.7-5.3-4.4-11-5-16.8c-0.5-4.8-0.5-9.7,0-14.6c0.1-1.4,0.3-1.5,1.5-0.8
	c8.5,5.4,16.4,11.4,22.3,19.7c4.3,6,6.7,12.6,6.1,20.1v0.8c0.7,0.2,0.8-0.4,1-0.7c4-6.6,7.5-13.4,10.7-20.4c0.6-1.4,0.6-1.4-0.8-2.1
	c-6.3-3.2-11.9-7.6-16.6-12.9c-5.9-6.7-9.1-14.6-10.7-23.3c-0.5-2.7-0.8-5.4-1-8.2c-0.1-1.6,0.1-1.8,1.5-1.1c8.4,3.6,16.3,8,23,14.4
	c4.9,4.4,8.1,10.2,9.3,16.6c0.2,1.2,0.2,2.4,0.4,3.7c0.5-0.3,0.8-0.7,0.9-1.3c2.7-7,5.1-14.1,7.1-21.3c0.3-1.2,0.3-1.3-1-1.7
	c-4.8-1.6-9.4-3.8-13.6-6.5c-8.9-5.8-14.5-13.9-17.8-23.9c-1-2.8-1.8-5.7-2.2-8.6c0.4-0.4,0.8-0.2,1.1-0.1
	c7.6,1.8,14.9,4.8,21.6,8.8c5.5,3.4,10,7.6,12.6,13.6c0.9,2,1.5,4.1,1.9,6.2c0.5-0.4,0.8-1,0.8-1.7c1.2-6.2,2.5-12.4,3.2-18.7
	c0.1-0.6,0.2-1.3,0.3-1.9c0.2-1.7,0.2-1.7-1.5-2c-3.8-0.6-7.5-1.7-11.1-3.1c-10.6-4.1-18-11.5-22.8-21.7c-1.3-2.5-2.3-5.1-3-7.8
	c2,0,4,0.2,6,0.6c5.3,0.8,10.6,2.2,15.6,4.2c5.5,2.2,10.3,5.3,14,10.2c1.4,1.9,2.6,4,3.3,6.2c0.2,0.5,0.4,1.1,0.8,1.5
	c0.1-1.4,0.4-2.7,0.4-4.1c0.1-6,0.6-12,0.4-18.1v-0.4c-0.1-1.5-0.1-1.5-1.5-1.5c-1.9,0-3.7-0.1-5.6-0.4c-13.2-1.6-23.3-8-30.3-19.3
	c-1.3-1.9-2.4-3.9-3.2-6c0.4-0.5,0.9-0.4,1.3-0.4c8.6,0,17,0.6,25,4c5.6,2.4,10.1,6,12.8,11.6c0.1,0.3,0.3,0.6,0.6,0.8
	c0.6-0.3,0.3-0.8,0.3-1.1c-0.4-6.6-1.1-13.2-2.2-19.7c-0.2-1.5-0.3-1.6-1.9-1.4c-4.8,0.6-9.6,0.4-14.3-0.5
	c-7.5-1.5-14.4-5.4-19.6-11.1c-1.8-1.9-3.5-4-4.9-6.1c-0.4-0.5-0.9-1-0.8-1.7c1.1-0.7,2.5-0.6,3.7-0.7c7-0.8,13.9-0.9,20.8,0.9
	c5.9,1.3,11.1,5,14.4,10.1c0.1,0.2,0.3,0.4,0.5,0.6c0.5-0.1,0.3-0.4,0.3-0.6c-1.2-6.5-2.8-13-4.7-19.4c-0.4-1.4-0.5-1.4-2-1
	c-6.2,1.6-12.6,1.7-18.8,0.4c-2.9-0.6-5.6-1.7-8.2-3.2c-4.1-2.4-7.8-5.4-11-8.9c-0.4-0.5-0.8-1-1.2-1.5c-0.1-0.2-0.2-0.4-0.2-0.6
	c1.7-0.7,3.5-1.2,5.4-1.4c4.6-1,9.4-1.5,14.1-1.4c7.3,0.2,13.5,2.5,18.4,8.2c0.2,0.2,0.4,0.3,0.6,0.4c0.2-0.4,0.2-0.9,0-1.2
	c-2-5.8-4.1-11.4-6.5-17.1c-0.5-1.2-0.5-1.2-1.8-0.8c-3.9,1.5-7.9,2.4-12.1,2.8c-8.3,0.6-15.5-2.1-22-7c-1.7-1.2-3.3-2.5-4.7-4.1
	c0.7-0.5,1.5-0.9,2.3-1.1c5.2-2.1,10.6-3.3,16.2-3.8c6.4-0.4,12.4,1,17.2,5.5c0.2,0.2,0.4,0.5,0.8,0.5l0,0c0,0.3,0.1,0.5,0.4,0.6
	l1.1-0.2c0.2,0.2,0.2,0.4,0.1,0.6l-0.3,0.1c-0.2,0.1-0.4,0.1-0.3,0.4c0,0.1,0.1,0.2,0.2,0.2c0.2,0,0.3-0.2,0.4-0.3s0.1-0.2,0.1-0.3
	c0.9,0.8,1.1,2,1.7,3c0.4,0.6,0.7,1.3,1,2c0.5-0.4,0.3-0.8,0.3-1.1c-0.4-5.7,1-11.5,4.2-16.3c3.7-5.9,8.5-11.2,13.9-15.5
	c0.2-0.3,0.6-0.4,1-0.4c0.7,1.9,1.2,4,1.5,6c0.9,4.9,0.8,9.9-0.3,14.7c-1.4,5.7-4.8,10.8-9.6,14.2c-2.2,1.7-4.6,3.1-7.1,4.2
	c-0.7,0.3-1.2,0.6-0.8,1.6c2.5,6.1,4.8,12.3,6.8,18.6c0.1,0.2,0.1,0.4,0.4,0.4c0.2-2.5,0.6-5.1,1.2-7.5c1.4-4.4,3.7-8.5,6.8-11.9
	c4.4-5,9.5-9.4,15.1-13c0.3-0.2,0.5-0.3,0.9-0.5c0.5,0.8,0.8,1.7,0.7,2.6c0.9,5.8,0.5,11.8-1,17.5c-2,7.1-6.7,13.1-13.2,16.5
	c-2.2,1.2-4.5,2.2-6.8,3c-1.9,0.6-1.9,0.6-1.4,2.6c1.6,5.5,2.7,11.2,4,16.8c0.1,1.1,0.3,2.1,0.8,3.1c0.3-1.3,0.6-2.6,1-3.8
	c1.2-4.4,3.4-8.5,6.5-11.8c6.1-6.7,13.5-11.6,21.5-15.5c0.2-0.1,0.3-0.1,0.5-0.1c0.4,0.4,0.3,0.8,0.3,1.3c0.6,7.7-0.9,15.4-4.3,22.4
	c-3.8,7.4-10.1,11.9-18,14.4c-1.6,0.5-3.3,1-5,1.2c-1.3,0.2-1.4,0.3-1.2,1.6c0.2,2.3,0.5,4.6,0.8,6.9c0.6,4.9,0.9,9.9,1.2,14.9
	c0.4,0,0.5-0.3,0.6-0.6c2.2-7.1,6.8-12.4,12.7-16.7c6.5-4.6,13.7-8.3,21.3-10.8c0.3-0.2,0.7-0.2,1-0.1c0,2.2-0.2,4.4-0.7,6.6
	c-0.8,4.6-2.2,9.1-4.3,13.3c-4.6,9.3-12.1,14.6-22.1,16.8c-2.3,0.5-4.5,0.8-6.8,0.8c-1.3,0-1.3,0.1-1.4,1.4c0,1.5-0.1,3.1,0,4.6
	c0,5.3-0.4,10.5-0.7,15.7c0,0.7,0,1.4,0,2.1c0.2,0.1,0.4,0,0.5-0.2l0,0c3.5-7,9.1-11.8,15.8-15.4c7.1-3.6,14.6-6.3,22.4-7.9
	c0.7-0.1,1.4-0.3,2.1-0.4v2c-0.1,0.1-0.3,0.3-0.3,0.5c-1.1,5.4-3.1,10.6-5.9,15.3c-3,5-6.5,9.3-11.6,12.3c-6.8,4-14.2,5.3-22,4.7
	c-2.8-0.2-2.4-0.1-2.5,2c0,0.2,0,0.4-0.1,0.6c-1.2,6.9-2.3,13.8-4,20.5c-0.2,0.5-0.2,0.9,0,1.4c1-1.4,2.1-2.7,3.3-4
	c4.4-4.4,9.8-7.8,15.7-9.8c6.5-2.3,13.3-3.8,20.2-4.5c2.2-0.4,4.4-0.5,6.7-0.4c0.1,0.6,0,1.2-0.3,1.7c-2.4,6.6-6,12.6-10.6,17.9
	c-7.8,8.8-17.7,12.6-29.4,11.5c-2.5-0.2-5-0.6-7.4-1.2c-0.9-0.2-1.4,0-1.7,1c-2.2,7.4-4.7,14.6-7.6,21.8c-0.1,0.3-0.4,0.7,0,1.1
	c0.2-0.1,0.4-0.3,0.6-0.4c5.2-4.9,11.6-8.2,18.6-9.7c9.8-2.3,19.7-2.5,29.6-1.7c0.4,0,0.9,0.1,1.3,0.4c0,0.4-0.2,0.9-0.4,1.2
	c-4.5,8-10.2,15-17.9,20.2c-5.7,3.9-12.5,5.8-19.4,5.7c-5.6-0.1-11.2-1.3-16.4-3.5c-1.5-0.6-1.6-0.6-2.3,0.9
	c-2.8,5.6-5.6,11.2-8.8,16.6c-0.9,1.5-1.8,3.1-2.6,4.7c-0.1,0.2-0.3,0.4-0.1,0.6c-0.2-0.1-0.3-0.1-0.2,0.2l0.2-0.2
	c0.2,0,0.4-0.1,0.5-0.3c0.2-0.1,0.4-0.1,0.5-0.2c7-4.7,15-6.5,23.3-6.8c8.2-0.2,16.4,0.6,24.4,2.5c1.7,0.2,3.4,0.7,4.9,1.4
	c-0.1,0.2-0.2,0.4-0.3,0.6c-6,7.8-13.2,14.3-22.2,18.5c-6.7,3.2-14.2,4.2-21.5,2.8c-5.5-1.1-10.8-3.2-15.6-6.2
	c-1.8-1.1-1.5-1.3-2.9,0.7c-4,5.7-8.3,11.2-12.8,16.5c-1,0.9-1.8,2-2.5,3.1l-0.3,0.2l0.1,0.1c0,0,0.2-0.1,0.2-0.2
	c0.3,0,0.6-0.1,0.9-0.2c6.9-2.8,14.4-3.8,21.8-3c10.9,1.2,21.6,4.2,31.7,8.7c0.3,0.1,0.8,0.2,0.8,0.8c-0.2,0.2-0.4,0.4-0.6,0.6
	c-5.3,5.1-11.4,9.3-18.2,12.3c-4.8,2.3-10,3.7-15.3,4.1c-7.5,0.5-15-1.4-21.5-5.2c-3.2-1.8-6.3-4-9-6.5c-0.6-0.6-1.1-0.8-1.8,0
	c-0.2,0.3-0.5,0.5-0.8,0.8c-4.1,4.1-8.5,8-12.8,11.9c-2.1,1.6-4.1,3.4-6.1,5.2l-0.5,0.2c0.1,0.2,0.3,0.2,0.5,0.1l0,0l0.1-0.1
	c0.6-0.1,1.3-0.1,1.9-0.2c6.1-1.1,12.4-1,18.5,0.4c12.5,2.9,23.7,8.5,34.3,15.5c0.2,0.2,0.6,0.3,0.5,0.7c-0.4,0.5-0.9,0.9-1.5,1.1
	c-3.1,2-6.4,3.8-9.8,5.3c-8.1,3.5-16.4,5.8-25.3,5.2c-5.4-0.3-10.6-1.8-15.4-4.3c-6-3.3-11.2-7.8-15.3-13.3c-1-1.2-1-1.1-2.1-0.4
	c-7.2,5-14.7,9.6-22.4,13.8c-0.3,0.2-0.9,0.2-0.8,1c2.2,0,4.4-0.1,6.5,0c6.4,0.7,12.6,2.5,18.3,5.5c10.5,5.2,19.6,12.3,28.1,20.3
	c0.2,0.2,0.7,0.5,0.5,1c-1.9,1-3.9,1.8-6,2.4c-9.3,3.2-18.8,4.8-28.7,3.7c-8.6-0.9-16.6-4.6-22.8-10.5c-4.3-4.1-7.9-8.9-10.6-14.2
	c-0.6-1.2-0.7-1.2-1.9-0.6c-8.4,3.8-17.1,7-25.9,9.8c-0.2,0.1-0.6,0.1-0.6,0.5c9.2,1.7,15,4.2,23.2,10.2
	c10.1,7.5,18.4,16.7,25.6,26.9c0.3,0.3,0.4,0.7,0.2,1c-2.1,0.6-4.2,1-6.3,1.3c-1.7,0.3-3.4,0.1-5.1,0.8h-11.5
	c-5.4-0.4-10.8-1.4-16-3.2c-9.9-3.6-17.2-10.2-22.2-19.4c-2-3.7-3.7-7.6-4.9-11.7c-0.4-1.5-0.4-1.5-2-1.1c-8.9,2-18,3.5-27.1,4.5
	c-2.4,0.3-4.7,0.4-7.1,0.5c-1.8,0.1-1.8,0.2-2.4,1.9c-2.5,8.5-11.4,13.3-19.9,10.8c-5.1-1.5-9.1-5.4-10.7-10.5
	c-0.7-2-0.7-2.1-2.7-2.2c-13.3-1-26.5-3.1-39.4-6.4c-2.6-0.6-2.6-0.6-3.5,1.9c-2.2,6.6-5.8,12.8-10.4,18
	c-6.4,7.2-14.5,11.2-23.9,12.9c-9.8,1.8-19.9,1.4-29.6-0.9c-0.9-0.1-1.9-0.4-2.7-0.8c-0.1-0.5,0.2-0.8,0.4-1
	c7.8-10.2,16.6-19.3,27.2-26.6c6.5-4.6,14-7.6,21.9-8.7c0.2-0.1,0.4-0.2,0.6-0.3c-0.3-0.5-0.8-0.5-1.1-0.6
	c-8.4-2.9-16.5-6.2-24.5-10c-0.3-0.2-0.7-0.3-1-0.5c-0.4-0.3-0.9-0.2-1.2,0.2c0,0.1-0.1,0.1-0.1,0.2c-0.4,0.7-0.8,1.3-1.1,2
	c-3.3,5.7-7.7,10.7-13,14.7c-5.8,4.3-12.7,6.9-19.9,7.5c-12,1.1-23.2-1.8-34.1-6.6c-0.3-0.1-0.6-0.3-0.7-0.6
	c0.3-0.6,0.8-1.2,1.4-1.5c7.9-7.1,16.7-13.2,26.2-18c7.9-4.1,16.8-6.1,25.7-5.9c0.3,0,0.6-0.1,0.9-0.1c-0.1,0.3,0,0.3,0.2,0.2
	l-0.3-0.1c-0.2-0.6-0.8-0.8-1.3-1c-7.2-4.2-14.2-8.7-20.9-13.7l-0.3-0.2c-1.6-1.1-1.3-1.3-2.7,0.4c-4.6,5.6-10.4,10.2-17,13.2
	c-7.6,3.3-16.2,4.1-24.3,2.2c-9.1-1.9-17.7-5.7-25.3-11.1c-0.2-0.1-0.4-0.3-0.6-0.5c-0.1-0.1-0.2-0.2-0.2-0.3
	c0.1-0.4,0.5-0.6,0.8-0.8c9.8-6.3,20.6-11,31.9-13.9c7.1-1.8,14.5-1.9,21.7-0.2c0.4,0.1,0.8,0.1,1.2,0c0.1-0.7-0.5-0.9-0.9-1.3
	c-4.5-3.9-8.9-8-13.1-12.2c-1.6-1.6-3.2-3.3-4.8-5c-0.9-1-1-1-2-0.1c-3.3,2.8-6.9,5.2-10.7,7.1c-4.9,2.5-10.2,3.8-15.7,4
	c-4.9,0.1-9.7-0.8-14.3-2.5c-8.6-3.3-16.4-8.3-22.9-14.8c-0.5-0.3-0.8-0.8-0.9-1.3c1.3-0.7,2.8-1.3,4.2-1.8c7.4-2.8,15-4.9,22.8-6
	c8.1-1.1,16.2-1.2,24.1,1.7c1.1,0.4,2.2,0.9,3.4,1.4c0.4,0.2,0.8,0.5,1.3,0.2c-0.1,0.1-0.1,0.2,0.1,0.3s0.1,0,0.2-0.1l-0.3-0.2
	c-1.7-2.5-3.6-4.8-5.5-7.1c-3.3-4.2-6.3-8.7-9.4-13.1c-0.4-0.5-0.7-1-1.1-1.6c-0.7,0.2-1.3,0.5-1.8,1c-6.1,3.6-13.1,5.8-20.2,6.2
	c-5.1,0.2-10.2-0.7-14.8-2.8c-10-4.4-17.7-11.5-24-20.4c-0.1-0.1-0.1-0.3-0.1-0.4c1.4-0.6,2.8-1,4.3-1.1c7.3-1.4,14.7-2.1,22.1-2
	c8.2,0.2,16.2,1.7,23.4,5.9c1.1,0.6,2.2,1.3,3.2,2c0.4-0.5,0-0.9-0.2-1.3c-3.9-6.8-7.4-13.8-10.6-20.9c-0.6-1.4-0.6-1.4-2.2-0.8
	c-5.2,2-10.7,3.1-16.3,3.1c-8.1-0.1-15.9-3-22-8.3C14,352.6,9,346.2,5.5,339c-0.3-0.4-0.4-0.8-0.3-1.3c1-0.1,2.1-0.3,3.2-0.3
	c9.6-0.5,19.2,0.5,28.5,3c6,1.6,11.4,4.6,16,8.8c0.4,0.4,0.8,0.7,1.2,1c0.1,0.1,0.2,0,0.4,0.1c0.4-0.5,0.1-1-0.1-1.4
	c-2.5-6.8-4.7-13.5-6.5-20.5c-0.5-1.9-0.5-1.9-2.4-1.5c-7.1,1.4-14.1,1.5-21-0.9c-6.3-2.3-11.7-6.3-15.7-11.6
	c-4-5.2-7.2-11-9.2-17.2c-0.1-0.3-0.2-0.6-0.3-0.9c-0.1-0.6,0.1-0.9,0.7-0.8c0.6,0,1.3,0,1.9,0.1c8.3,0.8,16.4,2.7,24.2,5.7
	c7.2,2.9,13.5,7.1,17.9,13.6c0.1,0.2,0.3,0.4,0.7,0.4c-0.1-1.6-0.4-3.3-0.8-4.9c-1-6-2.1-12.1-2.7-18.2c-0.1-1.3-0.2-1.4-1.5-1.3
	c-4.8,0.3-9.7-0.2-14.3-1.5c-7-2-13.1-6.3-17.1-12.3c-4.3-6.2-7.2-13.4-8.5-20.8c0-0.3,0-0.6,0-0.9c0.1-0.2,0.4-0.3,0.7-0.2
	c9.3,2,18.2,5.5,26.3,10.5c5.4,3.3,9.8,8.1,12.6,13.8c0.2,0.3,0.2,0.7,0.8,0.9V278c-0.4-6.5-0.4-12.9-0.2-19.4v-1
	c0.1-0.9-0.3-1.2-1.2-1.2c-2.6-0.2-5.1-0.6-7.6-1.2c-10.7-2.7-18.1-9.3-22.1-19.6c-2-5-3.2-10.3-3.5-15.6c-0.1-0.6-0.1-1.3,0.1-1.9
	c0.4-0.2,0.8-0.2,1.1,0.1c8.4,3,16.2,7.5,23.1,13.1c4.6,3.9,8.1,9,9.9,14.8c0.1,0.5,0.3,0.9,0.7,1.2c0.3-4.1,0.7-8.1,1.2-12
	c0.4-3.1,0.9-6.2,1.3-9.3c0.3-1.9,0.3-1.9-1.4-2.3c-3.9-0.9-7.7-2.3-11.2-4.3c-7.4-4.3-11.6-10.9-13.6-19
	c-1.2-5.1-1.7-10.4-1.2-15.6c0-0.3,0-0.6,0.2-0.9c0.5-0.2,0.9,0.1,1.2,0.3c6.8,3.6,13.1,8.1,18.5,13.6c4.9,4.8,8.1,11.2,9,18
	c0.7-0.2,0.5-0.7,0.6-1.1c1.4-6.4,3-12.7,4.9-19c0.5-1.6,0.5-1.6-1.1-2.1c-5.9-2-11.2-5.6-15.1-10.4c-2.6-3.5-4.4-7.6-5.1-11.9
	c-1-5.9-0.9-11.9,0.4-17.7c0.5-0.3,0.8,0,1.1,0.2c6,4,11.3,9,15.7,14.6c4.2,5.6,6.8,11.7,6.4,18.9c0.6,0,0.5-0.6,0.6-0.8
	c2.2-6,4.5-12,7.1-17.9c0.6-1.4,0.6-1.4-0.8-2.1c-3.9-1.9-7.4-4.5-10.2-7.7c-3.8-4.3-6-9.8-6.2-15.6c-0.3-4.8,0.3-9.6,1.6-14.2
	c0.1-0.8,0.4-1.5,1-2.1c0.9,0.6,1.8,1.4,2.6,2.2c4.2,3.9,7.9,8.3,10.9,13.1c3.4,5.4,5.1,11.3,4.3,17.7c-0.2,0.4-0.2,0.9,0,1.3
	c0,0,0.1,0,0.2,0l0.2-0.1l0.4,0.5c-0.5,2-1.9,3.7-2.4,5.9c0.8-0.2,1-0.7,1.4-1.1c3.8-3.7,8.8-5.9,14.1-6c7.1-0.3,13.8,1.3,20.5,3.6
	c1.3,0.5,1.4,0.7,0.4,1.6c-7.2,6.9-15.5,11.3-25.8,10.8c-4-0.2-8-1-11.8-2.4c-1.4-0.5-1.4-0.5-1.9,0.9c-2.4,6-4.5,12.1-6.3,18.3
	C52.7,193.3,52.7,193.7,52.7,194L52.7,194L52.7,194z M282,496.3c-4.4,0-8,3.5-8.1,7.9c0,4.4,3.5,8,7.9,8.1c4.4,0,8-3.5,8.1-7.9v-0.1
	C289.9,499.9,286.4,496.4,282,496.3z M520.5,247.5v-0.1c-0.1-0.1-0.1-0.1-0.1,0S520.4,247.5,520.5,247.5L520.5,247.5z M55.7,350.8
	l-0.1-0.2l-0.1,0.1c0,0.1,0.1,0.2,0.1,0.2L55.7,350.8z M509,187.3l-0.1-0.1l-0.1,0.1l0.1,0.1L509,187.3z M487,384.3l0.1-0.1H487
	V384.3z M134.9,449.8l-0.1-0.1v0.1H134.9z M125.9,450.2l-0.1,0.1l0.1,0.1l0.1-0.1L125.9,450.2z M72.5,386.3l-0.1,0.1h0.1V386.3z"/>
<path class="st0" d="M365,63.4c-2.7-4.2-5.4-8.3-8-12.3c-1.7-2.6-1.7-2.6-4.5-1.6c-4,1.4-8,2.8-12,4.1c-0.6,0.2-1.1,0.6-1.9,0.4
	c-0.1-0.6,0.4-0.9,0.6-1.3c3-4.2,6-8.3,9-12.5c0.9-1.3,0.9-1.3,0-2.7c-2.6-4-5.1-8-7.7-11.9c-0.4-0.5-0.7-1.1-0.9-1.7
	c0.4-0.5,0.8-0.1,1.2,0l13.6,4.7c1.7,0.6,1.7,0.6,2.8-0.9l8.9-12.3c0.3-0.4,0.6-0.8,0.9-1.2c0.6,0.4,0.3,0.9,0.3,1.2
	c-0.2,5.1-0.4,10.2-0.7,15.4c-0.1,2-0.1,2,1.8,2.7l12.7,4.4l1.9,0.7c-0.3,0.6-0.9,0.6-1.3,0.8c-4.6,1.6-9.3,3.2-14,4.8
	c-1.7,0.6-1.6,0.2-1.7,2.2c-0.2,5.4-0.5,10.7-0.7,16.1C365.3,62.9,365.2,63.2,365,63.4z"/>
<path class="st0" d="M223.9,55.5c-0.7,0.2-1.2-0.2-1.7-0.4l-13-5.7c-1.5-0.7-1.5-0.7-2.5,0.6l-9.1,11.9c-0.2,0.2-0.4,0.5-0.6,0.7
	c-0.6-0.3-0.4-0.8-0.3-1.2c0.2-5,0.5-10,0.6-15c0.1-2.7,0.5-2.1-2-3.2c-4.2-1.9-8.4-3.7-12.7-5.5c-0.7-0.2-1.3-0.5-1.7-1
	c0.7-0.4,1.4-0.6,2.1-0.7c4.3-1.1,8.7-2.3,13-3.3c1.7-0.4,1.7-0.4,1.8-2.1c0.2-5.6,0.4-11.3,0.7-16.9c0.7-0.1,0.7,0.5,0.9,0.8
	c2.8,4.6,5.6,9.2,8.3,13.8c0.3,0.8,1.2,1.2,2,0.9h0.1c4.8-1.3,9.5-2.5,14.3-3.7c0.4-0.1,0.7-0.3,1.1-0.1c0,0.7-0.6,1.1-1,1.6
	c-2.9,3.8-5.8,7.5-8.6,11.3c-1,1.4-1,1.4-0.2,2.8c2.5,4.2,5.1,8.5,7.6,12.7C223.5,54.3,223.8,54.8,223.9,55.5z"/>
<path class="st0" d="M441.4,53.6c0.1,0.6,0,1.3-0.2,1.8c-1.4,4.8-2.9,9.7-4.3,14.6c-0.5,1.7-0.5,1.7,1,2.7l11.6,7.6
	c0.4,0.3,0.9,0.4,1.2,1.2c-1.8,0.2-3.5,0.4-5.3,0.5c-3.6,0.3-7.1,0.6-10.7,0.9c-1.7,0.2-1.7,0.2-2.2,1.8c-1.4,4.7-2.8,9.4-4.2,14.2
	c-0.2,0.6-0.4,1.2-0.6,1.9c-0.7-0.3-0.7-1-0.9-1.5c-1.6-4.5-3.1-9-4.6-13.4c-0.6-1.8-0.6-1.8-2.4-1.6c-4.4,0.4-8.8,0.8-13.2,1.1
	c-0.9,0.1-1.8,0.1-2.7-0.2l3-2.6l9.8-8.3c1.2-1,1.2-1,0.7-2.6c-1.6-4.6-3.1-9.1-4.6-13.6c-0.3-0.6-0.5-1.2-0.4-1.8
	c0.7,0.2,1.4,0.6,2,1.1c3.7,2.4,7.4,4.8,11.1,7.2c1.6,1,1.4,1.1,2.9-0.2l12.2-10.3C440.9,54,441.1,53.8,441.4,53.6L441.4,53.6z"/>
<path class="st0" d="M160,85.6c-3.8-0.3-7.4-0.6-11-0.9c-1.7-0.2-3.4-0.3-5.2-0.5c-1.6-0.2-1.6-0.2-2.1,1.5c-1.5,4.4-3,8.7-4.4,13.1
	c-0.1,0.8-0.5,1.5-1,2.2c-0.9-3.1-1.8-6.1-2.7-9.1c-0.7-2.4-1.4-4.8-2.1-7.2c-0.5-1.6-0.5-1.6-2.2-1.7c-5.2-0.4-10.3-0.8-15.5-1.3
	c-0.2,0-0.5,0-0.6-0.3c0.3-0.6,1-0.8,1.5-1.1c3.9-2.6,7.8-5.1,11.7-7.7c1.3-0.8,1.3-0.8,0.8-2.3c-1.5-5.1-3-10.2-4.5-15.3
	c-0.2-0.4-0.2-0.7-0.2-1.1c0.7,0,1,0.5,1.4,0.8c3.8,3.2,7.6,6.4,11.5,9.7c1.6,1.4,1.2,1.5,3.2,0.2c3.7-2.4,7.4-4.8,11.1-7.2
	c0.5-0.4,1.1-0.8,1.8-0.9c0.3,0.7-0.2,1.3-0.4,2c-1.5,4.5-3,9-4.6,13.5c-0.5,1.6-0.5,1.6,0.7,2.6c4,3.3,8,6.7,11.9,10
	C159.5,84.6,159.9,85.1,160,85.6z"/>
<path class="st0" d="M268.1,46.8c-0.3-0.8,0.2-1.5,0.4-2.2c1.3-4.5,2.7-9,4-13.4c0.6-2.2,0.9-1.5-1-3.1c-3.7-2.9-7.5-5.9-11.2-8.8
	c-0.6-0.3-1-0.8-1.3-1.4h15.4c2,0,2,0,2.6-1.9l4.5-15.1c0.1-0.3,0.1-0.6,0.5-0.9c0.3,0.5,0.5,1.1,0.6,1.6l4.3,14.5
	c0.5,1.7,0.5,1.7,2.4,1.7h15.5c-0.2,0.8-0.8,1.1-1.3,1.5c-3.7,2.9-7.5,5.8-11.2,8.8c-1.4,1.1-1.4,1.1-0.9,2.9
	c1.4,4.7,2.8,9.4,4.2,14.2c0.3,0.6,0.4,1.3,0.3,2l-3.2-2.5c-3.2-2.5-6.4-5-9.5-7.5c-1.2-0.9-1.2-0.9-2.4,0
	c-3.6,2.8-7.1,5.6-10.8,8.4C269.6,46.2,268.9,46.6,268.1,46.8z"/>
<path class="st0" d="M327.3,268.7c3.6,1.7,4.4,4.7,4.6,8c0,2.8,0.4,5.5,1.2,8.2h-6.9c-0.8,0-0.9-0.6-1-1.2c-0.4-2-0.6-3.9-0.7-5.9
	c-0.1-1.1-0.3-2.2-0.6-3.2c-0.5-1.7-2-2.8-3.7-2.9c-2.6-0.1-5.2-0.1-7.9-0.1c-1.1,0-1.1,0.7-1.1,1.4v9.6c0,2.5,0.1,2.3-2.2,2.3h-4.4
	c-0.6,0-1-0.2-0.9-0.9v-31.3c0-2.3-0.1-2.1,2-2.1h16c0.8,0,1.5,0,2.3,0.1c7.1,1.2,9.6,7.5,7.6,13.3c-0.6,1.5-1.6,2.8-2.9,3.7
	C328.3,268,327.9,268.2,327.3,268.7z M316.5,266.1c1.5,0.1,3,0,4.5-0.1c1.7-0.1,3.2-1.3,3.5-3c0.4-2,0.4-4-1.4-5.5
	c-0.9-0.7-2.1-1-3.2-1c-2.5-0.1-5,0-7.5,0c-0.8,0-1.2,0.3-1.2,1.1v7.5c0,0.8,0.3,1.1,1.1,1.1C313.7,266.1,314.9,266.1,316.5,266.1
	L316.5,266.1z"/>
<path class="st0" d="M227.8,267.7v-16.2c0-0.8,0.4-1,1.1-1h22.9c1.9,0,1.9,0,1.9,1.9v2.7c0,1.8,0,1.8-1.8,1.8h-14
	c-2.6,0-2.4-0.2-2.4,2.3v3.5c0,1.5,0.1,1.5,1.5,1.5h12.9c2.5,0,2.3-0.2,2.3,2.2v2.5c0,0.8-0.3,1.2-1.1,1.1h-13.6c-2,0-2,0-2,2v4.2
	c0,2.3,0,2.1,2.1,2.1h15.6c0.6,0,1,0.2,1,0.9v4.6c0,0.4-0.3,0.8-0.7,0.8H229c-0.9,0.1-1.2-0.4-1.2-1.3V267.7L227.8,267.7z"/>
<path class="st0" d="M365.4,260.9h-1c-0.8,0-1.6,0.2-2.3-0.1s-0.5-1.3-0.7-1.9c-0.4-1.2-1.4-2.1-2.5-2.5c-2-0.8-4.2-0.9-6.2-0.3
	c-1.2,0.3-2.2,1.2-2.6,2.4c-0.6,1.4,0,3.1,1.5,3.7c1.4,0.6,2.9,1.1,4.4,1.5c1.9,0.5,3.8,1,5.8,1.5c1.1,0.3,2.2,0.7,3.2,1.2
	c7.6,3.5,6.5,13.1,1.4,16.6c-1.7,1.2-3.6,2-5.6,2.4c-4,0.9-8.2,0.6-12.1-0.9c-3.6-1.3-6.3-4.5-7-8.3c-0.1-0.5-0.1-1-0.2-1.5
	c-0.1-0.7,0.3-1,1-1h5.4c0.6,0,0.8,0.3,1,0.9c1,3.7,2.9,5.2,6.7,5.4c1.7,0.2,3.3-0.1,4.9-0.7c1.5-0.4,2.5-1.7,2.7-3.3
	c0.1-1.5-0.8-2.9-2.2-3.5c-1.7-0.8-3.6-1.4-5.5-1.8c-2.8-0.6-5.6-1.5-8.2-2.7c-2.3-1.1-3.9-3.2-4.4-5.7c-0.8-4,0.9-8,4.4-10.1
	c3.6-2.2,7.5-2.6,11.5-2c2,0.2,3.9,0.8,5.6,1.8c2.8,1.6,4.7,4.4,4.9,7.6c0.1,1.3,0,1.4-1.3,1.5L365.4,260.9z"/>
<path class="st0" d="M295,284.8h-6.8c-0.8,0-1-0.5-1.1-1c-0.6-1.7-1.2-3.4-1.7-5.1c-0.1-0.9-1-1.6-1.9-1.4l0,0
	c-3.4,0.1-6.8,0.1-10.2,0c-0.8-0.1-1.5,0.4-1.7,1.2c-0.5,1.7-1.2,3.4-1.7,5.1c-0.1,0.8-0.9,1.4-1.8,1.3c-2-0.1-4.1,0-6,0
	c-0.3-0.8,0.1-1.3,0.3-1.8c3.9-10.3,7.8-20.6,11.7-30.9c0.6-1.6,0.6-1.6,2.3-1.6s3.1,0.1,4.6,0c1-0.2,1.9,0.5,2.1,1.4l0,0l0,0
	c1.5,4.1,3,8.2,4.6,12.2l6.8,18.2C294.8,283.1,295,284,295,284.8z M278.7,259.6h-0.4l-4.2,11.9h8.7
	C281.4,267.4,280,263.5,278.7,259.6L278.7,259.6z"/>
<path class="st0" d="M490.9,143.7c-1.3-4.3-1.3-8.9,0.1-13.2c2.5-8.2,7.8-14.5,13.6-20.6c0.7,0.3,0.7,0.9,0.9,1.3
	c1.8,4.5,2.7,9.2,2.8,14c0.1,7-2.8,13.6-8,18.2c-2,1.9-4.2,3.5-6.7,4.8c-0.2,0.2-0.5,0.4-0.9,0.4c-0.7-0.9-1.2-1.9-1.6-3
	C491.5,145,491.4,144.2,490.9,143.7z"/>
<path class="st0" d="M73.5,142.5c-7.3-4.2-12.4-10.1-13.7-18.6c-0.6-4.1-0.3-8.2,0.7-12.2c0.6-2.6,1.5-5.2,2.7-7.6
	c0.2,0,0.4,0,0.6,0.1c5.6,6,10.5,12.5,12.8,20.5c1.3,4.1,1.3,8.6-0.1,12.7c-0.6,0.8-0.8,1.9-0.7,2.9c-0.3,0.8-0.7,1.6-1.2,2.3
	L73.5,142.5z"/>
<path class="st0" d="M203.3,263.7c1.9-3.3,3.8-6.5,5.7-9.6c0.7-1.1,1.1-2.7,2.2-3.3s2.6-0.2,4-0.2s2.6,0,4,0c0,0.7-0.2,1.4-0.7,1.9
	c-3.5,5.9-7,11.8-10.6,17.6c-0.7,1.1-1,2.3-1,3.6c0.1,3.3,0,6.5,0,9.8c0,1.4,0,1.4-1.4,1.4h-4.8c-1.4,0-1.4,0-1.4-1.4
	c0-3.4-0.1-6.8,0-10.2c0-1.1-0.3-2.3-0.9-3.2c-3.6-5.9-7.1-11.7-10.6-17.6c-0.3-0.5-0.9-1-0.7-1.9h7.4c0.9,0,1.1,0.7,1.5,1.3
	c2.1,3.5,4.2,7,6.3,10.6C202.4,263,202.8,263.4,203.3,263.7z"/>
<path class="st0" d="M74.6,143.3c0.7,0.1,1-0.5,1.4-0.8c3.1-2.4,6.9-3.8,10.8-3.9c6.2-0.3,12,1.4,17.7,3.8c1.6,0.5,3.1,1.3,4.5,2.3
	c-1.7,1.5-3.5,2.9-5.4,4c-5.6,3.3-11.7,5.2-18.3,4.6c-4.4-0.4-8.7-1.6-12.7-3.6l-1.6-0.8l-0.4-0.3c0.4-1.1,0.9-2.1,1.7-3
	c1.3,0.1,1.7-1,2.3-1.8L74.6,143.3L74.6,143.3z"/>
<path class="st0" d="M487.6,139.4c0.9,0.8,1.6,1.9,1.8,3.1c-0.1,0.2-0.2,0.4-0.2,0.6c-12.9,7.6-26.9,6.1-37.7-3.3
	c0-0.4,0.4-0.5,0.6-0.6c5.3-2.9,11-4.9,17-5.8c6-0.8,11.5,0.3,16.2,4.2c0.3,0.3,0.6,0.5,0.8,0.8C486.4,139,486.9,139.3,487.6,139.4z
	"/>
<path class="st0" d="M81.6,84.9c0.4,0.1,0.6,0.4,0.8,0.7c3.4,4.4,6.1,9.2,8.1,14.3c2.1,5.6,2.5,11.2,0.3,16.8
	c-0.6,1.4-1.3,2.8-2.2,4.1c-0.4,0.7-0.9,0.9-1.5,0.3c-7.4-5.8-11.6-13.1-10.4-22.8c0.6-4.4,2-8.7,4.2-12.7c0.1-0.2,0.2-0.4,0.4-0.6
	C81.4,85,81.5,85,81.6,84.9z"/>
<path class="st0" d="M479.6,127.2c-2.1-2.5-2.9-5.4-3.5-8.4c-0.9-4.6-0.3-9.3,1.6-13.5c2.1-5.1,5-9.8,8.4-14.1
	c0.2-0.2,0.3-0.4,0.5-0.6c0.1-0.1,0.3-0.1,0.4-0.2c0.7,0.8,1.2,1.7,1.5,2.6c1.9,4.1,3,8.6,3.2,13.1c0.2,4.2-1,8.4-3.3,12
	C486.1,121.8,483.2,124.9,479.6,127.2z"/>
<path class="st0" d="M83.8,127.7c2.4-4.3,6.1-6.7,10.8-7.9c3-0.7,6.1-0.7,9.1,0c5.7,1.3,11.2,3.6,16.1,6.9c-0.1,0.2,0,0.4-0.1,0.4
	c-5.8,4-12.1,6.4-19.2,6.1c-5.3-0.4-10.3-2.1-14.8-4.9C85.2,128,84.7,127.3,83.8,127.7L83.8,127.7z"/>
<path class="st0" d="M440.1,122.4c1.2-0.9,2.4-1.8,3.7-2.4c4.2-2.6,8.9-4.4,13.7-5.3c6.3-1.1,11.9,0.4,16.6,5
	c0.2,0.2,0.5,0.5,0.7,0.7c1.2,1.4,1.2,1.4-0.3,2.4c-9.6,6.4-19.7,7.4-30.2,2.3C442.7,124.4,441.3,123.5,440.1,122.4z"/>
<path class="st0" d="M199.9,409c-1.8,0-3.7-0.5-5.2-1.5c-2.5-1.5-5-3.1-7.5-4.6c-1.1-0.7-1.1-0.7-0.4-1.9c2.9-4.7,5.8-9.5,8.7-14.2
	c0.5-0.9,1.1-1.7,1.6-2.6s1-0.9,1.8-0.4c2.4,1.6,4.9,3,7.4,4.5c2.7,1.5,4.4,4.2,4.7,7.3c0.1,0.8,0,1.7-0.2,2.5
	c-0.7,3.9-3,7.3-6.3,9.5C203.1,408.5,201.5,409,199.9,409z M199.8,389.3c-2.3,3.8-4.6,7.5-6.9,11.2c-0.3,0.3-0.3,0.8,0,1.1l0,0
	c0.1,0.1,0.2,0.1,0.3,0.2c1.1,0.6,2.1,1.3,3.1,1.9c2.1,1.3,4.8,0.9,6.5-0.9c1.2-1.2,2.2-2.7,2.7-4.4c1-2.8,0.4-4.9-1.9-6.6
	C202.4,390.9,201.1,390.2,199.8,389.3L199.8,389.3z"/>
<path class="st0" d="M169.3,359.6c0,1.7-0.5,3.3-1.3,4.7c-1.8,3.1-4.6,5.4-8.1,6.5c-7.4,2.2-12.6-3.5-13.8-8.4
	c-0.4-1.8-0.3-3.6,0.3-5.3c1.6-4.8,5.8-8.3,10.9-8.8C163.6,347.4,169.3,352.8,169.3,359.6z M159.3,352.9c-3.6,0-8,3.5-8.8,6.9
	s2.5,7.3,5.9,6.8c3.6-0.4,6.6-2.8,8-6.1C166.1,356.6,162.2,352.6,159.3,352.9L159.3,352.9z"/>
<path class="st0" d="M138.3,351.7c-0.7-1.1-1.4-2.2-2-3.4c-0.5-0.8-0.2-1.1,0.5-1.5c2-1,3.9-2.1,5.9-3.2c1.5-0.8,1.6-0.7,0.7-2.4
	s-1.8-3.4-2.7-5.1c-0.6-1.2-0.7-1.2-1.9-0.5c-2.1,1.1-4.2,2.2-6.2,3.4c-0.7,0.4-1.1,0.3-1.5-0.4c-2.1-3.4-2.1-3.3,1.4-5.2l15-8.1
	c1.4-0.8,1.5-0.8,2.3,0.7c0.5,0.9,1.5,1.8,1.2,2.7s-1.7,1.2-2.6,1.8c-1.2,0.7-2.5,1.4-3.7,2c-0.6,0.4-0.7,0.8-0.4,1.4
	c1.1,2,2.2,4,3.3,6.1c0.4,0.7,0.8,0.7,1.4,0.4c1.8-1,3.6-2,5.4-2.9c1.2-0.6,1.2-0.6,1.9,0.6c0.4,0.7,0.8,1.5,1.2,2.2
	s0.3,1.1-0.3,1.4L138.3,351.7z"/>
<path class="st0" d="M307.4,408.1c-0.1-0.5,0.2-0.7,0.6-0.8c1.2-0.3,2.4-0.6,3.5-0.9c3.6-0.9,7.2-1.7,10.8-2.5
	c0.9-0.2,1.3-0.1,1.5,1c0.7,3.5,1.2,2.6-2.2,3.5c-2.3,0.6-4.7,1.1-7.1,1.6c-1.5,0.4-1.6,0.4-1.2,1.9c0.9,3.3,0.1,3.1,3.6,2.3
	c2.1-0.5,4.1-1,6.2-1.4c1.3-0.3,1.4-0.2,1.7,1c0.7,2.5,0.7,2.5-1.7,3s-4.6,1.1-6.9,1.6c-1,0.2-1.3,0.7-1,1.6
	c0.4,1.2,0.1,2.9,1.1,3.6s2.3-0.2,3.5-0.5c2.2-0.5,4.5-1,6.7-1.5c1.3-0.3,1.5-0.2,1.7,1c0.7,3.2,1,2.6-2,3.4l-12.9,3
	c-0.8,0.2-1.1,0-1.3-0.8c-1.5-6.7-3.1-13.3-4.7-20C305.1,398.2,307.4,408.2,307.4,408.1z"/>
<path class="st0" d="M411,345.3c-0.3,0.7-0.7,1.3-1.2,1.9c-0.7,1.1-1.3,2.2-3,1.4c-0.7-0.2-1.5-0.1-2,0.4c-1.1,0.8-2,1.9-2.4,3.1
	c-0.4,0.9-0.1,2,0.7,2.6c0.8,0.7,1.9,0.7,2.6-0.1c1.5-1.1,3-2.4,4.5-3.6c0.8-0.7,1.6-1.2,2.5-1.7c2-1.1,4.5-0.9,6.3,0.5
	c2.1,1.4,3.1,3.9,2.6,6.4c-0.6,3.9-3,7.2-6.5,9.1c-2.2,1.3-4.8,1.3-7,0c-0.7-0.4-0.9-0.8-0.4-1.5c0.5-0.5,0.9-1.1,1.2-1.7
	c0.6-1,1.1-1.4,2.3-0.7c0.9,0.4,2,0.3,2.8-0.3c1.7-1,2.9-2.6,3.3-4.5c0.4-1.2-0.3-2.5-1.5-2.8c-0.5-0.2-1.1-0.1-1.6,0.1
	c-1,0.4-1.9,1-2.7,1.8c-1.2,1.1-2.5,2.2-3.9,3.1c-2.5,1.6-4.9,1.7-7,0.3c-2.2-1.5-3.2-4.3-2.5-6.9c0.7-3.2,2.8-6,5.7-7.6
	C406.2,343.3,409.1,343.6,411,345.3z"/>
<path class="st0" d="M279.9,416.3c-0.3,0-0.5,0-0.8,0c-1.1,0.1-1.9-0.1-2.2-1.5c-0.5-2.3-5.1-2.9-6.6-1.5c-0.9,0.7-1,1.9-0.4,2.8
	c0.2,0.2,0.4,0.4,0.6,0.5c1.3,0.6,2.6,1.1,3.9,1.5c1.3,0.5,2.6,0.8,3.8,1.3c2.5,1.1,4,3,3.9,5.8c0.1,2.7-1.5,5.1-4,6
	c-3.7,1.5-7.8,1.3-11.3-0.7c-2-1.1-3.3-3-3.5-5.2c-0.2-1.5,0-1.7,1.5-1.6c0.6,0,1.3,0.1,1.9,0.1c1,0,1.5,0.4,1.6,1.4
	s0.7,1.8,1.6,2.2c1.7,0.9,3.7,1.1,5.6,0.5c0.9-0.2,1.6-1,1.7-1.9c0.1-1-0.4-1.9-1.2-2.4c-0.9-0.5-1.8-0.9-2.8-1.2
	c-1.6-0.4-3.2-1-4.7-1.6c-2.4-1.1-4-2.8-3.9-5.6c0-2.7,1.7-5,4.3-5.8c3.2-1.3,6.8-1,9.8,0.7c1.9,1,3.2,2.9,3.3,5.1
	c0.1,1-0.2,1.3-1.2,1.1C280.5,416.4,280.1,416.4,279.9,416.3L279.9,416.3z"/>
<path class="st0" d="M346.5,411.4c-0.3-1.8,0.1-1.7,1.5-2.3c0.2-0.1,0.4-0.1,0.5-0.2c2.4-0.9,2.4-0.9,2.6,1.5
	c0.5,5.1-2.6,9.2-7.9,10.4c-4,1.1-8.2-0.4-10.6-3.6c-2.2-2.6-3.3-5.9-3.2-9.2c0.2-5.3,4.2-9.6,9.5-10.1c3.4-0.7,6.8,0.7,8.7,3.5
	c0.7,0.9,0.6,1-0.4,1.5c-0.4,0.2-0.9,0.3-1.2,0.5c-1.1,0.7-2.5,0.6-3.4-0.4c-2.5-2.2-6.9-0.6-8,2.6s1,8.9,4.1,10.6
	C341.5,417.8,346.8,416.2,346.5,411.4z"/>
<path class="st0" d="M368.6,408.4c-1.9-7.5-3.7-14.7-5.5-21.9c-0.3-0.8,0-1.7,0.8-2.1c3.9-2.5,2.3-2.6,6.1,0
	c5,3.4,9.9,6.9,14.8,10.3c0.6,0.3,1.2,0.8,1.6,1.3c-1.1,0.9-2.3,1.8-3.5,2.5c-0.5,0.3-0.8,0.1-1.2-0.1c-0.9-0.6-1.8-1.3-2.6-2
	c-0.4-0.5-1.2-0.6-1.7-0.1l0,0c-1.7,1.2-3.5,2.4-5.2,3.6c-0.6,0.3-0.8,1-0.5,1.6c0.3,1,0.5,2,0.8,3c0.3,0.6,0.1,1.3-0.5,1.6
	C370.9,406.7,369.8,407.5,368.6,408.4z M374.7,393.4c-2.1-2-5.1-4.1-6.4-4.4c0.6,2.5,1.2,4.9,2,7.5c1.2-0.8,2.1-1.4,3.1-2.1
	C373.8,394.1,374.3,393.8,374.7,393.4L374.7,393.4z"/>
<path class="st0" d="M206.2,414.4c2.8-2.9,5.2-5.5,7.7-8.1c2.7-2.8,5.4-5.6,8.1-8.5c0.4-0.6,1.1-0.8,1.7-0.4l0,0l0,0
	c1.1,0.6,2.7,0.7,3.4,1.7s0.2,2.4,0.1,3.6c-0.2,6.4-0.5,12.8-0.8,19.2c0,0.3-0.1,0.6-0.1,0.9c-1.4-0.4-2.7-0.9-4.1-1.6
	c-0.6-0.2-0.6-0.7-0.5-1.3c0.1-1.1,0.1-2.2,0.2-3.2c0.1-0.6-0.2-1.2-0.8-1.3c-2-0.8-3.9-1.6-5.8-2.5c-0.6-0.3-1.3-0.1-1.7,0.4
	c-0.7,0.8-1.4,1.5-2,2.3c-0.3,0.6-1.1,0.8-1.6,0.4l0,0C208.8,415.4,207.6,415,206.2,414.4z M222.6,403.8c-2,1.7-3.8,3.6-5.2,5.9
	c1.6,0.8,3.1,1.4,4.8,2c0.3-2.4,0.6-4.9,0.6-7.3C222.8,404,222.8,403.8,222.6,403.8z"/>
<path class="st0" d="M305,416c0.2,3.3-2.1,6.2-5.3,6.8c-1.8,0.5-3.7,0.3-5.5,0.6c-1.3,0.2-1.3,0.2-1.2,1.5c0.1,1.8,0.3,3.6,0.4,5.4
	c0.1,0.9-0.2,1.3-1.1,1.3s-1.8,0.1-2.7,0.3c-0.8,0.1-1.1-0.2-1.2-1c-0.5-5.8-1-11.6-1.5-17.4c0-0.5-0.1-1-0.1-1.5
	c-0.2-2.4-0.2-2.4,2.3-2.6s4.8-0.4,7.3-0.6c0.5,0,1-0.1,1.5-0.1C302.3,408.8,305,411.6,305,416z M295.7,412.8l-2.8,0.2
	c-0.7,0.1-1,0.4-0.9,1.1c0.2,1.6,0.3,3.2,0.4,4.8c0,0.5,0.4,0.9,0.9,0.8c1.5-0.3,3.1-0.1,4.6-0.6c1.6-0.3,2.7-1.8,2.4-3.4
	c0-1.6-1.3-2.9-2.9-2.9h-0.2C296.6,412.8,296,412.8,295.7,412.8L295.7,412.8z"/>
<path class="st0" d="M253,407.1c-1.4,1.5-2.6,2.9-4,4.3c-2,2-4.1,4-6.3,5.9c-0.7,0.6-1.1,1.4-1.3,2.3c-0.5,1.9-1,3.8-1.6,5.7
	c-0.2,0.9-0.6,1.2-1.5,0.9c-0.8-0.3-1.6-0.5-2.4-0.7c-1.1-0.2-1.2-0.8-0.9-1.6c0.5-1.9,1-3.8,1.6-5.7c0.3-0.9,0.3-1.9,0-2.8
	c-1.1-3.9-2.2-7.8-3.3-11.6c-0.3-0.7-0.4-1.4-0.4-2.2c1.7,0.2,3.3,0.7,4.9,1.3c0.4,0.2,0.4,0.7,0.6,1.2c0.6,2.3,1.3,4.6,1.9,6.8
	c0.1,0.6,0.3,1.1,0.7,1.6c1.7-1.6,3.3-3.2,5-4.7c2.6-2.5,1.6-2.2,5.1-1.3C251.8,406.5,252.4,406.8,253,407.1z"/>
<path class="st0" d="M432.2,339.6c-0.6,1.1-1.2,2.2-1.7,3.3c-0.4,0.9-0.9,0.8-1.7,0.4c-2.4-1.3-4.9-2.6-7.3-3.8
	c-2.2-1.2-4.4-2.3-6.6-3.5c-0.8-0.4-1.2-0.4-1.6,0.5c-0.6,1.3-1.4,2.6-2,3.9c-0.4,0.7-0.8,0.8-1.5,0.5c-2.8-1.3-2.8-1.2-1.4-3.9
	l6.6-12.6c0.6-1.2,0.7-1.2,1.8-0.6c2.6,1.3,2.6,1.3,1.3,3.8c-0.4,0.8-0.8,1.6-1.2,2.4s-0.3,1.3,0.6,1.8c4.3,2.2,8.5,4.4,12.8,6.7
	C430.8,338.6,431.6,339,432.2,339.6z"/>
<path class="st0" d="M172,390.9c-0.3,0.1-0.6,0-0.8-0.3l-10.1-9.7c-0.4-0.3-0.5-0.8-0.2-1.2c0.1-0.1,0.2-0.2,0.2-0.2
	c0.2-0.2,0.4-0.5,0.6-0.7c4.3-4.5,8.7-9.1,13-13.6c1.1-1.1,1.1-1.1,2.2-0.1c2.5,2.4,2.5,2.4,0.1,4.8c-3.1,3.2-6.2,6.5-9.3,9.7
	c-0.9,1-0.9,1,0,2c1.9,1.8,3.7,3.5,5.6,5.3c1.3,1.3,1.5,1,0,2.6c-0.3,0.3-0.6,0.6-0.9,1L172,390.9z"/>
<path class="st0" d="M391.6,385.7l4.9-4.6c0.8-0.7,1.6-1.5,2.4-2.2c0.3-0.4,0.8-0.4,1.2-0.1l0.1,0.1c2.4,2.1,2.4,2.3,0.1,4.4
	c-2.6,2.4-5.3,4.9-7.9,7.3c-0.5,0.6-1.1,1-1.8,1.4l-2.3-2.5c-4-4.3-7.9-8.5-11.9-12.8c-0.9-1-0.9-1,0.1-1.9s1.6-2.1,2.6-2.1
	s1.7,1.4,2.5,2.2c2.9,3,5.7,6.1,8.5,9.2C390.6,384.6,391,385.1,391.6,385.7z"/>
<path class="st0" d="M193.8,380.1l-2.6,3.3l-10.2,13c-1,1.2-1,1.2-2.2,0.3c-2.8-2.1-2.8-2.1-0.6-4.8l10.8-13.8c1-1.2,1-1.2,2.2-0.2
	C192.2,378.5,193,379.3,193.8,380.1z"/>
<path class="st0" d="M363.7,410.2c0.1,0.3-0.1,0.6-0.3,0.7l-0.5,0.3c-1.1,0.5-2.1,1.7-3.2,1.5s-1.3-1.8-1.8-2.8
	c-2.8-5.1-5.5-10.1-8.2-15.2c-0.8-1.4-0.8-1.4,0.6-2.1c1-0.5,1.9-1.5,2.9-1.3s1.2,1.7,1.7,2.6c2.8,5,5.5,10.1,8.2,15.2L363.7,410.2z
	"/>
<path class="st0" d="M409.1,373.6c0,0.4-2.7,3.5-3.1,3.5c-0.3-0.1-0.6-0.2-0.8-0.5c-5-4.5-10-8.9-15.1-13.4c-0.7-0.6-0.6-1.1,0-1.7
	s1.2-1.2,1.7-1.9c0.5-0.7,1-0.8,1.7-0.2c5,4.5,10,8.9,15,13.4C408.8,373.1,409,373.3,409.1,373.6z"/>
<path class="st0" d="M492.7,148.6c0.3,0,0.6-0.1,0.9-0.4c-0.3,0.9,0.3,1.5,0.6,2.1c1.6,3,3.2,5.9,4.6,9c0.2,0.5,0.4,1.1,0.6,1.6
	l-1.1,0.2c0.1-0.4,0.1-0.7-0.4-0.6l0,0c0.6-0.6,0-1.1-0.2-1.5c-1.2-2.9-2.8-5.7-4.3-8.5C493.3,149.9,493,149.3,492.7,148.6z"/>
<path class="st0" d="M70.7,148.6l0.4,0.3c-1.9,3.4-3.7,6.8-5.3,10.3c-0.3,0.8-0.7,1.5-1.2,2.2l-0.4-0.5
	C66.1,156.7,68.2,152.6,70.7,148.6z"/>
<path class="st0" d="M74.6,143.8c-0.6,0.8-0.9,1.9-2.3,1.8c0.3-0.6,0.6-1.2,1-1.9c0.3-0.4,0.3-0.8,0.2-1.2h1c0,0.3-0.2,0.5,0.1,0.8
	l0,0c-0.2-0.1-0.4,0-0.4,0.2S74.5,143.7,74.6,143.8z"/>
<path class="st0" d="M75.8,140.2c-0.2-1,0.1-2,0.7-2.9c0.3,0.2,0.6,0,1.1-0.2C77.1,138.3,76.5,139.3,75.8,140.2z"/>
<path class="st0" d="M487.6,139.4c-0.6-0.1-1.2-0.5-1.4-1c0.3-0.4,0.1-0.9-0.1-1.3l0,0C486.9,137.6,487.5,138.5,487.6,139.4z"/>
<path class="st0" d="M490.9,143.7c0.5,0.5,0.6,1.3,0.2,1.9c-0.7-0.6-1.1-1.5-1.1-2.4l0,0C490.3,143.4,490.4,143.8,490.9,143.7z"/>
<path class="st0" d="M80.4,132.9c-0.4,0.5-0.4,1.3-1.2,1.5l0,0C79.5,133.8,79.7,133.1,80.4,132.9L80.4,132.9z"/>
<path class="st0" d="M486,137.1l-0.8-1.2C486,136.3,486.1,136.7,486,137.1L486,137.1z"/>
<path class="st0" d="M484.5,134.4l0.8,1C484.8,135.3,484.5,134.9,484.5,134.4L484.5,134.4z"/>
<path class="st0" d="M79.2,134.4c0.1,0.4-0.1,0.8-0.4,1C78.6,134.9,79,134.7,79.2,134.4L79.2,134.4z"/>
<path class="st0" d="M484.6,134.4c-0.6-0.1-0.7-0.6-0.8-1.1l0,0C484.1,133.6,484.4,134,484.6,134.4L484.6,134.4z"/>
<path class="st0" d="M80.4,132.9c0.1-0.3,0-0.7,0.6-1L80.4,132.9L80.4,132.9z"/>
<path class="st0" d="M78.2,136.1c0.1,0.1,0.1,0.2,0,0.3s-0.2,0.2-0.3,0.2c-0.1-0.1-0.1-0.2,0-0.3l0,0
	C78,136.3,78.1,136.2,78.2,136.1z"/>
<path class="st0" d="M81.7,130.8v0.1c0,0-0.2,0.1-0.2,0S81.5,130.9,81.7,130.8C81.7,130.8,81.6,130.8,81.7,130.8z"/>
<path class="st0" d="M82.4,129.8l-0.1,0.1L82.4,129.8C82.2,129.8,82.4,129.6,82.4,129.8z"/>
<path class="st0" d="M483,132.1l0.4,0.8l0,0L483,132.1L483,132.1z"/>
<path class="st0" d="M489.1,143.1c0.1-0.2,0.2-0.4,0.2-0.6c0.3,0.1,0.5,0.4,0.5,0.7l0,0C489.7,143.4,489.4,143.2,489.1,143.1z"/>
<polygon class="st0" points="83.8,127.7 83.8,127.7 83.7,127.7 "/>
<path class="st0" d="M441.5,53.7l0.1-0.1L441.5,53.7L441.5,53.7z"/>
<path class="st0" d="M483.3,132.9l0.4,0.4l0,0L483.3,132.9z"/>
<path class="st0" d="M483,132.1l-0.1-0.1L483,132.1L483,132.1z"/>
<path class="st0" d="M83.1,128.7L83.1,128.7L83.1,128.7z"/>
<path class="st0" d="M83.1,128.7L83.1,128.7L83.1,128.7z"/>
<path class="st0" d="M282,496.3c4.4,0,8,3.7,7.9,8.1c0,4.4-3.7,8-8.1,7.9c-4.4,0-8-3.7-7.9-8.1l0,0C274,499.8,277.6,496.3,282,496.3
	z"/>
<path class="st0" d="M499.6,161.6c0,0.1-0.1,0.2-0.1,0.3s-0.1,0.4-0.4,0.3c-0.1,0-0.2-0.1-0.2-0.2c0-0.2,0.2-0.3,0.3-0.4
	L499.6,161.6L499.6,161.6z"/>
<path class="st0" d="M433.1,454.5c-0.1,0.2-0.3,0.3-0.5,0.2l0,0l-0.1-0.1l0.5-0.2L433.1,454.5z"/>
<path class="st0" d="M520.5,247.5L520.5,247.5l-0.1-0.1c0,0,0.1-0.2,0.1,0C520.6,247.4,520.5,247.5,520.5,247.5z"/>
<path class="st0" d="M488,392.1c-0.2-0.2,0-0.4,0.1-0.6l0.3,0.3C488.4,392,488.2,392.1,488,392.1L488,392.1z"/>
<path class="st0" d="M488,392l-0.2,0.2C487.8,392,487.8,392,488,392L488,392z"/>
<path class="st0" d="M55.7,350.8l-0.1,0.1c0-0.1-0.1-0.2-0.1-0.2l0.1-0.1L55.7,350.8z"/>
<path class="st0" d="M509,187.3l-0.1,0.1l-0.1-0.1l0.1-0.1L509,187.3z"/>
<path class="st0" d="M52.7,194v0.1V194z"/>
<path class="st0" d="M498,160.6c0.5-0.1,0.5,0.2,0.4,0.6C498.2,161.1,498,160.8,498,160.6z"/>
<polygon class="st0" points="487,384.3 487,384.1 487.1,384.1 "/>
<path class="st0" d="M463.8,424.8c0,0.2-0.1,0.2-0.2,0.2s-0.1-0.1-0.1-0.1l0.3-0.2L463.8,424.8z"/>
<path class="st0" d="M434.3,445.6l-0.2,0.2C433.8,445.6,434,445.6,434.3,445.6L434.3,445.6z"/>
<polygon class="st0" points="134.9,449.9 134.8,449.9 134.8,449.8 "/>
<path class="st0" d="M125.9,450.2l0.1,0.1l-0.1,0.1l-0.1-0.1L125.9,450.2z"/>
<polygon class="st0" points="72.5,386.3 72.6,386.5 72.4,386.5 "/>
<path class="st0" d="M398.6,470c-0.2,0.1-0.4,0.3-0.6,0.1l0,0c0-0.2,0.1-0.4,0.3-0.4L398.6,470z"/>
<path class="st0" d="M398,470.1v0.2C397.9,470.3,397.9,470.3,398,470.1L398,470.1z"/>
<path class="st0" d="M162.3,475.9l0.3,0.1C162.3,476.2,162.2,476.1,162.3,475.9L162.3,475.9z"/>
<path class="st0" d="M95.8,419.8L96,420c-0.1,0-0.1,0.1-0.2,0.1C95.8,420,95.7,419.9,95.8,419.8C95.7,419.8,95.8,419.7,95.8,419.8
	L95.8,419.8z"/>
<path class="st0" d="M74.6,143.8c-0.1-0.1-0.4-0.2-0.4-0.3c0-0.2,0.2-0.3,0.3-0.2l0,0L74.6,143.8z"/>
</svg>
