<?xml version="1.0" encoding="utf-8"?>
<!-- Generator: Adobe Illustrator 26.0.1, SVG Export Plug-In . SVG Version: 6.00 Build 0)  -->
<svg version="1.1" id="Layer_1" xmlns="http://www.w3.org/2000/svg" xmlns:xlink="http://www.w3.org/1999/xlink" x="0px" y="0px"
	 viewBox="0 0 150 150" style="enable-background:new 0 0 150 150;" xml:space="preserve">
<style type="text/css">
	.st0{fill:#3C4E5A;}
	.st1{fill:#2AAAA9;}
</style>
<g>
	<path class="st0" d="M24,91.7c-0.9,0-1.5-0.4-1.5-1.1c0-0.8,1-1.5,2.7-2.8c6.2-5.3,27.2-19.7,27.2-40.2c0-15.1-7.3-16.7-11.6-16.7
		c-3.4,0-6.5,1-8.7,3.4c-1.7,2-2.8,4.8-2.9,7.4c-0.2,1.9-0.6,2.4-1.1,2.4s-0.9-0.5-0.9-2.2c-0.1-0.8-0.5-8.6-0.5-10.9
		c0-1.1,0.2-1.6,1-2.2c3.5-1.6,8.9-3.4,17.5-3.4c16.5,0,23.3,8.1,23.3,19.1c0,17.5-17.8,28.6-27.4,35.7c-0.5,0.3-0.3,0.6,0.2,0.6
		h4.7c1.5,0,10.3-0.2,15.2-0.7c6-0.6,7.8-2.9,8.9-6.9c0.3-1.1,0.6-1.6,1.1-1.6c0.6,0,0.8,0.4,0.8,1.6c0,1.1-1.4,12.6-2.4,15.6
		c-0.9,2.3-2.4,2.6-9.9,2.6H24z"/>
	<path class="st0" d="M124.9,51.3c0,24-21.9,38.8-38.3,42c-0.9,0.2-1.7,0.3-2.3,0.3c-0.8,0-1.1-0.2-1.1-0.6c0-0.3,0.3-0.7,1.6-1.3
		C99.6,84.4,109,68.5,109,52.4c0-14.1-3.7-22.1-10.7-22.1c-5.2,0-8.4,4.7-8.4,12.8c0,11.7,5.7,16.2,10.9,16.2c1.5,0,2.2-0.1,3.1-0.3
		c0.8-0.2,1.5-0.3,1.8-0.3c0.4,0,0.7,0.1,0.7,0.5c0,0.3-0.3,0.8-0.4,0.9c-2.2,2.5-6.6,5.2-12.7,5.2c-11.4,0-18-7.7-18-17.9
		c0-11.2,9.3-21.6,25-21.6C117.6,25.6,124.9,38.6,124.9,51.3z"/>
</g>
<g>
	<g>
		<g>
			<polygon class="st1" points="29.2,113.2 24.9,106.1 20.4,106.1 27,117.1 27,124.1 31,124.1 31,117.2 37.7,106.1 33.3,106.1 			
				"/>
		</g>
		<g>
			<polygon class="st1" points="47.6,116.4 56.4,116.4 56.4,113.3 47.6,113.3 47.6,109.4 57.1,109.4 57.1,106.1 43.6,106.1 
				43.6,124.1 57.4,124.1 57.4,120.7 47.6,120.7 			"/>
		</g>
		<g>
			<path class="st1" d="M69.3,106.1l-6.8,18h4.1L68,120h6.8l1.4,4.1h4.1l-6.7-18H69.3z M69,117.1l2.3-6.6h0.1l2.3,6.6H69z"/>
		</g>
		<g>
			<path class="st1" d="M101.1,122c0-0.4-0.1-0.8-0.1-1.2c0-0.4,0-0.8-0.1-1c0-0.5-0.1-0.9-0.2-1.4c-0.1-0.5-0.2-0.8-0.5-1.3
				c-0.2-0.4-0.5-0.8-0.8-1c-0.3-0.3-0.8-0.5-1.2-0.6v-0.1c1-0.4,1.7-1,2.2-1.8c0.5-0.8,0.7-1.7,0.7-2.8c0-0.7-0.2-1.4-0.4-2
				c-0.2-0.6-0.6-1.1-1.1-1.6c-0.5-0.5-1-0.8-1.7-1.1c-0.7-0.2-1.4-0.4-2.2-0.4h-9.8v18h4V117h4c1,0,1.7,0.2,2.2,0.7
				c0.5,0.5,0.8,1.1,0.8,2c0.1,0.4,0.1,0.8,0.1,1.1s0.1,0.8,0.1,1.1c0,0.4,0.1,0.8,0.2,1.1c0.1,0.4,0.2,0.7,0.2,1h4
				c-0.2-0.2-0.3-0.5-0.4-1C101.2,122.8,101.1,122.4,101.1,122z M96.5,113.7c-0.5,0.4-1.1,0.6-2,0.6h-4.4v-5h4.4
				c0.9,0,1.6,0.2,2,0.6c0.5,0.4,0.7,1.1,0.7,1.9C97.2,112.5,96.9,113.2,96.5,113.7z"/>
		</g>
		<g>
			<path class="st1" d="M121.7,115.7c-0.3-0.4-0.7-0.7-1.1-1c-0.4-0.2-0.8-0.5-1.2-0.6c-0.4-0.2-0.8-0.3-1.1-0.4
				c-0.4-0.1-0.7-0.2-0.8-0.2c-1.1-0.3-2-0.5-2.8-0.8c-0.7-0.2-1.3-0.4-1.7-0.5s-0.7-0.4-0.8-0.6c-0.2-0.2-0.2-0.5-0.2-0.8
				c0-0.4,0.1-0.8,0.2-1c0.2-0.2,0.4-0.5,0.7-0.6c0.2-0.2,0.5-0.3,0.9-0.4c0.3-0.1,0.7-0.1,1-0.1c0.5,0,0.9,0,1.4,0.2
				c0.5,0.1,0.8,0.2,1.1,0.5c0.3,0.2,0.6,0.5,0.8,0.8c0.2,0.4,0.3,0.8,0.3,1.4h3.8c0-1.1-0.2-2-0.6-2.7c-0.4-0.8-0.9-1.4-1.6-1.8
				c-0.7-0.5-1.4-0.8-2.3-1c-0.9-0.2-1.8-0.3-2.7-0.3c-0.8,0-1.7,0.1-2.4,0.3c-0.8,0.2-1.5,0.5-2.2,1s-1.1,1-1.6,1.7
				c-0.4,0.7-0.6,1.5-0.6,2.4c0,0.8,0.2,1.5,0.5,2.1c0.3,0.6,0.8,1.1,1.3,1.4c0.5,0.4,1.1,0.7,1.7,1c0.7,0.2,1.3,0.5,2,0.6
				s1.3,0.3,2,0.5c0.7,0.2,1.2,0.3,1.7,0.5c0.5,0.2,0.9,0.5,1.2,0.8c0.3,0.3,0.5,0.7,0.5,1.2c0,0.5-0.2,0.8-0.4,1.1
				c-0.2,0.3-0.5,0.5-0.9,0.7c-0.4,0.2-0.8,0.3-1.1,0.3c-0.4,0.1-0.8,0.1-1.1,0.1c-0.5,0-1-0.1-1.5-0.2c-0.5-0.2-0.9-0.3-1.3-0.6
				c-0.4-0.3-0.7-0.6-0.9-1c-0.2-0.5-0.3-1-0.3-1.5h-3.8c0,1.1,0.2,2,0.6,2.9c0.5,0.8,1,1.5,1.7,2c0.8,0.5,1.5,0.9,2.5,1.2
				c1,0.2,1.9,0.4,2.9,0.4c1.3,0,2.3-0.2,3.2-0.5c1-0.3,1.7-0.7,2.3-1.2c0.6-0.5,1.1-1.1,1.4-1.8c0.3-0.8,0.5-1.5,0.5-2.3
				c0-0.7-0.1-1.3-0.3-1.8C122.3,116.4,122.1,116,121.7,115.7z"/>
		</g>
	</g>
</g>
</svg>
