<?xml version="1.0" encoding="utf-8"?>
<!-- Generator: Adobe Illustrator 24.2.1, SVG Export Plug-In . SVG Version: 6.00 Build 0)  -->
<svg version="1.1" id="Layer_1" xmlns="http://www.w3.org/2000/svg" xmlns:xlink="http://www.w3.org/1999/xlink" x="0px" y="0px"
	 viewBox="0 0 150 150" style="enable-background:new 0 0 150 150;" xml:space="preserve">
<style type="text/css">
	.st0{fill:#3C4E5A;}
	.st1{fill:#FFFFFF;}
</style>
<g>
	<path class="st0" d="M28,29.9c3,0.9,5.8,1.8,8.3,3.8c6.4,4.9,9,13.2,6.4,21c-2.4,7.5-9.6,12.6-17.4,12.9c-1.7,0-2.3-0.4-2.2-2.1
		c0.1-11.1,0-22.2,0-33.4c0-0.7-0.1-1.4-0.2-2.1C24.6,29.9,26.3,29.9,28,29.9z"/>
	<path class="st0" d="M143.6,65.2c-0.9,0-1.7,0-2.5,0c-3.5,0-3.5,0-4.8-3.3c-1.7-4.4-1.7-4.4-6.4-4.4c-2.1,0-4.6-0.7-6.1,0.3
		c-1.4,1-1.8,3.6-2.3,5.6c-0.5,1.7-1.4,2.1-2.9,1.9c-1.1-0.1-2.3,0-3.7,0c1.4-3.7,2.8-7.3,4.2-10.8c2.4-6.3,4.9-12.5,7.2-18.8
		c0.5-1.3,1.2-1.6,2.4-1.5c1.3,0.1,2.5-0.3,3.3,1.5c3.5,9.1,7.2,18.1,10.8,27.1c0.2,0.6,0.3,1.2,0.9,1.7
		C143.6,64.7,143.6,64.9,143.6,65.2z"/>
	<path class="st0" d="M6.2,46.9c4.6,0,9.3,0,13.9-0.1c1.7,0,1.2,1,1.3,1.9c0,0.9,0.2,1.7-1.3,1.7c-4.6-0.1-9.3,0-13.9,0
		C6.2,49.3,6.2,48.1,6.2,46.9z"/>
	<path class="st0" d="M90.7,48.6c3.3,1,5.2,3,5.5,6.1c0.3,3.5-0.9,6.3-3.8,8.4c-1.9,1.4-4.1,1.9-6.4,1.9c-3.1,0.1-6.2,0-9.3,0.1
		c-1.2,0-1.4-0.4-1.4-1.4c0-9.4,0-18.8,0-28.1c0-1.1,0.2-1.6,1.4-1.6c3.2,0.1,6.3-0.1,9.5,0.1c5.5,0.3,9,5,7.7,10.2
		C93.5,46.1,92.3,47.3,90.7,48.6z"/>
	<path class="st0" d="M72.6,65c-0.2,0-0.2,0.1-0.3,0.1c-5.5,0.3-5.5,0.3-7.5-4.8c-1.2-3-1.2-3-4.3-3c-2.1,0-4.3,0.1-6.4,0
		c-1.1,0-1.6,0.3-1.9,1.3c-0.5,1.7-1.2,3.4-1.8,5.1c-0.3,1-0.8,1.4-1.9,1.4c-4.5,0-4.5,0.1-2.9-4.1c3.3-8.6,6.7-17.2,9.9-25.8
		c0.5-1.2,1.2-1.4,2.2-1.3c1.1,0.2,2.5-0.7,3.2,1.2c3.8,9.7,7.7,19.4,11.6,29.1C72.5,64.5,72.5,64.7,72.6,65z"/>
	<path class="st0" d="M105,52.1c0-3.8-0.1-7.5,0-11.3c0-1.7-0.5-2.1-2.1-2c-1.8,0.1-3.6,0-5.4,0c-1.1,0-1.6-0.2-1.6-1.5
		c0-3.3-0.1-3.3,3.2-3.3c6.6,0,13.3,0,20,0c1.4,0,1.9,0.3,1.2,1.7c-0.2,0.3-0.3,0.6-0.3,0.9c-0.3,1.8-1.4,2.5-3.3,2.3
		c-1.3-0.2-2.6,0.1-3.9,0c-1.5-0.2-2,0.3-2,1.9c0.1,7.4,0,14.9,0.1,22.3c0,1.6-0.2,2.3-2.1,2.2c-3.8-0.2-3.8,0-3.8-3.8
		C105,58.3,105,55.2,105,52.1z"/>
	<path class="st0" d="M30.3,99.5c1.8,1,2.7,2.4,2.1,4.5c-0.6,2.2-2.4,2.8-4.3,2.9c-6,0.5-6,0.5-6-5.3c0-2.4,0-4.9,0-7.3
		c0-0.9,0.3-1.2,1.2-1.2c1.4,0.1,2.7,0,4.1,0c1.8,0,3.4,0.4,4.2,2.2C32.4,97,31.6,98.3,30.3,99.5z"/>
	<path class="st0" d="M63,96.2c0,3.3,0,6.1,0,9c0,0.6,0.5,1.7-0.8,1.8c-1.4,0.1-0.9-1-0.9-1.7c0-3.5,0-7.1,0-10.6
		c0-0.5-0.4-1.3,0.4-1.5c0.8-0.2,1.4-0.1,2,0.7c1.7,2.6,3.5,5.3,5.2,7.9c0.3,0.5,0.7,1,1.4,1.5c0-2.9,0-5.7,0-8.6
		c0-0.6-0.4-1.5,0.8-1.6c1.4-0.1,0.9,1,0.9,1.6c0,3.5,0,7.1,0,10.6c0,0.5,0.4,1.4-0.5,1.6c-0.8,0.2-1.4-0.1-1.9-0.9c-2-3-4-6-6-9
		C63.6,96.9,63.4,96.7,63,96.2z"/>
	<path class="st0" d="M134,99.2c1-0.3,1.9-0.7,2.9-0.7c2.9-0.1,4.5,1.1,4.7,3.7c0.2,2.7-1.4,5-4,5.3c-3,0.4-4.7-0.7-5.4-3.6
		c-0.5-2.6-0.5-5.1,0.4-7.6c1.1-2.9,4.2-4.3,7.1-3.3c0.7,0.2,1.2,0.5,1,1.4c-0.2,0.8-0.8,0.3-1.2,0.2C136,93.7,134.1,95.3,134,99.2z
		"/>
	<path class="st0" d="M118.3,101c-1.2,0.4-2.2,0.7-3.3,0.7c-2.7,0-4-1.2-4.3-3.7c-0.3-2.6,1.2-4.8,3.5-5.3c3-0.7,5,0.6,5.8,3.6
		c0.6,2.4,0.5,4.7-0.2,7.1c-1,3.3-4.1,4.9-7.4,3.9c-0.7-0.2-1.5-0.5-1.2-1.4c0.3-0.9,0.9-0.3,1.4-0.2C116.1,106.5,118,105,118.3,101
		z"/>
	<path class="st0" d="M7.8,106.8c1.7-4.3,3.3-8.6,5-13c0.3-0.7,0.8-0.7,1.4-0.7c0.8-0.1,1.1,0.3,1.4,1c1.6,3.9,3.1,7.8,4.7,11.6
		c0.2,0.3,0.7,0.9,0,1.1c-0.5,0.2-1.2,0.3-1.6-0.2c-0.2-0.2-0.3-0.6-0.4-0.9c-0.5-1-0.4-2.6-1.6-2.9c-1.6-0.3-3.4-0.3-5,0
		c-1.2,0.2-1.1,1.7-1.5,2.7C9.8,106.8,9.2,107.3,7.8,106.8z"/>
	<path class="st0" d="M55.4,106.8c-1.6,0.6-2.2,0-2.6-1.4c-0.3-0.9-0.3-2.4-1.4-2.5c-1.7-0.2-3.5-0.2-5.2,0c-0.7,0.1-0.7,1.3-1,2
		c-0.2,0.5-0.3,1.1-0.6,1.6c-0.3,0.7-1,0.6-1.6,0.4c-0.6-0.2-0.2-0.8-0.1-1.2c1.5-3.9,3-7.8,4.5-11.7c0.3-0.7,0.7-1,1.4-0.9
		c0.6,0,1,0.1,1.3,0.8C51.9,98.2,53.6,102.5,55.4,106.8z"/>
	<path class="st0" d="M102.9,105.7c1.9,0,3.5,0,5,0c0.7,0,1.6-0.2,1.6,0.8c0,1.1-0.9,0.9-1.6,0.9c-2,0-4,0-6,0
		c-0.5,0-1.2,0.2-1.5-0.6c-0.2-0.6,0-1.1,0.5-1.6c1-1,2.1-2.1,3.1-3.2c1-1,1.8-2,2.4-3.3c0.5-1.2,0.9-2.5-0.2-3.6
		c-1-1.1-2.3-0.8-3.6-0.5c-0.6,0.2-1.3,1.5-1.8,0.3c-0.5-1.1,0.6-1.5,1.5-1.9c2.1-0.8,4.4-0.5,5.6,0.8c1.2,1.3,1.3,3.5,0.2,5.6
		C107,101.8,105,103.4,102.9,105.7z"/>
	<path class="st0" d="M18.1,52c-2.7,2.6-5,4.8-7.1,7.1c-0.8,0.8-1.2,0.6-1.7-0.2c-1.1-1.7-1.9-3.6-2.5-5.6c-0.2-0.7-0.3-1.2,0.7-1.2
		C10.9,52,14.2,52,18.1,52z"/>
	<path class="st0" d="M21.4,41.3c-2.5-2.4-4.8-4.7-7.2-7c-0.6-0.6-0.4-0.9,0.2-1.3c1.8-1.2,3.8-2.1,6-2.6c0.6-0.2,1-0.2,1,0.6
		C21.4,34.4,21.4,37.8,21.4,41.3z"/>
	<path class="st0" d="M94.8,99.7c1-2.1,1.9-4,2.8-5.9c0.2-0.5,0.4-1.1,1.2-1.1c0.9,0,1.4,0.1,0.9,1.2c-0.7,1.2-1.2,2.6-1.9,3.8
		c-1.5,2.5-2.3,5.1-2,8.1c0.1,0.7,0.3,1.7-0.9,1.7c-1.3,0-1.1-1-1-1.6c0.7-4.3-2-7.5-3.5-11c-0.3-0.6-1.4-1.4-0.3-2
		c1.1-0.5,1.7,0.4,2.1,1.4C93,96,93.9,97.8,94.8,99.7z"/>
	<path class="st0" d="M21.4,56.6c0,2.7,0,5.9,0,9c0,1.1-0.4,1.3-1.4,1c-2.3-0.7-4.5-1.6-5.9-2.8C16.6,61.4,19.1,58.9,21.4,56.6z"/>
	<path class="st0" d="M17.3,45.1c-3.2,0-6.4,0-9.6,0c-0.9,0-1.2-0.2-0.9-1.1c0.6-2.1,1.5-4.1,2.7-5.9c0.4-0.6,0.7-0.8,1.3-0.2
		c2.3,2.2,4.7,4.3,7.1,6.5C17.6,44.6,17.4,44.8,17.3,45.1z"/>
	<path class="st0" d="M125.7,95.1c-1,0-1.5,0.7-2.2,1c-0.3,0.2-0.8,0.7-1.2,0.2c-0.3-0.4-0.2-0.9,0.2-1.2c1.2-0.8,2.3-1.6,3.6-2.2
		c1-0.4,1.5,0.1,1.5,1.2c-0.1,3.3,0,6.7,0,10.1c0,1.3,0.2,1.9,1.7,1.7c0.5-0.1,1.3-0.2,1.4,0.7c0,1-0.7,0.9-1.4,0.9
		c-1.9,0-3.9,0-5.8,0c-0.6,0-1.2-0.1-1.2-0.9c0-0.8,0.7-0.7,1.2-0.7c2.1,0.4,2.4-0.7,2.3-2.5C125.7,100.7,125.7,97.9,125.7,95.1z"/>
	<path class="st0" d="M74.4,102c0-3.3,1.8-5.4,4.7-5.4c2.7,0,4.6,2.1,4.7,5.1c0,3.4-1.7,5.4-4.7,5.4C76.2,107.2,74.5,105.3,74.4,102
		z"/>
	<path class="st0" d="M37.8,100.7c0-1.5-0.1-3,0-4.5c0.1-1.1-0.2-1.7-1.5-1.6c-0.7,0.1-1.4,0-2.1,0c-0.5,0-0.9-0.1-0.9-0.7
		c0-0.6,0.2-0.8,0.8-0.8c3.1,0,6.2,0,9.3,0c0.5,0,0.9,0.2,0.9,0.8c0,0.6-0.2,0.8-0.8,0.8c-0.1,0-0.1,0-0.2,0
		c-1.2,0.2-2.8-0.6-3.4,0.4c-0.5,0.9-0.2,2.4-0.2,3.6c0,2.3,0,4.7,0,7c0,0.6,0.2,1.3-0.9,1.3c-1,0-0.9-0.7-0.9-1.3
		C37.8,104,37.8,102.3,37.8,100.7z"/>
	<path class="st0" d="M53.4,78.5c-0.4,1.3-0.7,2.3-1.1,3.3c-0.2,0.5-0.3,1-1,1c-0.8,0-0.9-0.6-1.1-1.1c-0.7-1.8-1.3-3.6-1.9-5.5
		c1.3-0.2,1.3-0.2,3.2,3.8c0.3-1.1,0.7-2.1,1-3.1c0.2-0.5,0.3-1,1-0.9c0.7,0,0.8,0.5,1,1c0.4,0.9,0.5,2,1.1,2.8c1.3-1,0-3.9,3.1-3.7
		c-0.7,2.1-1.4,4-2.1,5.9c-0.2,0.4-0.4,0.8-0.9,0.8c-0.7,0-0.9-0.5-1-0.9C54.2,80.9,53.9,79.9,53.4,78.5z"/>
	<path class="st0" d="M70.2,76.4c3.5-0.9,4.3-0.2,4.3,3c0,0.8,0,1.6,0,2.3c0,0.8-0.3,1-1,1c-0.7,0-0.9-0.4-0.8-1c0-1,0-1.9,0-2.9
		c0-0.7-0.2-1.3-1.1-1.2c-0.8,0-1.3,0.4-1.3,1.3c0,0.9,0,1.8,0,2.7c0,0.7-0.1,1.1-0.9,1.1c-0.8,0-1-0.3-1-1c0-2.6,0-5.3,0-7.9
		c0-0.6,0.1-1,0.8-1c0.7,0,1.1,0.2,1.1,1C70.2,74.5,70.2,75.4,70.2,76.4z"/>
	<path class="st0" d="M114.9,77.6c0,0.8,0.1,1.6,0,2.3c-0.2,1,0.8,2.4-1,2.8c-1.9,0.5-3.8,0-4.7-1.4c-1.4-2.1-0.1-5.1,2.4-5.3
		c1.4-0.1,1.7-0.7,1.6-1.9c-0.1-0.7-0.1-1.5,1-1.4c1.1,0,0.7,0.9,0.8,1.4C114.9,75.3,114.9,76.4,114.9,77.6z"/>
	<path class="st0" d="M12.6,62.4c-0.6-0.1-0.9-0.6-1.2-0.9c-0.5-0.5,0-0.8,0.2-1.1c2.6-2.6,5.3-5.3,7.9-7.9c0.5-0.5,1.2-0.7,1.7-0.2
		c0.4,0.5,0.3,1.2-0.2,1.7c-2.7,2.7-5.3,5.4-8,8.1C12.9,62.2,12.7,62.3,12.6,62.4z"/>
	<path class="st0" d="M123.2,79.4c0-0.5,0-1,0-1.6c0-1.2-0.1-2.4,1.7-1.6c0.2,0.1,0.5,0,0.7,0c3.1-0.5,3.6-0.1,3.7,3.1
		c0,0.8,0,1.6,0,2.3c0,0.7-0.1,1.1-0.9,1.1c-0.9,0-0.9-0.5-0.9-1.1c0-0.9,0-1.8,0-2.7c0-0.7,0-1.4-1-1.3c-0.9,0-1.5,0.3-1.5,1.4
		c0,1,0,1.9,0,2.9c0,0.5-0.1,0.9-0.7,0.9c-0.6,0-1-0.1-1-0.8C123.2,81.1,123.2,80.2,123.2,79.4L123.2,79.4z"/>
	<path class="st0" d="M92.9,79.3c0-0.6,0-1.2,0-1.7c0-1.1,0.1-2.1,1.6-1.3c0.7,0.3,1.2-0.2,1.8-0.3c1.7-0.1,2.6,0.5,2.6,2.2
		c0,1.2,0,2.4,0,3.7c0,0.5-0.2,0.9-0.8,0.9c-0.6,0-1-0.1-1-0.8c0-1,0-2.1,0-3.1c0-0.7-0.2-1.4-1.1-1.2c-0.7,0.1-1.4,0.3-1.4,1.3
		s0,1.9,0,2.9c0,0.5,0,1-0.8,1c-0.8,0-1-0.3-1-1C92.9,80.9,92.9,80.1,92.9,79.3z"/>
	<path class="st0" d="M27.2,80.1c0,0.6,0,1.2,0,1.7c0,0.3,0,0.9-0.3,0.8c-1.3-0.3-2.6,0.5-3.9,0.2c-1-0.3-1.5-1-1.5-2
		c0-1.1,0.6-1.7,1.6-2.1c0.7-0.3,2.1,0.3,2-0.8c-0.1-1-1.4-0.6-2.1-0.3c-0.5,0.1-0.7-0.1-0.9-0.5c-0.2-0.6,0.3-0.7,0.6-0.8
		C25.7,75.6,27.6,75.7,27.2,80.1z"/>
	<path class="st0" d="M140.4,81.5c0.5,0.2,1.8-1.1,1.8,0.4c0,1.1-1.5,1-2.4,1c-2.1,0-3.4-1.8-3.2-4c0.2-2.1,1.8-3.3,3.7-2.9
		c1.4,0.3,2.4,1.8,2.3,3.1c-0.1,0.6-0.3,0.8-0.9,0.8c-0.6,0-1.2-0.1-1.7,0c-0.5,0.1-1.4-0.4-1.4,0.4
		C138.7,81.1,139.5,81.4,140.4,81.5z"/>
	<path class="st0" d="M91.6,79.5c0,2.1-1.4,3.5-3.3,3.5c-1.9,0-3.3-1.5-3.3-3.5c0-2.2,1.4-3.5,3.5-3.5C90.6,76,91.7,77.2,91.6,79.5z
		"/>
	<path class="st0" d="M116,79.3c0-2,1-3.2,2.8-3.3c1.8-0.1,2.8,0.8,3.2,2.6c0.2,1-0.1,1.4-1.2,1.3c-0.4,0-0.8-0.1-1.2,0
		c-0.5,0.1-1.6-0.4-1.6,0.4c0,0.9,0.9,1.1,1.7,1.1c0.3,0,0.5,0,0.7-0.2c0.5-0.2,0.9-0.2,1,0.4c0.2,0.7-0.3,0.7-0.7,0.9
		C118.4,83.7,116,82.1,116,79.3z"/>
	<path class="st0" d="M36.4,79.9c0.8,1.4,1.7,1.8,2.9,1.4c0.4-0.2,0.7-0.2,1,0.3c0.2,0.4,0.1,0.7-0.3,0.9c-1.4,0.6-2.8,0.7-4-0.3
		c-1.2-1-1.6-3-0.8-4.6c0.7-1.4,1.9-1.8,3.4-1.6c1.4,0.2,2.4,1.9,2.3,3.2c-0.1,0.7-0.4,0.7-0.9,0.7C38.8,79.9,37.8,79.9,36.4,79.9z"
		/>
	<path class="st0" d="M12.5,78.8c0-0.7,0-1.3,0-1.9c0.1-1.2,0-2.2-1.7-1.9c-0.5,0.1-1,0-1-0.8c0-0.7,0.5-0.8,1-0.8
		c1.7,0,3.5,0,5.2,0c0.4,0,1-0.2,1,0.5c0,0.7-0.4,1.1-1.1,1c-1.7-0.3-1.7,0.7-1.7,1.9c0.1,1.6,0,3.2,0,4.8c0,0.6-0.1,1-0.9,1
		c-0.8,0-1-0.3-1-1C12.5,80.7,12.5,79.7,12.5,78.8z"/>
	<path class="st0" d="M21.4,44.1c0,0.5,0,0.9-0.4,0.9c-0.7,0.2-1.2,0-1.7-0.5c-1.7-1.7-3.4-3.4-5-5c-0.8-0.8-1.6-1.7-2.4-2.4
		c-0.5-0.5-0.8-0.9-0.2-1.6c0.6-0.6,1-0.5,1.6,0c2.5,2.6,5.1,5.1,7.6,7.6C21.2,43.4,21.5,43.7,21.4,44.1z"/>
	<path class="st0" d="M103.3,72.8c0.3,0.1,1-0.2,1.2,0.5c0.1,0.5-0.1,1.1-1,1c-0.5-0.1-0.7,0.4-0.7,0.9c0,0.7,0.2,0.9,0.9,0.9
		c1.2,0,0.6,1,0.3,1.1c-1.6,0.5-1.1,1.7-1.2,2.8c0,0.6,0,1.3,0,1.9c0,0.7-0.4,0.8-1,0.9c-0.7,0-0.9-0.3-0.9-0.9c0-1,0-2.1,0-3.1
		c0-0.5,0.2-1-0.5-1.3c-0.7-0.4-0.9-1,0.1-1.4c0.7-0.3,0.3-0.9,0.4-1.3C101.2,73.5,102,72.8,103.3,72.8z"/>
	<path class="st0" d="M65.4,83c-1-0.2-1.6-0.6-1.8-1.7c-0.2-1.4,0.8-3.2-1.1-4.3c-0.2-0.1-0.2-0.8,0.2-0.8c1.3-0.1,0.7-2.3,2.3-2
		c0.5,0.1,0.5,0.5,0.5,0.9c0,0.7,0.2,1,1,1c0.3,0,0.9-0.2,0.8,0.5c0,0.4-0.2,0.7-0.6,0.9c-1,0.5-1.6,2.8-1,3.6
		c0.1,0.2,0.3,0.3,0.4,0.3c0.7-0.2,1.5-0.3,1.4,0.6C67.2,82.9,66.1,82.7,65.4,83z"/>
	<path class="st0" d="M27.7,76.1c3.2-0.4,2,2.8,3.5,3.7c1.4-0.9,0.3-3.9,3.3-3.7c-0.9,2.1-1.7,4.1-2.5,6c-0.2,0.5-0.4,0.8-1,0.8
		c-0.6,0-0.8-0.4-1-0.8C29.3,80.1,28.5,78.2,27.7,76.1z"/>
	<path class="st0" d="M82.7,76c0.1,0,0.6,0,1.1,0.2c0.4,0.2,0.5,0.6,0.4,1c-0.1,0.7-0.5,0.4-0.9,0.3c-1-0.4-1.8-0.1-2.4,0.7
		c-0.5,0.7-0.5,1.6,0,2.4c0.5,0.9,1.4,1.1,2.3,0.7c0.5-0.2,0.8-0.2,1,0.3c0.2,0.7-0.3,0.8-0.7,0.9C82.3,83,81,83,79.8,82
		c-1.2-1.1-1.4-2.6-0.8-4.1C79.7,76.6,80.8,75.9,82.7,76z"/>
	<path class="st0" d="M134.4,76c0.1,0,0.5,0,0.9,0.2c0.4,0.2,0.5,0.5,0.5,0.9c-0.1,0.6-0.5,0.5-0.9,0.3c-1-0.4-1.8-0.1-2.4,0.7
		c-0.5,0.7-0.5,1.7,0,2.4c0.5,0.8,1.4,1.1,2.4,0.7c0.5-0.2,0.9-0.2,1,0.5c0.2,0.7-0.3,0.7-0.7,0.9c-1.4,0.5-2.7,0.5-3.8-0.6
		c-1.1-1.1-1.3-2.5-0.7-3.9C131.2,76.5,132.4,75.9,134.4,76z"/>
	<path class="st0" d="M41.9,77.5c0-1.2,0-2.4,0-3.7c0-0.7,0.1-1.2,0.9-1.1c0.8,0,0.7,0.5,0.7,1.1c0,1.6,0,3.2,0,4.8
		c0,1-0.5,2.2,0.9,2.9c0.3,0.1,0.3,0.7,0,1c-0.3,0.3-0.8,0.5-1.2,0.4c-0.7-0.1-1.3-0.4-1.4-1.2C41.9,80.3,41.9,78.9,41.9,77.5
		L41.9,77.5z"/>
	<path class="st0" d="M17,79.3c0-0.1,0-0.3,0-0.4c0-2.7,0.9-3.4,3.6-2.9c0.3,0,0.7,0.1,0.6,0.5c-0.1,0.4-0.2,1.1-0.7,1
		c-2.1-0.2-1.7,1.2-1.9,2.5c-0.1,0.9,0.9,2.5-0.7,2.5c-1.8,0-0.6-1.7-0.9-2.5C16.9,79.8,17,79.5,17,79.3z"/>
	<path class="st0" d="M61.3,79.5c0,0.8,0,1.6,0,2.3c0,0.6-0.2,1-0.9,0.9c-0.5,0-0.9-0.2-0.9-0.7c0-1.7,0-3.5,0-5.2
		c0-0.6,0.4-0.7,0.9-0.7c0.7,0,0.9,0.3,0.9,0.9C61.3,77.8,61.3,78.6,61.3,79.5z"/>
	<path class="st0" d="M107.2,79.3c0,0.9,0,1.8,0,2.7c0,0.6-0.4,0.7-0.9,0.7c-0.5,0-0.7-0.2-0.7-0.7c0-1.7,0-3.5,0-5.2
		c0-0.6,0.3-0.8,0.8-0.8c0.5,0,0.9,0.2,0.9,0.8C107.2,77.6,107.2,78.5,107.2,79.3L107.2,79.3z"/>
	<path class="st0" d="M106.4,73c0.7,0,1.1,0.4,1.1,1c0,0.7-0.4,1.1-1,1.1c-0.7,0-1.1-0.4-1.1-1C105.2,73.5,105.7,73.1,106.4,73z"/>
	<path class="st0" d="M61.6,74.1c-0.2,0.7-0.5,1.1-1.2,1c-0.6-0.1-1-0.5-1-1.2c0.1-0.6,0.5-0.9,1-0.9C61.2,73,61.5,73.5,61.6,74.1z"
		/>
	<path class="st0" d="M88.2,105.9c0.1,0.7-0.1,1.2-0.9,1.2c-0.7,0-1-0.3-1-1c0-0.6,0.2-1,0.9-1C87.7,105.1,88.3,105.1,88.2,105.9z"
		/>
	<path class="st1" d="M29.5,50.3c0.6,0.5,2.1-0.9,2.1,1c0,1.7-0.5,2.8-2.6,2.4c-1.2-0.2-2.1,0.2-2.2-1.7
		C26.8,49.9,28.2,50.4,29.5,50.3z"/>
	<path class="st1" d="M29.4,46.8c-1.3-0.1-2.6,0.5-2.6-1.7c0-2,1.1-1.6,2.3-1.8c2-0.2,2.5,0.7,2.4,2.4C31.6,47.7,30,46.3,29.4,46.8z
		"/>
	<path class="st1" d="M37.6,46.8c-2.3,0-2.6-0.3-2.4-2.6c0.1-1.4,1.2-0.6,1.9-0.7c2-0.5,2.4,0.9,2.5,2.4
		C39.7,47.6,38.1,46.3,37.6,46.8z"/>
	<path class="st1" d="M37.9,50.6c0.3,0.3,1.8-1.1,1.7,0.8c-0.1,1.5-0.5,2.9-2.5,2.4c-0.7-0.2-2,0.7-1.9-1
		C35.3,51.3,35.3,49.7,37.9,50.6z"/>
	<path class="st1" d="M26.9,34c1.4,1.5,2,2.9,2.6,4.2c0.2,0.4,0.7,1,0.2,1.4c-0.6,0.4-1.4,0.2-2.1,0.2s-0.8-0.5-0.8-1
		C26.9,37.3,26.9,35.9,26.9,34z"/>
	<path class="st1" d="M26.9,62.7c0-0.9,0-1.7,0-2.6c0-2.9,0-2.9,3.1-2.5c-0.5,2-1.6,3.6-2.6,5.2C27.2,62.7,27.1,62.7,26.9,62.7z"/>
	<path class="st1" d="M32.1,35.7c1.9,0.9,3.5,2,4.7,3.8C33,40.9,33.5,37.1,32.1,35.7z"/>
	<path class="st1" d="M37,57.5c-1.4,1.7-2.6,3.1-4.5,3.9C33.6,57.3,33.7,57.3,37,57.5z"/>
	<path class="st1" d="M125.3,52.7c1.3-3.6,2.5-6.9,3.8-10.4c1.1,3.2,2.2,6.3,3.3,9.4c0.3,0.9-0.1,1-0.8,1
		C129.6,52.7,127.6,52.7,125.3,52.7z"/>
	<path class="st1" d="M81.1,56c0-4.6,0.6-5,5.7-4.1c2.7,0.5,4.1,2.9,3.1,5.5c-0.3,0.9-0.9,1.6-1.7,2c-0.9,0.5-1.8,0.7-2.8,0.7
		C81.1,60.4,81.1,60.4,81.1,56z"/>
	<path class="st1" d="M81.1,42.8c0-0.2,0-0.4,0-0.6c0.4-1.1-1-2.8,0.8-3.3c2.4-0.7,5.4,0.5,6.1,2.2c0.8,1.7,0.3,3.8-1.2,4.9
		c-1.6,1.2-3.4,1-5.2,0.9c-0.7,0-0.5-0.6-0.5-1C81.1,44.9,81.1,43.8,81.1,42.8z"/>
	<path class="st1" d="M58.2,42.3c1.3,3.6,2.4,6.9,3.6,10.3c-2.2,0-4.1-0.1-6.1,0c-1.2,0-1.2-0.4-0.9-1.4C56,48.5,57,45.7,58.2,42.3z
		"/>
	<path class="st1" d="M26.2,105.3c-0.5-0.1-1.8,0.5-2-0.3c-0.4-1.2-0.2-2.6-0.2-4c0-0.4,0.4-0.5,0.7-0.5c1.2,0,2.4,0,3.6,0.1
		c1.4,0.2,2.3,0.9,2.2,2.4c0,1.5-1,2.1-2.4,2.3C27.7,105.4,27.1,105.3,26.2,105.3z"/>
	<path class="st1" d="M26.2,98.9c-0.6-0.2-1.8,0.5-2.1-0.4c-0.3-1-0.1-2.3-0.1-3.4c0-0.5,0.5-0.4,0.9-0.4c1,0,1.9,0,2.9,0.1
		c1.3,0.1,2.2,0.7,2.2,2.1c0,1.5-1,1.9-2.3,2C27.3,98.9,26.8,98.9,26.2,98.9z"/>
	<path class="st1" d="M136.8,100c2.1,0,2.9,0.9,2.9,2.8c0,1.9-1.2,3.1-3,3.1c-1.7,0-2.8-1.5-2.8-4C133.9,99.8,135.8,100.4,136.8,100
		z"/>
	<path class="st1" d="M115.6,100.2c-2.1,0-3-1-3-2.9c0-1.8,1.2-3,2.8-3c1.8,0,3,1.6,2.9,4C118.3,100.4,116.6,99.8,115.6,100.2z"/>
	<path class="st1" d="M14.1,94.8c0.9,2.3,1.6,4.3,2.3,6.3c-1.6,0-3,0-4.6,0C12.6,99.1,13.3,97.1,14.1,94.8z"/>
	<path class="st1" d="M48.8,94.8c0.8,2.2,1.6,4.2,2.4,6.3c-1.6,0-3,0-4.6,0C47.3,99.1,48,97.1,48.8,94.8z"/>
	<path class="st1" d="M82.1,102c0,2.3-1.2,3.8-3,3.8c-1.7,0-2.9-1.6-2.9-3.9c0-2.4,1.1-3.8,2.9-3.8C80.9,98.1,82.1,99.6,82.1,102z"
		/>
	<path class="st1" d="M113.2,79.4c-0.3,0.7,0.5,2.1-1.1,2c-1.2-0.1-1.8-1-1.8-2.1c0-1.2,0.8-2,1.9-1.9
		C113.8,77.4,112.9,78.7,113.2,79.4z"/>
	<path class="st1" d="M24.3,81.5c-0.6,0-1-0.2-1-0.9c0-0.8,0.7-0.8,1.3-0.9c0.6-0.1,0.7,0.3,0.7,0.8C25.3,81.2,24.9,81.4,24.3,81.5z
		"/>
	<path class="st1" d="M139.7,78.6c-0.4,0-1,0.2-1.1-0.4c-0.1-0.6,0.5-0.9,1-0.9c0.6,0,1,0.3,1.1,0.8
		C140.7,78.8,140.1,78.5,139.7,78.6z"/>
	<path class="st1" d="M90,79.5c-0.2,0.9-0.3,2-1.7,1.9c-1.2-0.1-1.4-1.1-1.4-2.1c0-1.1,0.4-2,1.6-2C89.6,77.4,89.9,78.5,90,79.5z"/>
	<path class="st1" d="M118.9,78.6c-0.4,0-0.9,0-0.9-0.5c0-0.6,0.5-0.9,1.1-0.9c0.5,0,1,0.3,1,0.8C120,78.9,119.3,78.5,118.9,78.6z"
		/>
	<path class="st1" d="M37.5,78.7c-0.4-0.1-1,0.1-0.9-0.6c0.1-0.5,0.6-0.8,1.1-0.8c0.5,0,1,0.4,1,0.9C38.6,79,37.9,78.5,37.5,78.7z"
		/>
</g>
</svg>
