<?xml version="1.0" encoding="utf-8"?>
<!-- Generator: Adobe Illustrator 24.2.1, SVG Export Plug-In . SVG Version: 6.00 Build 0)  -->
<svg version="1.1" id="Layer_1" xmlns="http://www.w3.org/2000/svg" xmlns:xlink="http://www.w3.org/1999/xlink" x="0px" y="0px"
	 viewBox="0 0 150 150" style="enable-background:new 0 0 150 150;" xml:space="preserve">
<style type="text/css">
	.st0{fill:#FFFFFF;}
</style>
<g>
	<path class="st0" d="M145.3,72.9c0,1.4,0,2.9,0,4.3c0,0.1-0.1,0.3-0.1,0.4c0,1.7-0.1,3.3-0.3,5c-0.4,3.5-1,7-1.9,10.4
		c-1.1,4.3-2.6,8.4-4.6,12.4c-1.7,3.5-3.6,6.8-5.8,9.9c-3.2,4.5-6.8,8.6-11,12.2c-2.7,2.4-5.6,4.5-8.6,6.5c-3.7,2.4-7.6,4.3-11.7,6
		c-4.1,1.6-8.3,2.9-12.7,3.7c-2.7,0.5-5.4,0.9-8.1,1c-0.1,0-0.2,0-0.3,0.1c-3.1,0-6.1,0-9.2,0c-0.1,0-0.1-0.1-0.2-0.1
		c-2.2-0.1-4.4-0.4-6.6-0.7c-3.5-0.6-6.9-1.4-10.3-2.5c-3.8-1.2-7.4-2.8-10.9-4.7c-3.3-1.8-6.4-3.7-9.3-6c-3.5-2.6-6.7-5.6-9.6-8.8
		c-2.4-2.6-4.6-5.4-6.5-8.4c-1.8-2.7-3.4-5.6-4.8-8.5c-1.6-3.3-2.9-6.7-4-10.2c-0.9-2.9-1.6-6-2.1-9c-0.3-2-0.4-4-0.7-6
		c0-0.4-0.1-0.9-0.2-1.4c0-2.4,0-4.7,0-7.1C5.9,71,6,70.6,6,70.2c0.1-1.3,0.2-2.6,0.4-3.9c0.3-2.6,0.8-5.1,1.4-7.6
		c1.3-5.3,3.2-10.4,5.6-15.3c1.4-2.8,3-5.4,4.7-7.9c2.3-3.3,4.8-6.4,7.6-9.3c1.1-1.1,2.3-2.3,3.6-3.4c2.5-2.3,5.2-4.3,8-6.2
		c3.2-2.1,6.5-3.9,10-5.5c3.5-1.6,7.2-2.9,10.8-3.8c4.3-1.1,8.6-1.8,13-2.1c0.3,0,0.6,0,0.9-0.1c2.4,0,4.7,0,7.1,0
		c0.1,0,0.2,0.1,0.3,0.1c0.6,0,1.2,0.1,1.8,0.1c2.7,0.2,5.4,0.6,8,1.1c5.8,1.1,11.4,3,16.7,5.6c3.1,1.5,6.1,3.2,8.9,5.2
		c5,3.4,9.6,7.5,13.6,12.1c4.1,4.7,7.5,10,10.2,15.6c1.9,4.1,3.5,8.3,4.6,12.8c1.2,4.8,2,9.7,2,14.6
		C145.3,72.7,145.3,72.8,145.3,72.9z M75.4,140.4c17.7-0.3,33-6.4,45.6-18.6c12.6-12.2,19-27.3,19.8-44.9
		c0.3-18.3-5.8-34.1-18.5-47.3C110,17,94.8,10.6,77.2,9.9C59,9.6,43.2,15.9,30,28.5c-12.4,12.4-19.1,27.4-19.6,45
		c-0.4,18.3,5.9,34.1,18.6,47.2C41.7,133.7,57.4,140,75.4,140.4z"/>
	<path class="st0" d="M102.2,88.1c-1.3,7.1-2.5,14-3.8,21.1c-18.9-3.3-37.7-6.7-56.7-10c4.2-23.6,8.3-47.1,12.5-70.7
		c3.7,0.7,7.4,1.3,11.2,2c-0.1,0.3-0.2,0.5-0.4,0.7c-1.4,2.5-2.5,5.1-3.4,7.9c-0.9,2.8-1.5,5.6-1.8,8.4c-0.1,1.5-0.3,3.1-0.2,4.6
		c0.1,3.3,0.7,6.6,1.8,9.8c1.3,3.8,3.2,7.2,5.7,10.4c1.4,1.9,3,3.6,4.7,5.2c2.2,2.1,4.7,4,7.4,5.4c4,2.2,8.2,3.7,12.6,4.4
		c2.1,0.4,4.2,0.6,6.3,0.7c1.1,0,2.2-0.1,3.3,0C101.7,88.1,101.9,88.1,102.2,88.1z M81.8,97.9c1,0.1,1.9-0.1,2.8-0.4
		c2.2-0.8,2.6-3.4,1.1-4.9c-0.7-0.7-1.6-1.2-2.5-1.5c-1.5-0.5-3-0.8-4.6-0.9c-1.2,0-2.4,0.1-3.6,0.7c-1.5,0.8-2,2.7-1.1,4.1
		c0.5,0.7,1.2,1.3,2,1.7C77.8,97.5,79.8,97.9,81.8,97.9z M53.6,85.8c-2,2-4,4-6.1,6c1,0.2,1.9,0.4,2.8,0.5c0.2,0,0.4,0,0.5-0.2
		c0.3-0.3,0.5-0.5,0.7-0.8c0.1-0.1,0.3-0.2,0.5-0.2c1.4,0.3,2.9,0.5,4.3,0.8c0.3,0,0.4,0.2,0.5,0.4c0.1,0.4,0.3,0.9,0.5,1.1
		c0.3,0.2,0.8,0.2,1.2,0.3c0.6,0.1,1.2,0.2,1.8,0.3c0-0.2-0.1-0.2-0.1-0.3c-1.1-2.3-2.2-4.7-3.2-7c-0.1-0.3-0.4-0.4-0.7-0.5
		C55.5,86.1,54.5,86,53.6,85.8z M65,94.9c1,0.2,1.9,0.4,2.9,0.5c0.4-1.9,0.7-3.7,1-5.6c1.4,0.2,2.7,0.5,4,0.7
		c0.1-0.4,0.1-0.8,0.2-1.3c-3.7-0.7-7.3-1.3-11-1.9c-0.1,0.4-0.1,0.8-0.2,1.2c1.4,0.4,2.7,0.4,4,0.8C65.6,91.2,65.3,93,65,94.9z
		 M97.9,99.4c-2.2-0.4-4.4-0.8-6.7-1.2c0.4-1.9,0.7-3.7,1-5.6c-1-0.2-1.9-0.4-2.9-0.5c-0.4,2.3-0.8,4.6-1.2,6.9
		c3.2,0.6,6.4,1.1,9.6,1.7C97.7,100.3,97.8,99.9,97.9,99.4z"/>
	<path class="st0" d="M102.8,84.7c-5.4-0.4-10.3-2.2-14.7-5.2c-3.6-2.5-6.5-5.7-8.6-9.5c-1.5-2.6-2.6-5.4-3.2-8.4
		c-1-4.7-0.5-9.2,1.5-13.5c1.1-2.3,2.5-4.4,4.3-6.4c2.3-2.5,5-4.7,7.9-6.5c0.5-0.3,0.9-0.4,1.5-0.3c4.8,0.9,9.7,1.7,14.5,2.6
		c1.6,0.3,3.2,0.6,4.8,0.8c0.1,0,0.1,0,0.3,0.1C108.3,53.9,105.5,69.3,102.8,84.7z"/>
	<path class="st0" d="M48.2,116.3c0,2-0.8,3.6-2,5.1c-1,1.1-2.2,1.9-3.6,2.4c-1.6,0.5-3.1,0.4-4.7-0.1c-2.2-0.8-4-2.2-5.2-4.2
		c-1.4-2.4-1.4-4.8,0-7.2c0.9-1.5,2.1-2.7,3.6-3.5c2-0.9,4-0.9,6-0.1c2.3,1,4.1,2.5,5.3,4.8C48,114.2,48.2,115.2,48.2,116.3z
		 M45.5,114.3c0-0.3,0-0.7-0.1-1c-0.4-1.4-1.3-2.2-2.5-2.8c-1.2-0.5-2.4-0.4-3.5,0.2c-2,1.1-3.6,2.6-4.6,4.7
		c-0.4,0.7-0.6,1.5-0.6,2.3c0,1.7,1,2.9,2.5,3.7c1.2,0.6,2.5,0.4,3.7-0.1c1.7-0.7,2.9-1.9,4-3.4C45,116.7,45.5,115.6,45.5,114.3z"/>
	<path class="st0" d="M108.4,109.3c0.5-0.6,0.9-1.1,1.3-1.7c1.1-1.4,2.1-2.7,3.2-4c0.6-0.7,1.3-1.4,2.2-1.9c1.5-0.8,3.1-1,4.7-0.5
		c2.3,0.7,4,2.2,5,4.3c0.9,1.8,0.9,3.7,0.3,5.6c-0.3,0.8-0.7,1.6-1.3,2.3c-1.2,1.5-2.4,3.1-3.6,4.6c-0.1,0.1-0.2,0.2-0.3,0.3
		C116,115.4,112.3,112.4,108.4,109.3z M120.9,115c0.6-0.8,1.2-1.4,1.7-2.3c1-1.7,0.9-3.3-0.2-4.9c-1.1-1.5-2.5-2.7-4.2-3.5
		c-1.4-0.6-2.8-0.6-4,0.3c-1.1,0.7-1.8,1.9-2.6,2.9C114.6,110.1,117.7,112.5,120.9,115z"/>
	<path class="st0" d="M32.5,94.6c0.5,0.9,1,1.6,1.4,2.4c0.7,1.2,1.4,2.4,2,3.6c0.7,1.4,0.4,2.9-0.6,3.8c-1.4,1.4-3.8,1.5-5.4,0.1
		c-0.1-0.1-0.3-0.3-0.4-0.4c-1.4,2.5-2.6,5.1-4,7.6c-0.4-0.6-0.6-1.2-0.9-1.8c-0.4-0.6-0.7-1.1-1.1-1.6c1.3-2.3,2.6-4.5,3.9-6.8
		c0,0-0.1-0.1-0.1-0.1c-1.9,1.1-3.8,2.2-5.7,3.4c-0.6-0.9-1.1-1.8-1.7-2.9C24,99.5,28.2,97.1,32.5,94.6z M28.2,100.9
		c0.2,0.4,0.4,0.7,0.6,0.9c0.7,0.9,1.6,1.2,2.7,0.8c0.8-0.3,1.5-0.7,2.1-1.4c0.4-0.4,0.5-0.9,0.4-1.4c-0.2-0.6-0.5-1.2-0.9-1.8
		C31.5,99,29.9,99.9,28.2,100.9z"/>
	<path class="st0" d="M21.9,88.5c-2.1,0.6-4.1,1.1-6.1,1.7c-0.3-1.1-0.6-2.1-0.9-3.2c4.7-1.3,9.4-2.5,14.1-3.9
		c0.1,0.2,0.1,0.3,0.2,0.4c0.4,1.6,0.9,3.2,1.3,4.9c0.2,0.9,0.4,1.8,0.2,2.6c-0.2,0.9-0.6,1.7-1.4,2.2c-1.1,0.7-2.4,0.8-3.6,0.5
		c-1.1-0.2-1.9-1-2.4-1.9c-0.4-0.9-0.8-1.8-1.1-2.7C22,89,22,88.8,21.9,88.5z M28.8,86.6c-1.9,0.5-3.7,1-5.6,1.5
		c0.2,0.7,0.4,1.2,0.7,1.7c0.3,0.4,0.7,0.6,1.1,0.7c1.2,0.4,3-0.2,3.8-1.2c0.3-0.4,0.4-0.7,0.4-1.2C29.1,87.6,28.9,87.2,28.8,86.6z"
		/>
	<path class="st0" d="M99.6,115.6c2.2-1.6,4.5-3.2,6.7-4.7c0.4,0.5,0.7,1,1.1,1.5c-1.4,0.8-2.8,1.6-4.1,2.6c0.9,1.2,1.7,2.4,2.6,3.7
		c1.4-0.9,2.6-1.8,3.8-2.9c0.4,0.5,0.7,1,1.1,1.5c-1.3,0.9-2.6,1.7-4,2.6c1.1,1.5,2.1,2.9,3.1,4.4c1.3-1,2.5-2,3.8-3
		c0.4,0.5,0.7,1,1.1,1.5c-2.2,1.5-4.4,3.1-6.7,4.7C105.2,123.6,102.4,119.6,99.6,115.6z"/>
	<path class="st0" d="M66.3,127.4c1.6,0.3,3.2,0.6,4.7,0.6c-0.1,0.6-0.2,1.2-0.3,1.9c-1.5-0.4-3.1-0.7-4.7-0.9
		c-0.3,1.8-0.6,3.5-0.9,5.2c1.6,0.4,3.2,0.4,4.9,0.6c-0.1,0.3-0.2,0.6-0.2,0.9c0,0.3,0,0.6,0,1c-2.7-0.5-5.4-0.9-8.1-1.4
		c0.8-4.8,1.6-9.6,2.5-14.4c2.7,0.4,5.4,0.9,8,1.4c-0.1,0.6-0.2,1.2-0.4,1.8c-1.5-0.4-3.1-0.9-4.7-1.1
		C66.8,124.4,66.5,125.9,66.3,127.4z"/>
	<path class="st0" d="M86.5,121.9c-0.1,0.7-0.1,1.3-0.2,1.9c0,0.1-0.1,0.3-0.2,0.4c-0.2,0.1-0.3,0-0.4-0.2c-0.7-0.7-1.4-1.1-2.4-1.4
		c-1.8-0.4-3.7,0.6-4.6,2.2c-0.9,1.6-1,3.3-0.7,5.1c0.1,0.9,0.4,1.8,0.7,2.5c1.1,2.2,3.1,3.2,5.5,2.6c1-0.2,1.8-0.7,2.5-1.4
		c0.1-0.1,0.2-0.2,0.3-0.3c0.1,0,0.3-0.1,0.4,0c0,0,0.1,0.2,0.1,0.3c0,0.4-0.1,0.8-0.2,1.2c0,0.3-0.2,0.5-0.4,0.7
		c-1,0.5-2,0.8-3.1,1c-1.8,0.3-3.6,0.2-5.4-0.6c-2.5-1.1-3.9-3.2-4.1-5.9c-0.1-1.1,0-2.1,0.2-3.1c0.5-2,1.7-3.6,3.5-4.5
		c2.5-1.3,5.2-1.6,7.9-0.8C86.1,121.7,86.3,121.8,86.5,121.9z"/>
	<path class="st0" d="M63.5,23.4c0.8,0,1.5,0.1,2.3,0.1c0,0.1,0.1,0.3,0.1,0.4c0.3,1.2,1.8,1.5,2.5,0.9c0.2-0.2,0.4-0.4,0.6-0.6
		c0.5-0.7,0.8-1.5,0.9-2.5c-0.1,0.1-0.2,0.1-0.3,0.2c-2.1,1.4-5,0.1-5.4-2.3c-0.2-1,0-2,0.4-3c0.6-1.4,1.8-2.3,3.4-2.3
		c0.6,0,1.3,0.1,1.9,0.2c1.6,0.4,2.5,1.5,2.8,3.2c0.2,1.3,0.1,2.5-0.2,3.8c-0.2,1.2-0.6,2.3-1.2,3.3c-0.6,1-1.4,1.8-2.6,2.1
		c-1.4,0.3-2.8,0.1-4-0.7C63.9,25.6,63.6,24.6,63.5,23.4z M70.5,18.5c-0.1-0.4-0.2-0.8-0.3-1.1c-0.2-0.6-0.7-1-1.4-1
		c-0.7,0-1.1,0.2-1.5,0.7c-0.4,0.7-0.6,1.5-0.4,2.3s0.7,1.3,1.5,1.4c0.7,0.1,1.5-0.3,1.8-1C70.2,19.4,70.3,19,70.5,18.5z"/>
	<path class="st0" d="M95.7,29c0.8,0.1,1.6,0.2,2.4,0.3c0,0.1,0,0.2,0.1,0.3c0.2,1.1,1.1,1.7,2.2,1.6c0.7,0,1.2-0.4,1.5-1
		c0.3-0.6,0.4-1.2,0.4-1.8c-0.2-1.3-1.7-2.1-2.9-1.4c-0.5,0.3-0.9,0.3-1.3,0.2c-0.5-0.1-1-0.2-1.6-0.3c0.6-2.3,1.1-4.5,1.7-6.8
		c2.5,0.4,4.9,0.9,7.4,1.4c-0.1,0.6-0.2,1.2-0.4,1.8c-1.7-0.3-3.4-0.6-5.1-1c-0.3,1-0.5,1.9-0.7,2.9c0.2,0,0.3-0.1,0.4-0.1
		c2.5-0.9,5,0.9,5,3.6c0,0.7-0.1,1.4-0.4,2.1c-0.6,1.5-1.8,2.3-3.4,2.5c-1.1,0.1-2.1-0.1-3-0.5c-1.4-0.7-2.2-1.8-2.3-3.4
		C95.6,29.3,95.7,29.2,95.7,29z"/>
	<path class="st0" d="M57.8,120.3c-1.8,4.1-3.5,8.1-5.2,12.1c-1-0.4-2-0.8-3-1.3c1.7-4,3.5-8,5.2-12c-1.2-0.6-2.5-0.9-3.7-1.3
		c0.3-0.6,0.5-1.1,0.7-1.7c3.3,1.4,6.7,2.9,10.1,4.3c-0.3,0.6-0.5,1.1-0.7,1.7C60.1,121.5,59,120.9,57.8,120.3z"/>
	<path class="st0" d="M99.6,131.9c-1.1,0.4-2,0.8-3.1,1.2c-1.6-4-3.2-8.1-4.8-12.2c-0.7,0.1-1.2,0.5-1.8,0.7
		c-0.6,0.3-1.1,0.6-1.8,0.9c-0.2-0.6-0.4-1.1-0.7-1.7c3.4-1.4,6.8-2.7,10.2-4c0.2,0.6,0.4,1.1,0.7,1.7c-1.2,0.4-2.4,0.7-3.6,1.1
		C96.5,123.8,98,127.8,99.6,131.9z"/>
	<path class="st0" d="M75.3,19.1c0.3-1.3,1.4-2.4,2.7-2.6c1.4-0.3,2.8,0,4.1,0.7c1.4,0.8,1.8,2.1,1.4,3.6c-0.3,1.1-1.1,1.8-2.2,2
		c-0.2,0-0.4,0.1-0.7,0.1c0.3,0.1,0.5,0.3,0.7,0.4c1.3,0.7,1.8,1.9,1.4,3.3c-0.4,1.6-1.5,2.6-3.2,2.7c-1.3,0.1-2.5-0.2-3.6-0.8
		c-1.4-0.7-2.1-2.2-1.9-3.7c0.8,0.1,1.6,0.2,2.5,0.2c0,0.1,0,0.2,0,0.3c0.1,1.4,1.5,2.3,2.9,1.8c0.7-0.3,0.9-0.9,1-1.5
		c0.1-0.6-0.2-1.1-0.7-1.4c-0.5-0.3-1-0.4-1.5-0.5c-0.2,0-0.4-0.1-0.6-0.1c0-0.1,0-0.2,0-0.3c0.1-0.5,0.2-1.1,0.3-1.7
		c0.3,0,0.6,0.1,0.9,0.1c0.3,0,0.5,0.1,0.7,0c1.2,0,1.9-1.1,1.5-2.2c-0.1-0.2-0.2-0.4-0.4-0.6c-0.9-0.8-2.2-0.5-2.8,0.5
		c0,0.1-0.1,0.2-0.2,0.3c-0.4-0.1-0.8-0.2-1.1-0.3C76.1,19.3,75.7,19.2,75.3,19.1z"/>
	<path class="st0" d="M92.7,27.2c0.6,0.1,1.1,0.2,1.6,0.4c-0.1,0.6-0.2,1.2-0.4,1.8c-0.5-0.1-1.1-0.2-1.6-0.3
		c-0.2,0.8-0.3,1.6-0.5,2.5c-0.8-0.1-1.5-0.3-2.3-0.4c0.1-0.8,0.3-1.6,0.4-2.5c-1.8-0.4-3.7-0.7-5.5-1.1c0.1-0.6,0.2-1.1,0.4-1.7
		c0-0.1,0.1-0.3,0.3-0.4c2-2.2,4.1-4.3,6.1-6.4c0.2-0.2,0.4-0.3,0.7-0.2c0.7,0.2,1.5,0.3,2.4,0.4C93.7,21.9,93.2,24.5,92.7,27.2z
		 M91.4,21.4c-1.5,1.6-3,3.2-4.5,4.7c0.9,0.3,3,0.7,3.5,0.6C90.7,24.9,91.1,23.2,91.4,21.4z"/>
	<path class="st0" d="M81.1,96.6c-1.4-0.1-2.5-0.3-3.5-0.9c-0.4-0.3-0.8-0.6-1-1.1c-0.5-1.1,0-2.4,1-2.7c0.5-0.2,1-0.4,1.5-0.4
		c1.1,0,2.2,0.2,3.2,0.7c0.3,0.2,0.6,0.4,0.8,0.6c1.1,1.1,0.7,2.9-0.8,3.4C81.9,96.5,81.4,96.5,81.1,96.6z"/>
	<path class="st0" d="M56,90.6c-1.1-0.2-2.2-0.4-3.2-0.6c0.7-0.7,1.4-1.5,2.1-2.2C55.3,88.7,55.6,89.6,56,90.6z"/>
</g>
</svg>
