<?xml version="1.0" encoding="utf-8"?>
<!-- Generator: Adobe Illustrator 24.2.1, SVG Export Plug-In . SVG Version: 6.00 Build 0)  -->
<svg version="1.1" id="Layer_1" xmlns="http://www.w3.org/2000/svg" xmlns:xlink="http://www.w3.org/1999/xlink" x="0px" y="0px"
	 viewBox="0 0 150 150" style="enable-background:new 0 0 150 150;" xml:space="preserve">
<style type="text/css">
	.st0{fill:#3C4E5A;}
</style>
<g>
	<path class="st0" d="M145.9,72.2c0,1.4,0,2.8,0,4.3c0,0.1-0.1,0.3-0.1,0.4c0,1.7-0.1,3.3-0.3,5c-0.4,3.5-1,6.9-1.9,10.3
		c-1.1,4.3-2.6,8.4-4.5,12.3c-1.7,3.4-3.6,6.7-5.8,9.8c-3.2,4.5-6.8,8.5-10.9,12.1c-2.7,2.3-5.5,4.5-8.6,6.4
		c-3.7,2.3-7.6,4.3-11.6,5.9c-4.1,1.6-8.3,2.8-12.6,3.7c-2.7,0.5-5.3,0.9-8,1c-0.1,0-0.2,0-0.3,0.1c-3,0-6,0-9.1,0
		c-0.1,0-0.1-0.1-0.2-0.1c-2.2-0.1-4.4-0.4-6.5-0.7c-3.5-0.6-6.9-1.4-10.2-2.5c-3.7-1.2-7.4-2.7-10.8-4.6c-3.3-1.7-6.4-3.7-9.3-5.9
		c-3.4-2.6-6.6-5.5-9.5-8.7c-2.3-2.6-4.5-5.4-6.5-8.3c-1.8-2.7-3.4-5.5-4.8-8.4c-1.6-3.3-2.9-6.6-3.9-10.1c-0.9-2.9-1.6-5.9-2-9
		c-0.3-2-0.4-4-0.7-5.9c0-0.4-0.1-0.9-0.2-1.3c0-2.3,0-4.7,0-7c0.1-0.4,0.2-0.9,0.2-1.3c0.1-1.3,0.2-2.6,0.4-3.8
		c0.3-2.6,0.8-5,1.3-7.5c1.3-5.3,3.1-10.4,5.6-15.2c1.4-2.7,3-5.4,4.7-7.8c2.3-3.3,4.8-6.4,7.6-9.2c1.1-1.1,2.3-2.3,3.5-3.4
		c2.5-2.3,5.1-4.3,8-6.1c3.2-2.1,6.4-3.9,9.9-5.4c3.5-1.6,7.1-2.8,10.7-3.8c4.2-1.1,8.5-1.8,12.9-2.1c0.3,0,0.6,0,0.9-0.1
		c2.3,0,4.7,0,7,0c0.1,0,0.2,0.1,0.3,0.1c0.6,0,1.2,0.1,1.8,0.1c2.7,0.2,5.3,0.6,8,1.1c5.7,1.1,11.3,3,16.6,5.5
		c3.1,1.5,6,3.2,8.8,5.1c5,3.4,9.5,7.4,13.4,12c4,4.7,7.4,9.9,10.1,15.5c1.9,4.1,3.5,8.3,4.6,12.7c1.2,4.7,2,9.6,2,14.5
		C145.8,71.9,145.9,72.1,145.9,72.2z M76.6,139.1c17.5-0.3,32.7-6.3,45.2-18.5c12.5-12.1,18.8-27.1,19.6-44.5
		c0.3-18.1-5.8-33.9-18.4-46.9C110.9,16.7,95.9,10.4,78.4,9.7c-18.1-0.2-33.7,6-46.9,18.5c-12.3,12.3-19,27.2-19.4,44.6
		c-0.4,18.1,5.8,33.9,18.5,46.8C43.2,132.5,58.7,138.7,76.6,139.1z"/>
	<path class="st0" d="M103.1,87.2c-1.3,7-2.5,13.9-3.7,20.9c-18.8-3.3-37.4-6.6-56.2-9.9c4.1-23.4,8.2-46.7,12.4-70.1
		c3.7,0.7,7.4,1.3,11.1,2c-0.1,0.3-0.2,0.5-0.3,0.7c-1.3,2.5-2.5,5.1-3.4,7.8c-0.9,2.7-1.5,5.5-1.8,8.4c-0.1,1.5-0.3,3-0.2,4.6
		c0.1,3.3,0.7,6.6,1.8,9.7c1.3,3.7,3.2,7.2,5.6,10.3c1.4,1.9,3,3.6,4.7,5.2c2.2,2.1,4.7,3.9,7.4,5.4c3.9,2.2,8.1,3.7,12.5,4.4
		c2,0.3,4.1,0.6,6.2,0.7c1.1,0,2.2-0.1,3.3,0C102.7,87.2,102.9,87.2,103.1,87.2z M82.9,97c1,0.1,1.9-0.1,2.8-0.4
		c2.2-0.8,2.6-3.4,1.1-4.9c-0.7-0.7-1.6-1.2-2.5-1.5c-1.5-0.5-3-0.8-4.6-0.9c-1.2,0-2.4,0.1-3.5,0.7c-1.5,0.8-2,2.7-1.1,4
		c0.5,0.7,1.2,1.3,2,1.7C79,96.6,80.9,96.9,82.9,97z M55,84.9c-2,2-4,3.9-6,6c1,0.2,1.9,0.3,2.8,0.5c0.2,0,0.3,0,0.5-0.2
		c0.3-0.3,0.5-0.5,0.7-0.8c0.1-0.1,0.3-0.2,0.5-0.2c1.4,0.3,2.9,0.5,4.3,0.8c0.3,0,0.4,0.2,0.5,0.4c0.1,0.4,0.3,0.9,0.5,1.1
		c0.3,0.2,0.8,0.2,1.2,0.3c0.6,0.1,1.2,0.2,1.8,0.3c0-0.2-0.1-0.2-0.1-0.3c-1.1-2.3-2.2-4.7-3.2-7c-0.1-0.3-0.3-0.4-0.7-0.5
		C56.8,85.3,55.9,85.1,55,84.9z M66.3,94c1,0.2,1.9,0.3,2.9,0.5c0.3-1.9,0.7-3.7,1-5.5c1.3,0.2,2.7,0.5,4,0.7
		c0.1-0.4,0.1-0.8,0.2-1.3c-3.7-0.7-7.2-1.3-10.9-1.9c-0.1,0.4-0.1,0.8-0.2,1.2c1.3,0.3,2.7,0.4,4,0.8C66.9,90.3,66.6,92.1,66.3,94z
		 M98.9,98.5c-2.2-0.4-4.4-0.8-6.6-1.2c0.3-1.9,0.7-3.7,1-5.5c-1-0.2-1.9-0.3-2.9-0.5c-0.4,2.3-0.8,4.5-1.2,6.8
		c3.2,0.6,6.3,1.1,9.5,1.7C98.7,99.3,98.8,99,98.9,98.5z"/>
	<path class="st0" d="M103.7,83.9c-5.4-0.4-10.2-2.1-14.6-5.1c-3.6-2.5-6.4-5.7-8.5-9.4C79.1,66.7,78,64,77.4,61
		c-1-4.6-0.5-9.1,1.5-13.4c1.1-2.3,2.5-4.4,4.2-6.3c2.3-2.5,4.9-4.7,7.8-6.4c0.5-0.3,0.9-0.4,1.5-0.3c4.8,0.9,9.6,1.7,14.4,2.6
		c1.6,0.3,3.2,0.6,4.7,0.8c0.1,0,0.1,0,0.3,0.1C109.1,53.3,106.4,68.6,103.7,83.9z"/>
	<path class="st0" d="M49.6,115.1c0,2-0.8,3.6-2,5c-1,1.1-2.2,1.9-3.6,2.3c-1.6,0.5-3.1,0.4-4.6-0.1c-2.2-0.8-4-2.2-5.2-4.2
		c-1.4-2.3-1.4-4.8,0-7.2c0.9-1.5,2-2.7,3.6-3.4c2-0.9,4-0.9,5.9-0.1c2.3,1,4.1,2.5,5.3,4.8C49.4,113.1,49.6,114.1,49.6,115.1z
		 M47,113.2c0-0.3,0-0.7-0.1-1c-0.3-1.3-1.3-2.2-2.5-2.8c-1.2-0.5-2.4-0.4-3.5,0.2c-2,1-3.5,2.6-4.6,4.6c-0.4,0.7-0.6,1.5-0.6,2.3
		c0,1.7,1,2.9,2.5,3.7c1.2,0.6,2.5,0.4,3.7-0.1c1.7-0.7,2.9-1.9,3.9-3.4C46.5,115.6,47,114.5,47,113.2z"/>
	<path class="st0" d="M109.3,108.3c0.5-0.6,0.9-1.1,1.3-1.7c1-1.3,2.1-2.7,3.2-4c0.6-0.7,1.3-1.4,2.2-1.9c1.5-0.8,3-1,4.6-0.5
		c2.3,0.7,4,2.2,5,4.3c0.9,1.8,0.9,3.7,0.3,5.6c-0.3,0.8-0.7,1.6-1.3,2.3c-1.2,1.5-2.4,3-3.6,4.6c-0.1,0.1-0.2,0.2-0.3,0.3
		C116.9,114.3,113.1,111.3,109.3,108.3z M121.7,113.9c0.6-0.8,1.2-1.4,1.7-2.3c1-1.7,0.9-3.3-0.2-4.8c-1.1-1.5-2.5-2.7-4.2-3.5
		c-1.4-0.6-2.7-0.6-4,0.3c-1.1,0.7-1.8,1.9-2.6,2.9C115.5,109,118.5,111.4,121.7,113.9z"/>
	<path class="st0" d="M34.1,93.6c0.5,0.9,1,1.6,1.4,2.4c0.7,1.2,1.4,2.3,2,3.5c0.7,1.3,0.3,2.8-0.6,3.7c-1.4,1.4-3.8,1.5-5.3,0.1
		c-0.1-0.1-0.3-0.3-0.4-0.4c-1.4,2.4-2.6,5-4,7.6c-0.3-0.6-0.6-1.2-0.9-1.7c-0.3-0.6-0.7-1.1-1-1.6c1.3-2.3,2.6-4.5,3.8-6.7
		c0,0-0.1-0.1-0.1-0.1c-1.9,1.1-3.8,2.2-5.7,3.4c-0.6-0.9-1.1-1.8-1.7-2.8C25.7,98.6,29.9,96.1,34.1,93.6z M29.9,99.9
		c0.2,0.3,0.4,0.7,0.6,0.9c0.7,0.9,1.6,1.2,2.7,0.8c0.8-0.3,1.5-0.7,2.1-1.4c0.3-0.4,0.5-0.9,0.3-1.4c-0.2-0.6-0.5-1.2-0.9-1.7
		C33.1,98,31.5,99,29.9,99.9z"/>
	<path class="st0" d="M23.5,87.6c-2,0.6-4,1.1-6.1,1.7c-0.3-1-0.6-2-0.9-3.1c4.7-1.3,9.3-2.5,14-3.8c0.1,0.2,0.1,0.3,0.2,0.4
		c0.4,1.6,0.9,3.2,1.3,4.8c0.2,0.9,0.3,1.7,0.2,2.6c-0.2,0.9-0.6,1.7-1.4,2.1c-1.1,0.7-2.3,0.8-3.6,0.5c-1.1-0.2-1.9-1-2.3-1.9
		c-0.4-0.9-0.8-1.8-1.1-2.7C23.7,88.1,23.6,87.9,23.5,87.6z M30.3,85.8c-1.9,0.5-3.7,1-5.5,1.5c0.2,0.7,0.3,1.2,0.7,1.7
		c0.3,0.3,0.7,0.6,1.1,0.7c1.2,0.4,3-0.2,3.7-1.2c0.3-0.3,0.4-0.7,0.3-1.2C30.6,86.8,30.5,86.3,30.3,85.8z"/>
	<path class="st0" d="M100.6,114.5c2.2-1.6,4.4-3.1,6.6-4.7c0.3,0.5,0.7,1,1.1,1.5c-1.4,0.8-2.8,1.6-4.1,2.6
		c0.9,1.2,1.7,2.4,2.6,3.7c1.3-0.9,2.6-1.8,3.8-2.9c0.4,0.5,0.7,1,1,1.5c-1.3,0.9-2.6,1.7-4,2.6c1,1.5,2,2.9,3.1,4.4
		c1.3-1,2.5-2,3.8-3c0.3,0.5,0.7,1,1.1,1.5c-2.2,1.5-4.4,3.1-6.6,4.7C106.1,122.4,103.4,118.5,100.6,114.5z"/>
	<path class="st0" d="M67.5,126.2c1.6,0.3,3.1,0.6,4.7,0.6c-0.1,0.6-0.2,1.2-0.3,1.9c-1.5-0.4-3-0.7-4.7-0.9
		c-0.3,1.7-0.6,3.4-0.9,5.2c1.6,0.3,3.2,0.4,4.8,0.6c-0.1,0.3-0.2,0.6-0.2,0.9c0,0.3,0,0.6,0,1c-2.7-0.5-5.4-0.9-8.1-1.3
		c0.8-4.8,1.6-9.5,2.4-14.3c2.7,0.4,5.3,0.9,8,1.3c-0.1,0.6-0.2,1.2-0.3,1.8c-1.5-0.4-3.1-0.9-4.7-1
		C68.1,123.2,67.8,124.7,67.5,126.2z"/>
	<path class="st0" d="M87.6,120.8c-0.1,0.7-0.1,1.3-0.2,1.9c0,0.1-0.1,0.3-0.2,0.3c-0.2,0.1-0.3,0-0.4-0.2c-0.7-0.7-1.4-1.1-2.4-1.3
		c-1.8-0.4-3.7,0.6-4.6,2.2c-0.9,1.6-1,3.3-0.7,5c0.1,0.9,0.3,1.7,0.7,2.5c1.1,2.1,3.1,3.1,5.4,2.6c1-0.2,1.8-0.7,2.5-1.4
		c0.1-0.1,0.2-0.2,0.3-0.3c0.1,0,0.3-0.1,0.3,0c0,0,0.1,0.2,0.1,0.3c0,0.4-0.1,0.8-0.2,1.2c0,0.3-0.2,0.5-0.4,0.7c-1,0.5-2,0.8-3,1
		c-1.8,0.3-3.6,0.2-5.3-0.6c-2.5-1.1-3.8-3.1-4.1-5.9c-0.1-1,0-2,0.2-3c0.5-2,1.7-3.5,3.5-4.5c2.5-1.3,5.1-1.6,7.8-0.8
		C87.2,120.6,87.4,120.7,87.6,120.8z"/>
	<path class="st0" d="M64.8,23.1c0.8,0,1.5,0.1,2.3,0.1c0,0.1,0.1,0.3,0.1,0.4c0.3,1.2,1.7,1.5,2.5,0.9c0.2-0.2,0.4-0.3,0.6-0.6
		c0.5-0.7,0.8-1.5,0.9-2.4c-0.1,0.1-0.2,0.1-0.3,0.2c-2,1.4-5,0.1-5.4-2.3c-0.2-1,0-2,0.3-3c0.6-1.4,1.8-2.3,3.4-2.3
		c0.6,0,1.3,0.1,1.9,0.2c1.6,0.4,2.5,1.5,2.8,3.1c0.2,1.3,0.1,2.5-0.2,3.8c-0.2,1.2-0.6,2.3-1.2,3.3c-0.6,1-1.4,1.8-2.6,2
		c-1.4,0.3-2.7,0.1-3.9-0.7C65.2,25.2,64.9,24.3,64.8,23.1z M71.7,18.2c-0.1-0.4-0.2-0.8-0.3-1.1c-0.2-0.6-0.7-1-1.4-1
		c-0.7,0-1.1,0.2-1.5,0.7c-0.4,0.7-0.6,1.5-0.4,2.3c0.2,0.8,0.7,1.3,1.5,1.4c0.7,0.1,1.5-0.3,1.8-1C71.5,19.1,71.6,18.7,71.7,18.2z"
		/>
	<path class="st0" d="M96.7,28.7c0.8,0.1,1.6,0.2,2.4,0.3c0,0.1,0,0.2,0.1,0.3c0.2,1.1,1,1.7,2.1,1.6c0.7,0,1.2-0.4,1.5-1
		c0.3-0.6,0.4-1.2,0.3-1.8c-0.2-1.3-1.7-2-2.8-1.4c-0.5,0.3-0.9,0.3-1.3,0.2c-0.5-0.1-1-0.2-1.6-0.3c0.6-2.3,1.1-4.5,1.7-6.7
		c2.4,0.4,4.8,0.9,7.3,1.3c-0.1,0.6-0.2,1.2-0.3,1.8c-1.7-0.3-3.4-0.6-5.1-1c-0.3,1-0.5,1.9-0.7,2.9c0.2,0,0.3-0.1,0.4-0.1
		c2.5-0.9,5,0.9,5,3.5c0,0.7-0.1,1.4-0.4,2.1c-0.6,1.5-1.8,2.3-3.4,2.4c-1,0.1-2-0.1-3-0.5c-1.4-0.7-2.2-1.7-2.3-3.4
		C96.7,28.9,96.7,28.8,96.7,28.7z"/>
	<path class="st0" d="M59.2,119.1c-1.7,4-3.5,8-5.2,12c-1-0.4-2-0.8-3-1.3c1.7-4,3.4-7.9,5.1-11.9c-1.2-0.6-2.4-0.9-3.7-1.3
		c0.3-0.6,0.5-1.1,0.7-1.7c3.3,1.4,6.7,2.9,10,4.3c-0.3,0.6-0.5,1.1-0.7,1.7C61.4,120.4,60.3,119.8,59.2,119.1z"/>
	<path class="st0" d="M100.6,130.7c-1,0.4-2,0.8-3,1.2c-1.6-4-3.1-8-4.7-12.1c-0.7,0.1-1.2,0.5-1.8,0.7s-1.1,0.6-1.7,0.9
		c-0.2-0.6-0.4-1.1-0.7-1.7c3.4-1.3,6.7-2.7,10.1-4c0.2,0.6,0.4,1.1,0.7,1.7c-1.2,0.3-2.3,0.7-3.6,1.1
		C97.5,122.6,99,126.6,100.6,130.7z"/>
	<path class="st0" d="M76.5,18.8c0.3-1.3,1.3-2.3,2.7-2.6c1.4-0.3,2.8,0,4,0.7c1.3,0.8,1.8,2.1,1.4,3.6c-0.3,1.1-1,1.7-2.1,2
		c-0.2,0-0.4,0.1-0.7,0.1c0.3,0.1,0.5,0.3,0.7,0.3c1.3,0.7,1.8,1.9,1.4,3.3c-0.4,1.6-1.5,2.6-3.2,2.7c-1.3,0.1-2.5-0.2-3.6-0.8
		c-1.4-0.7-2.1-2.1-1.9-3.7c0.8,0.1,1.6,0.2,2.4,0.2c0,0.1,0,0.2,0,0.3c0.1,1.4,1.5,2.3,2.8,1.8c0.7-0.3,0.9-0.9,1-1.5
		c0.1-0.6-0.2-1.1-0.7-1.4c-0.5-0.3-1-0.4-1.5-0.5c-0.2,0-0.4-0.1-0.6-0.1c0-0.1,0-0.2,0-0.3c0.1-0.5,0.2-1.1,0.3-1.7
		c0.3,0,0.6,0.1,0.9,0.1c0.3,0,0.5,0.1,0.7,0c1.2,0,1.9-1.1,1.5-2.2c-0.1-0.2-0.2-0.4-0.4-0.6c-0.9-0.8-2.2-0.5-2.8,0.5
		c0,0.1-0.1,0.2-0.2,0.3c-0.4-0.1-0.8-0.2-1.1-0.3C77.3,19,76.9,18.9,76.5,18.8z"/>
	<path class="st0" d="M93.8,26.8c0.6,0.1,1,0.2,1.6,0.3c-0.1,0.6-0.2,1.2-0.3,1.8c-0.5-0.1-1-0.2-1.6-0.3c-0.2,0.8-0.3,1.6-0.5,2.4
		c-0.8-0.1-1.5-0.3-2.3-0.4c0.1-0.8,0.3-1.6,0.4-2.5c-1.8-0.3-3.7-0.7-5.5-1c0.1-0.6,0.2-1.1,0.3-1.7c0-0.1,0.1-0.3,0.3-0.4
		c2-2.1,4-4.2,6-6.4c0.2-0.2,0.3-0.3,0.7-0.2c0.7,0.2,1.5,0.3,2.3,0.4C94.8,21.6,94.2,24.2,93.8,26.8z M92.5,21.1
		c-1.5,1.6-3,3.1-4.5,4.7c0.9,0.3,3,0.7,3.5,0.6C91.8,24.6,92.1,22.8,92.5,21.1z"/>
	<path class="st0" d="M82.2,95.6c-1.4-0.1-2.5-0.3-3.4-0.9c-0.4-0.3-0.8-0.6-1-1c-0.5-1,0-2.3,1-2.7c0.5-0.2,1-0.3,1.5-0.3
		c1.1,0,2.2,0.2,3.2,0.7c0.3,0.2,0.6,0.3,0.8,0.6c1,1.1,0.7,2.9-0.8,3.4C83,95.5,82.5,95.6,82.2,95.6z"/>
	<path class="st0" d="M57.4,89.7c-1.1-0.2-2.1-0.4-3.2-0.6c0.7-0.7,1.3-1.5,2.1-2.2C56.7,87.8,57,88.7,57.4,89.7z"/>
</g>
</svg>
