<?xml version="1.0" encoding="utf-8"?>
<!-- Generator: Adobe Illustrator 25.2.0, SVG Export Plug-In . SVG Version: 6.00 Build 0)  -->
<svg version="1.1" id="Layer_1" xmlns="http://www.w3.org/2000/svg" xmlns:xlink="http://www.w3.org/1999/xlink" x="0px" y="0px"
	 viewBox="0 0 150 150" style="enable-background:new 0 0 150 150;" xml:space="preserve">
<style type="text/css">
	.st0{fill:#3C4E5A;}
	.st1{fill:#FFFFFF;}
	.st2{fill:#F4CE51;}
	.st3{fill:#2AAAA9;}
</style>
<g>
	<path class="st0" d="M75.9,133.3c-32.3,0.1-59-26.4-58.2-59.7c0.7-32,27.1-57.6,59.7-56.8c32,0.8,57,26.9,56.8,58.8
		C133.8,108.5,106.9,133.4,75.9,133.3z"/>
	<path class="st1" d="M71.5,129.3c-8.5-0.5-16.4-3.1-23.7-7.5c-15-9.3-24-22.8-26.1-40.3c-2.2-18.3,3.8-34,17.3-46.7
		c8.5-8,18.7-12.8,30.4-14c18.6-2,34.4,4,47,17.8c7.7,8.4,12.3,18.5,13.6,29.8c1.7,15-2,28.5-11.4,40.4c-9.2,11.6-21.3,18.3-36,20.4
		c-0.8,0.1-1.6,0.1-2.4,0.1C77.4,129.5,74.4,129.5,71.5,129.3z"/>
	<path class="st2" d="M71.5,129.3c2.9,0,5.8,0,8.8,0C77.4,129.7,74.4,129.7,71.5,129.3z"/>
	<path class="st0" d="M67.3,37.8c-1.1,2.2-2.1,4.3-2.9,6.5c-4.2,12.3-1.3,23,7.7,32.1c6.7,6.8,15.1,9.6,24.5,9.5
		c1.3,0,1.4,0.3,1.2,1.4c-0.9,4.9-1.8,9.8-2.6,14.6c-0.2,1.1-0.5,1.4-1.7,1.1c-12.7-2.3-25.4-4.5-38.1-6.8c-2.3-0.4-4.6-0.8-7-1.2
		c-0.6-0.1-0.8-0.2-0.7-0.8c1.8-9.8,3.5-19.5,5.2-29.3c1.6-9.3,3.3-18.6,4.8-27.9c0.1-0.9,0.5-1,1.2-0.8
		C61.8,36.8,64.5,37.3,67.3,37.8z"/>
	<path class="st0" d="M97.7,82.9c-7.6-1-13.7-4.5-17.9-11.1c-2.2-3.5-3.6-7.2-3.7-11.3C76,55.2,78,50.9,81.5,47
		c1.4-1.6,3.2-2.8,4.8-4.2c1.6-1.4,3.3-1.2,5.2-0.8c4.2,0.8,8.5,1.5,12.7,2.3c0.9,0.2,1.3,0.4,1.1,1.5c-1.9,10.3-3.7,20.6-5.5,30.9
		c-0.3,1.8-0.7,3.6-1,5.4C98.6,82.8,98.4,83.1,97.7,82.9z"/>
	<path class="st3" d="M111.4,96.7c4.4,0.2,7.4,4.9,5.5,8.9c-0.9,2-2.5,3.4-3.7,5.1c-0.3,0.4-0.5,0.2-0.8,0c-2.8-2.3-5.7-4.5-8.5-6.8
		c-0.4-0.3-0.3-0.6-0.1-0.9c1.3-1.6,2.6-3.3,4-4.8C108.7,97.2,109.9,96.7,111.4,96.7z"/>
	<path class="st3" d="M45.7,102.5c3.6,0,7.3,3.5,7.3,6.8c0,3.5-3.1,6.5-6.5,6.5c-3.6-0.1-7.2-3.5-7.2-6.9
		C39.2,105.6,42.3,102.5,45.7,102.5z"/>
	<path class="st3" d="M34.1,105.4c-0.4-0.7-0.6-1.2-1-1.7c-0.6-0.7-0.5-1.3,0-2c0.9-1.4,1.7-2.8,2.5-4.3c-0.1-0.1-0.1-0.2-0.2-0.3
		c-1.2,0.7-2.4,1.3-3.5,2c-0.7,0.4-1.2,0.7-1.6-0.3c-0.3-0.7-1.1-1.2,0.2-1.9c2.9-1.6,5.8-3.4,8.7-5.1c0.6-0.3,0.9-0.5,1.3,0.3
		c0.6,1.2,1.4,2.3,2,3.6c0.8,1.6,0.7,3-0.3,3.9c-1.1,1-2.7,1.1-4,0.1c-0.7-0.5-0.8-0.2-1.1,0.3C36,101.7,35.1,103.4,34.1,105.4z"/>
	<path class="st3" d="M38.4,87c0.1,1.9-0.5,2.9-1.8,3.4c-1.5,0.5-2.9,0.3-3.9-0.8c-0.5-0.6-0.9-1.2-1.1-2c-0.2-1.4-0.9-1.5-2.1-1
		c-0.9,0.4-1.8,0.4-2.7,0.7c-0.7,0.2-0.7,0-1-0.6c-0.6-1.4-0.3-1.8,1.2-2.2c3.1-0.7,6.1-1.6,9.1-2.5c0.7-0.2,1-0.1,1.1,0.7
		C37.6,84.3,38.1,85.9,38.4,87z"/>
	<path class="st3" d="M102.3,106.3c-0.3,0.2-0.6,0.3-0.9,0.5c-2.7,1.5-2.7,1.6-0.8,4.1c0.5,0.6,0.8,0.7,1.4,0.2
		c0.6-0.5,1.2-0.9,1.8-1.4c0.3-0.2,0.6-0.7,1,0c0.3,0.5,0.4,0.7-0.2,1c-2.7,1.8-2.6,1.8-0.8,4.5c0.6,0.9,1.1,1,1.8,0.3
		c0.7-0.6,1.4-1.1,2.1-1.7c0.3,0.4,0.6,0.7,0.9,1.1c-1.6,1.1-3.1,2.2-4.7,3.3c-0.6,0.4-0.9,0.6-1.4-0.2c-1.9-2.8-3.8-5.5-5.8-8.2
		c-0.6-0.8-0.4-1.1,0.3-1.6c1.2-0.7,2.3-1.5,3.4-2.4C101.1,105.2,101.8,104.8,102.3,106.3z"/>
	<path class="st3" d="M71.8,120.7c-0.1,0-0.2-0.1-0.3-0.1c-3.8-1.1-4.2-0.8-4.4,3.2c0,0.7,0.4,0.7,0.8,0.7c0.8,0.1,1.7,0.2,2.5,0.3
		c0.5,0,0.6,0.2,0.6,0.7c0,0.5-0.3,0.7-0.7,0.6c-1.9-0.3-3.7-0.6-5.6-0.9c-0.5-0.1-0.3-0.4-0.3-0.7c0.6-3.5,1.2-7.1,1.8-10.6
		c0.1-0.6,0.3-0.7,0.8-0.6c1.7,0.3,3.4,0.6,5.2,0.9c0.6,0.1,0.6,0.4,0.5,0.9c-0.1,0.7-0.5,0.5-0.9,0.4c-0.5-0.1-0.9-0.2-1.4-0.3
		c-1.7-0.4-1.8-0.4-2.1,1.4c-0.4,2.3-1,2.2,2,2.5C72.2,119.4,72.2,119.4,71.8,120.7z"/>
	<path class="st3" d="M85.6,123.9c0.2,1.2-0.5,1.8-1.5,2.1c-1.7,0.5-3.4,0.6-5.2,0.1c-2.6-0.8-4.2-3-4.1-5.9c0-3.1,1.8-5.4,4.8-6.2
		c1.2-0.3,2.3-0.4,3.5-0.3c1.9,0.2,1.9,0.3,1.4,2.2c-0.4-0.3-0.8-0.6-1.3-0.9c-1.6-0.9-3.5-0.4-4.6,1.1c-1.5,2.2-1.4,5.8,0.4,7.8
		c1.3,1.5,3.7,1.8,5.5,0.5C84.9,124.3,85.2,123.9,85.6,123.9z"/>
	<path class="st0" d="M71.3,30.6c-0.9,0.1-1.5,0.6-2.3,0.5c-1.6-0.3-2.5-1.3-2.5-3c0-2,0.9-3.4,2.6-3.7c2.5-0.5,4.5,1,4.5,3.6
		c0,1.8-0.4,3.6-1.3,5.2c-0.7,1.2-1.9,2-3.1,1.9c-1-0.1-2.4-0.5-3-1.8c-0.1-0.4-0.6-0.8-0.1-1.1c0.4-0.3,1.1-0.2,1.5,0.1
		C69.9,33.7,70.4,33.5,71.3,30.6z"/>
	<path class="st0" d="M92.6,36.6c0.9,0.1,1.9-0.1,2.5,1.1c0.4,0.8,1.4,0.9,2.2,0.5c0.8-0.4,1.1-1.3,1-2.2c-0.1-0.9-0.7-1.4-1.7-1.4
		c-0.3,0-0.6,0.1-1,0.2c-1.6,0.4-2.2-0.1-1.8-1.6c0.1-0.5,0.2-0.9,0.3-1.4c0.8-2.7,0.8-2.8,3.5-2.2c0.8,0.2,1.6,0.4,2.4,0.5
		c0.6,0.1,0.8,0.3,0.7,0.9c-0.1,0.6-0.5,0.6-0.9,0.5c-0.7-0.1-1.5-0.3-2.2-0.4c-1.1-0.2-2.1,0.9-1.8,1.9c0.1,0.5,0.4,0.2,0.7,0.2
		c1.4-0.2,2.7,0.1,3.4,1.4c0.8,1.4,0.5,2.8-0.3,4c-0.9,1.2-2.2,1.5-3.7,1.2C94,39.5,92.9,38.6,92.6,36.6z"/>
	<path class="st3" d="M54,121.7c1-0.9,1.2-2.1,1.7-3.2c0.9-2,1.7-4,2.6-6c0.3-0.7,0.3-1-0.5-1.2c-0.5-0.1-1-0.4-1.5-0.5
		c-0.5-0.1-0.8-0.2-0.5-0.9c0.2-0.6,0.5-0.6,1-0.4c2.5,1.1,5,2.2,7.6,3.3c-0.2,0.4-0.4,0.8-0.6,1.2c-0.1,0-0.2,0-0.2,0
		c-2.5-1.3-2.5-1.3-3.7,1.3c-0.9,2.1-1.9,4.2-2.8,6.4c-0.3,0.8-0.6,1.2-1.5,0.6C55.2,122,54.6,121.9,54,121.7z"/>
	<path class="st3" d="M95,111.2c-0.3,0.1-0.4,0.2-0.5,0.2c-2.5,0.9-2.5,0.9-1.6,3.3c0.9,2.3,1.7,4.6,2.7,6.8
		c0.6,1.5-0.7,1.1-1.2,1.5c-0.6,0.5-0.9,0.3-1.2-0.4c-1-2.7-2.2-5.4-3.2-8.2c-0.4-1.2-0.9-1.2-1.8-0.7c-0.3,0.2-0.7,0.3-1,0.5
		c-0.3,0.2-0.6,0.5-0.8-0.2c-0.1-0.4-0.5-0.8,0.2-1c2.5-1,5-2,7.5-2.9C94.9,109.8,94.4,111,95,111.2z"/>
	<path class="st0" d="M80.3,31.5c1.6,1.2,1.9,2.1,1.4,3.4c-0.5,1.3-1.7,1.9-3.4,1.7c-1.4-0.2-2.7-0.5-3.4-2
		c-0.2-0.5-0.7-1.2-0.1-1.5c0.5-0.2,1.5-0.4,1.9,0.7c0.2,0.7,0.8,1,1.5,1.1c0.8,0.1,1.4-0.1,1.7-0.9c0.3-0.9,0-1.6-0.9-1.9
		c-0.2-0.1-0.4-0.2-0.7-0.2c-0.5-0.1-0.8-0.2-0.6-0.8c0.2-0.5,0.2-0.8,0.9-0.7c0.9,0.2,1.6-0.1,1.9-1c0.2-0.7-0.1-1.2-0.6-1.6
		c-0.8-0.5-1.5-0.3-2.1,0.4c-0.7,0.8-1.4,0.2-1.8-0.2c-0.5-0.3,0.2-0.8,0.5-1.1c1.4-1.5,4.8-1.1,5.9,0.7
		C83.1,29.1,82.4,30.6,80.3,31.5z"/>
	<path class="st0" d="M91.2,29c-0.3,1.8-0.6,3.5-0.9,5.2c-0.1,0.6-0.2,1,0.6,1c0.3,0,0.7,0.1,0.5,0.6c-0.1,0.3,0,0.9-0.6,0.8
		c-1.2-0.3-1.1,0.6-1.2,1.2c-0.1,0.5-0.1,0.9-0.8,0.6c-0.5-0.2-1.3,0-1-0.9c0.5-1.4-0.3-1.5-1.3-1.7c-0.7-0.1-1.3-0.2-2-0.3
		c-1.2-0.2-1.5-1-0.8-1.8c1.6-1.8,3.3-3.5,5-5.2c0.7-0.7,1.4,0,2.1,0C91.5,28.4,91.2,28.9,91.2,29z"/>
	<path class="st1" d="M80.9,94.1c-1.8,0-3.5-0.3-5-1.2c-1.1-0.7-2-1.5-1.7-3c0.2-1.4,1.2-2,2.5-2.2c2.5-0.5,4.9,0,7.1,1.3
		c1,0.6,1.9,1.6,1.5,2.9c-0.4,1.4-1.5,2-2.8,2.2C81.9,94.1,81.4,94.1,80.9,94.1z"/>
	<path class="st1" d="M52.3,89.1c1.8-1.8,3.4-3.4,5-4.9c0.7-0.6,2.9,0.1,3.3,1c0.9,1.9,1.8,3.7,2.8,5.9c-1.3-0.4-2.7,0.1-3.3-1.6
		c-0.1-0.4-3.9-1.1-4.2-0.7C54.9,90,53.8,89.2,52.3,89.1z"/>
	<path class="st1" d="M72.8,87.8C72,88,71,86.9,70.4,87.8c-0.5,0.7-0.4,1.7-0.5,2.6c-0.2,1-0.3,2-1.9,1.5c-0.8-0.3-1.1-0.5-0.9-1.3
		c0.1-0.3,0.1-0.6,0.2-0.8c0.4-2.6,0.4-2.6-2-3.2c-0.5-0.1-1-0.1-0.8-0.9c0.2-0.6,0.7-0.4,1-0.4c2.5,0.4,5,0.9,7.5,1.4
		c0.4,0.1,0.9,0.1,0.8,0.7C73.8,88,73.3,87.8,72.8,87.8z"/>
	<path class="st1" d="M93.6,96.4c-2.1-0.4-4.3-0.8-6.4-1.1c-0.7-0.1-1-0.4-0.8-1.1c0.3-1.4,0.5-2.8,0.7-4.2c0.2-1.2,0.9-0.5,1.5-0.5
		c0.6,0,1.3,0,1.1,1c-0.1,0.6-0.2,1.1-0.3,1.7c-0.4,2.2-0.4,2.2,1.7,2.6c0.9,0.2,1.8,0.3,2.6,0.5c0.4,0.1,0.9,0,0.7,0.7
		C94.4,96.3,94.2,96.6,93.6,96.4z"/>
	<path class="st1" d="M115.8,104.9c0.1,1.2-0.9,2.2-1.8,3.2c-0.4,0.5-0.7,0-1-0.2c-2.2-1.7-4.4-3.5-6.6-5.2
		c-0.5-0.4-0.6-0.7-0.2-1.3c2-2.9,4.2-3.3,6.9-1C114.4,101.5,115.7,102.6,115.8,104.9z"/>
	<path class="st1" d="M44.7,113.9c-2,0-3.6-1.7-3.5-3.6c0.2-2.2,3.3-5.6,5.4-6c2.3-0.4,4.3,1.5,4.2,3.8
		C50.7,110.8,47.3,114,44.7,113.9z"/>
	<path class="st1" d="M41.3,96.2c-0.2,1.1-1.2,1.6-2.3,2c-1,0.3-1.7-0.2-2.3-0.9c-0.4-0.5-0.2-0.8,0.2-1c1-0.6,2-1.2,3-1.8
		C40.5,94,41.3,94.9,41.3,96.2z"/>
	<path class="st1" d="M34.4,88.1c-0.6,0-1-0.1-1.4-0.5c-0.5-0.4-0.9-0.9-0.8-1.6c0.1-0.5,0.8-0.4,1.2-0.5c0.7-0.3,1.5-0.5,2.3-0.6
		c0.4-0.1,1-0.6,1.2,0c0.3,0.5,0.5,1.1,0.1,1.7C36.4,87.7,35.4,87.9,34.4,88.1z"/>
	<path class="st1" d="M71.6,27.7c0,1.2-0.7,2.1-1.7,2c-1-0.1-1.5-0.7-1.5-1.7c0-1.2,0.8-2.3,1.7-2.2C71.2,26,71.7,26.7,71.6,27.7z"
		/>
	<path class="st1" d="M89.1,30.5c-0.1,0.7-0.4,1.8-0.5,2.9c-0.1,1-0.5,1.3-1.4,1c-0.6-0.2-1.2-0.2-2.1-0.4
		C86.6,32.7,88,31.6,89.1,30.5z"/>
	<path class="st0" d="M79.1,88.8c1,0,2,0.3,2.8,0.8c0.6,0.4,0.9,1,0.7,1.7c-0.2,0.6-0.6,1-1.2,1.2c-1,0.4-1.9,0.1-2.8-0.1
		c-1.4-0.3-2.1-1.2-1.9-2.2C76.9,89.3,77.7,88.8,79.1,88.8z"/>
	<path class="st0" d="M59.4,87.7c-0.2,0-0.4,0.1-0.5,0.1c-0.6-0.1-1.2-0.2-2-0.4c0.6-0.6,1.1-1.1,1.7-1.7
		C58.9,86.4,59.2,87.1,59.4,87.7z"/>
</g>
</svg>
