<?xml version="1.0" encoding="utf-8"?>
<!-- Generator: Adobe Illustrator 24.2.1, SVG Export Plug-In . SVG Version: 6.00 Build 0)  -->
<svg version="1.1" id="Layer_1" xmlns="http://www.w3.org/2000/svg" xmlns:xlink="http://www.w3.org/1999/xlink" x="0px" y="0px"
	 viewBox="0 0 150 150" style="enable-background:new 0 0 150 150;" xml:space="preserve">
<style type="text/css">
	.st0{fill:#3C4E5A;}
	.st1{fill:#00A9A8;}
</style>
<g>
	<g>
		<g>
			<g>
				<path class="st0" d="M127.8,70.9l-6.7-9.2c-0.4-0.6-0.5-1.4-0.1-2l6.6-9.3c0.6-0.8,0.3-2-0.6-2.5l-10.1-5.4
					c-0.6-0.3-1-1.1-0.9-1.8l1.9-11.2c0.2-1-0.6-1.9-1.6-2l-11.4-0.5c-0.7-0.1-1.4-0.5-1.6-1.2l-3.2-11c-0.3-1-1.4-1.5-2.3-1.1
					l-10.5,4.5c-0.7,0.3-1.5,0.1-1.9-0.4l-7.6-8.5c-0.7-0.7-1.9-0.7-2.6,0.1L67.7,18c-0.5,0.6-1.3,0.7-1.9,0.5l-10.5-4.3
					c-0.9-0.4-2,0.2-2.3,1.1l-3,11c-0.2,0.7-0.8,1.2-1.5,1.3L37,28.2c-1.1,0.1-1.8,1-1.6,2l2.1,11.2c0.2,0.7-0.2,1.5-0.8,1.8
					l-10,5.5c-0.9,0.5-1.2,1.7-0.6,2.5l6.7,9.2c0.4,0.6,0.5,1.4,0.1,2l-6.6,9.3c-0.6,0.8-0.3,2,0.6,2.5L37,79.6
					c0.6,0.3,1,1.1,0.9,1.8L36,92.6c-0.2,1,0.6,1.9,1.6,2L49,95.1c0.7,0.1,1.4,0.5,1.6,1.2l3.2,11c0.3,1,1.4,1.5,2.3,1.1l10.5-4.5
					c0.7-0.3,1.5-0.1,1.9,0.4l7.6,8.5c0.7,0.7,1.9,0.7,2.6-0.1l7.5-8.6c0.5-0.6,1.3-0.7,1.9-0.5l10.5,4.3c0.9,0.4,2-0.2,2.3-1.1
					l3-11c0.2-0.7,0.8-1.2,1.5-1.3l11.4-0.6c1.1-0.1,1.8-1,1.6-2l-2.1-11.2c-0.2-0.7,0.2-1.5,0.8-1.8l10-5.5
					C128.1,73,128.4,71.8,127.8,70.9z M77,92c-17,0-30.9-13.9-30.9-30.9S60,30.2,77,30.2S107.9,44,107.9,61C107.9,78.1,94,92,77,92z
					"/>
				<path class="st0" d="M104.8,111.9c-1.6,1.6-3.9,2.6-6.4,2.6c-0.9,0-1.7-0.2-2.6-0.4l-7.3-2.2l-5.6,5.1c-0.2,0.2-0.4,0.3-0.6,0.5
					l9,27.9c0.3,1,1.6,1.2,2.2,0.4l6.5-8.4c0.3-0.4,0.9-0.6,1.4-0.5l10.2,3c1,0.3,1.9-0.6,1.6-1.6L104.8,111.9z"/>
				<path class="st0" d="M65.4,112l-7.3,2.2c-0.8,0.3-1.7,0.4-2.6,0.4c-2.4,0-4.7-1-6.4-2.6l-8.6,26.5c-0.3,1,0.6,1.9,1.6,1.6
					l10.2-3c0.5-0.2,1.1,0.1,1.4,0.5l6.5,8.4c0.6,0.8,1.9,0.6,2.2-0.4l9-27.9c-0.2-0.2-0.4-0.3-0.6-0.5L65.4,112z"/>
			</g>
		</g>
		<path class="st1" d="M95.3,53.4l-11.6-0.8l-4.4-10.8c-0.8-2-3.7-2-4.5,0l-4.4,10.8l-11.6,0.8c-2.2,0.2-3.1,2.9-1.4,4.3l8.9,7.5
			l-2.8,11.3c-0.5,2.2,1.8,3.8,3.6,2.7l9.9-6.2l9.9,6.2c1.8,1.2,4.2-0.5,3.6-2.7l-2.8-11.3l8.9-7.5C98.4,56.3,97.5,53.5,95.3,53.4
			L95.3,53.4z"/>
	</g>
</g>
</svg>
