<?xml version="1.0" encoding="utf-8"?>
<!-- Generator: Adobe Illustrator 24.0.2, SVG Export Plug-In . SVG Version: 6.00 Build 0)  -->
<svg version="1.2" baseProfile="tiny" id="Layer_1" xmlns="http://www.w3.org/2000/svg" xmlns:xlink="http://www.w3.org/1999/xlink"
	 x="0px" y="0px" viewBox="0 0 300 80" xml:space="preserve">
<title>Cyprus Paradise approved logo</title>
<path fill="#2AAAA9" d="M149.9,8.4"/>
<path fill="#FFFFFF" d="M135.9,68.7c-0.5,0.5-0.9,0.9-1.4,1.3h102v-1.3H135.9z"/>
<path fill="#FFFFFF" d="M87.9,68.7H4.7V70h83.5C88,69.6,87.9,69.1,87.9,68.7z"/>
<path fill="#FFFFFF" d="M136.4,12.7c0.6,1.6,0.9,3.3,0.9,5.1c-0.1,4-1,8-2.8,11.7c-2,4.2-4.7,8.1-7.9,11.4c-2.8,3-6.1,5.5-9.6,7.5
	c-3.4,1.8-6.5,2.7-9.4,2.7c-3.2,0-5.8-0.9-7.6-2.6c-1.9-1.8-2.8-4.2-2.8-7.3c0-3.4,1.2-7,3.6-10.8c2.7-4.2,6.2-7.9,10.1-11
	c3.3-2.6,6.9-4.8,10.8-6.6c3.8-1.8,7.8-3.1,12-3.9C134.9,10,135.8,11.2,136.4,12.7L136.4,12.7z M121.6,74.2
	c11-6.1,18.7-16.9,22.9-24.1c2.5-4.1,4.9-8.3,9.1-15.7c7.1-12.4,12.8-20.2,16.9-23.3c2.3,1.3,4.2,3.1,5.5,5.4c1.3,2.2,2,4.7,2,7.3
	c0.1,5.4-1.8,10.7-5.3,14.9s-7.6,6.3-12.4,6.3c-2.2,0-4.4-0.5-6.3-1.5c-0.4-0.2-0.7-0.4-1.2-0.4c-0.1,0-0.3,0.1-0.4,0.2
	c-0.1,0.1-0.1,0.2-0.1,0.4c0,0.8,1.1,1.7,3.3,2.6c2.4,0.9,5,1.4,7.6,1.3c5.7,0,11.1-2.2,15.2-6.1c4.5-4,6.7-8.7,6.7-13.9
	c0-3.5-1.1-7-3.1-9.9c-2.1-3-5.1-5.7-9.2-8.2c1-0.7,2.1-1.3,3.2-1.9c1.2-0.6,1.8-1.1,1.8-1.5c0-0.1-0.1-0.2-0.2-0.3
	c-0.2-0.1-0.3-0.1-0.5-0.1c-0.6,0-2.1,0.7-4.4,2.1l-1.6,0.9c-6.2-2-12.7-3-19.2-3c-2.6,0-5.3,0.1-8.1,0.4s-5.7,0.7-8.9,1.2
	c-2-1.4-4.3-2.5-6.7-3.3c-2.5-0.7-5.1-1.1-7.7-1.1c-5.3,0-10.6,1.2-15.3,3.6c-5,2.5-9.4,6-13,10.2c-1.7,2-3.2,4.1-4.4,6.4
	c-1.2,2.2-1.7,3.8-1.7,4.7c0,0.2,0.1,0.4,0.1,0.6c0.1,0.1,0.2,0.1,0.4,0.1c0.3,0,0.9-1.1,2-3.2c3.6-7.2,9.4-13.2,16.5-17
	c4.6-2.5,9.8-3.9,15-3.9c2.2,0,4.3,0.3,6.4,0.8c2,0.6,3.8,1.4,5.5,2.5c-4,0.9-7.8,2.2-11.5,4s-7.2,4-10.5,6.5
	c-4.3,3.2-8,7.2-11,11.7c-2.7,4.3-4.1,8.3-4.1,11.9c0,3.8,1.2,6.8,3.5,8.9c2.3,2.2,5.6,3.2,9.7,3.2c4-0.1,8-1,11.6-2.7
	c4-1.7,7.7-4.2,10.8-7.2c3.3-3.1,5.9-6.8,7.8-11c1.8-3.8,2.7-8,2.8-12.3c0-2.4-0.4-4.7-1.1-6.9c-0.8-2.1-2-3.9-3.5-5.5
	c2.5-0.4,5-0.8,7.5-1s5.1-0.3,7.7-0.3c3,0,6,0.2,9,0.8c2.7,0.5,5.3,1.2,7.9,2.3c-5.6,3.8-10.8,8.2-15.3,13.3
	c-4.6,5.1-9.5,12.7-15.5,22.3c-5.6,9.1-9.9,16.3-17.1,22.6c-3.6,3.2-8.6,6.2-12.6,6.2c-1.8,0.1-3.7-0.3-5.3-1.2
	c-1.4-0.8-2.1-1.7-2.1-2.8c0.1-0.8,0.3-1.6,0.6-2.3c0.3-0.8,0.6-1.6,0.6-2.4c0-1.2-0.5-2.4-1.4-3.2c-0.9-0.9-2.1-1.4-3.3-1.4
	c-1.5,0-2.9,0.6-3.8,1.7c-1,1.2-1.6,2.7-1.5,4.3c0,2.6,1.3,4.7,3.9,6.5C108.6,82.2,121.6,74.1,121.6,74.2L121.6,74.2z"/>
<path fill="#FFFFFF" d="M185.8,39.8c-0.1,0-0.2,0.1-0.2,0.2l-1.2,3.2c-0.2,0.4-0.3,0.9-0.4,1.3c0,0.2,0.1,0.3,0.2,0.5
	c0.2,0.2,0.4,0.2,0.7,0.2h0.3c0.2,0,0.3,0.1,0.3,0.2c0,0.1-0.1,0.2-0.4,0.2l-2.3-0.1c-0.4,0-1.3,0-2.5,0.1c-0.3,0-0.4-0.1-0.4-0.2
	c0-0.1,0.1-0.2,0.3-0.2s0.4,0,0.6,0c0.5,0,0.9-0.3,1.2-0.6c0.2-0.2,0.3-0.4,0.4-0.6c0.1-0.2,0.2-0.5,0.3-0.7l5.4-13.7
	c0.2-0.6,0.4-0.9,0.6-0.9c0.2,0,0.4,0.2,0.6,0.7c1.3,3.4,3.1,7.9,5.4,13.5c0.3,0.7,0.6,1.3,1.1,1.9c0.2,0.2,0.5,0.4,0.8,0.5
	s0.6,0.1,0.9,0.1c0.2,0,0.3,0.1,0.3,0.2s-0.1,0.1-0.2,0.1c-0.3,0.1-0.5,0.1-0.8,0.1c-0.9,0-2.2,0-4.1,0c-0.4,0-0.6-0.1-0.6-0.2
	c0-0.1,0.1-0.2,0.3-0.2s0.3-0.2,0.2-0.5l-1.7-4.6c0-0.1-0.1-0.2-0.2-0.2L185.8,39.8z M190.2,38.7c0.1,0,0.1,0,0.1-0.1l-2-5.4
	c0-0.1-0.1-0.2-0.1-0.2c-0.1,0-0.1,0.1-0.1,0.2l-2,5.4c0,0.1,0,0.2,0.1,0.2h4V38.7z M203.7,35.3c0-2.9,0-4.4,0-4.6
	c0-0.3-0.1-0.6-0.2-0.9c-0.2-0.2-0.4-0.4-0.7-0.4s-0.6-0.1-0.8-0.1s-0.4-0.1-0.4-0.2s0.2-0.2,0.5-0.2c1.3,0,2.3,0,3,0.1
	c1.1,0,2.1,0,3-0.1c0.7,0,1.4,0,2.1,0.2c0.7,0.1,1.3,0.4,1.9,0.8c0.4,0.3,0.7,0.6,1,1.1c0.3,0.6,0.5,1.3,0.5,1.9
	c0,0.8-0.2,1.6-0.6,2.4c-0.6,1-1.4,1.8-2.3,2.5c1.9,2.5,3.4,4.4,4.7,5.8c0.4,0.5,1,0.9,1.6,1.2c0.3,0.1,0.6,0.2,0.9,0.3
	c0.2,0,0.4,0.1,0.6,0.1c0.2,0,0.3,0.1,0.3,0.2c0,0.1-0.1,0.2-0.4,0.2h-2.1c-0.5,0-0.9,0-1.4-0.1c-0.3,0-0.6-0.1-0.9-0.3
	c-0.8-0.5-1.8-1.5-3-3.2c-0.4-0.6-0.9-1.3-1.3-1.9c-0.3-0.4-0.6-0.8-0.9-1.2c-0.1-0.1-0.2-0.2-0.4-0.2h-1.9c-0.1,0-0.2,0.1-0.2,0.2
	v0.3c0,2.1,0,3.7,0.1,4.7c0,0.3,0.1,0.6,0.2,0.8c0.1,0.2,0.4,0.4,0.6,0.4c0.3,0,0.7,0.1,1.1,0.1c0.2,0,0.3,0.1,0.3,0.2
	s-0.1,0.2-0.4,0.2c-1.5,0-2.6,0-3.2-0.1l-2.6,0.1c-0.3,0-0.4-0.1-0.4-0.2s0.1-0.2,0.3-0.2c0.3,0,0.5,0,0.8-0.1
	c0.2-0.1,0.4-0.2,0.4-0.4c0.1-0.3,0.2-0.5,0.2-0.8c0.1-1,0.1-2.5,0.1-4.6L203.7,35.3L203.7,35.3z M206.2,37.1c0,0.2,0.1,0.3,0.2,0.4
	c0.5,0.2,1.1,0.2,1.6,0.2c0.3,0,0.7,0,1-0.1c0.2-0.1,0.4-0.2,0.6-0.3c0.4-0.3,0.7-0.7,0.9-1.2c0.3-0.7,0.4-1.4,0.4-2.1
	c0-0.7-0.1-1.3-0.3-2c-0.2-0.5-0.5-0.9-0.9-1.3c-0.3-0.3-0.7-0.5-1.1-0.6c-0.4-0.1-0.7-0.2-1.1-0.2c-0.4,0-0.8,0-1.1,0.1
	c-0.1,0-0.2,0.2-0.2,0.3l0,0L206.2,37.1L206.2,37.1z M224.5,39.8c-0.1,0-0.2,0.1-0.2,0.2l-1.2,3.2c-0.2,0.4-0.3,0.9-0.3,1.3
	c0,0.2,0.1,0.3,0.2,0.5c0.2,0.2,0.4,0.2,0.7,0.2h0.3c0.2,0,0.3,0.1,0.3,0.2s-0.1,0.2-0.4,0.2l-2.3-0.1c-0.4,0-1.3,0-2.5,0.1
	c-0.3,0-0.4-0.1-0.4-0.2s0.1-0.2,0.3-0.2s0.4,0,0.7,0c0.5,0,0.9-0.3,1.2-0.6c0.2-0.2,0.3-0.4,0.4-0.6c0.1-0.2,0.2-0.5,0.3-0.7
	l5.4-13.7c0.2-0.6,0.4-0.9,0.6-0.9c0.2,0,0.4,0.2,0.6,0.7c1.3,3.4,3.1,7.9,5.4,13.5c0.3,0.7,0.6,1.3,1.1,1.9
	c0.2,0.2,0.5,0.4,0.8,0.5s0.6,0.1,0.9,0.1c0.2,0,0.3,0.1,0.3,0.2s-0.1,0.1-0.2,0.1c-0.3,0.1-0.5,0.1-0.8,0.1c-0.9,0-2.2,0-4.1,0
	c-0.4,0-0.6-0.1-0.6-0.2c0-0.1,0.1-0.2,0.3-0.2s0.3-0.2,0.2-0.5l-1.7-4.6c0-0.1-0.1-0.2-0.2-0.2L224.5,39.8z M229,38.7
	c0.1,0,0,0.5-0.1,0.4l-1.8-6c0-0.1-0.1-0.2-0.1-0.2c-0.1,0-0.1,0.1-0.1,0.2l-2,5.4c0,0.1,0,0.2,0.1,0.2C225,38.7,229,38.7,229,38.7z
	 M242.4,35.3c0-2.9,0-4.4,0-4.6c0-0.3-0.1-0.6-0.2-0.9c-0.2-0.2-0.4-0.4-0.7-0.4s-0.6-0.1-0.8-0.1s-0.4-0.1-0.4-0.2s0.2-0.2,0.5-0.2
	c1.3,0,2.3,0,3.1,0.1l3.3-0.1c1.5,0,3,0.1,4.5,0.3c2.5,0.4,4.7,2,5.7,4.4c0.4,1.1,0.6,2.2,0.6,3.3c0,1.2-0.2,2.5-0.7,3.6
	c-0.4,0.9-1,1.8-1.7,2.5c-0.3,0.3-0.6,0.6-1,0.8c-0.5,0.3-1,0.6-1.5,0.9c-1.5,0.6-3.1,1-4.8,0.9c-0.8,0-1.6-0.1-2.5-0.1
	s-1.6-0.1-2.1-0.1l-2.7,0.1c-0.3,0-0.4-0.1-0.4-0.2s0.1-0.2,0.3-0.2c0.3,0,0.5,0,0.8-0.1c0.2-0.1,0.4-0.2,0.5-0.4
	c0.1-0.3,0.1-0.5,0.1-0.8c0.1-1,0.1-2.6,0.1-4.7L242.4,35.3L242.4,35.3z M245.1,37.7c0,2.4,0,3.9,0,4.4c0,0.3,0,0.6,0.1,0.9
	c0,0.3,0,0.5,0.1,0.7c0.2,0.3,0.6,0.5,0.9,0.6c0.6,0.2,1.3,0.3,1.9,0.3c2.1,0,3.8-0.5,5-1.6c0.7-0.6,1.2-1.5,1.4-2.4
	c0.3-1,0.4-2,0.4-3.1c0-1.2-0.2-2.4-0.7-3.5c-0.2-0.4-0.4-0.8-0.6-1.2c-0.2-0.3-0.5-0.6-0.7-0.8c-0.9-0.9-2-1.5-3.2-1.8
	c-1-0.2-2-0.4-3-0.4h-0.8c-0.2,0-0.4,0.1-0.6,0.1c-0.2,0.1-0.3,0.2-0.3,0.4c0,1,0,2.4,0,4.4L245.1,37.7L245.1,37.7z M263.2,35.3
	c0-2.9,0-4.4,0-4.6c0-0.7-0.3-1.1-0.7-1.2c-0.3-0.1-0.5-0.1-0.8-0.1c-0.2,0-0.3-0.1-0.3-0.2s0.2-0.2,0.5-0.2c1,0,2,0,2.8,0.1
	c0.7,0,1.6,0,2.6-0.1c0.3,0,0.4,0.1,0.5,0.2c0,0.1-0.1,0.2-0.4,0.2c-0.2,0-0.4,0-0.6,0.1c-0.2,0-0.5,0.2-0.6,0.4
	c-0.1,0.3-0.2,0.6-0.2,0.9s0,0.7,0,1.3s0,1.7,0,3.3v3.9c0,2.2,0,3.8,0.1,4.8c0,0.2,0.1,0.5,0.2,0.7c0.1,0.2,0.4,0.4,0.6,0.4
	c0.4,0.1,0.7,0.1,1.1,0.1c0.2,0,0.3,0.1,0.3,0.2c0,0.1-0.2,0.2-0.4,0.2l-3.4-0.1l-2.7,0.1c-0.3,0-0.4-0.1-0.4-0.2
	c0-0.1,0.1-0.2,0.3-0.2c0.3,0,0.5,0,0.8-0.1c0.4-0.1,0.6-0.4,0.6-1.1c0.1-1,0.1-2.6,0.1-4.8V35.3L263.2,35.3z M275.2,45.8
	c-1.1,0-2.2-0.2-3.2-0.6c-0.1-0.1-0.2-0.1-0.3-0.3c-0.1-0.2-0.1-0.3-0.1-0.5c0-1.4,0.1-2.3,0.1-2.9c0-0.4,0.1-0.6,0.2-0.6
	c0.1,0,0.2,0,0.2,0.1s0,0.2,0,0.3c0,0.4,0.1,0.8,0.2,1.1c0.2,0.7,0.6,1.3,1.3,1.7c0.6,0.3,1.2,0.5,1.9,0.5c0.8,0,1.6-0.3,2.2-0.8
	c0.4-0.4,0.7-1,0.7-1.7c0-0.3,0-0.6,0-0.8c-0.1-0.3-0.2-0.6-0.3-0.8c-0.4-0.7-1-1.4-1.7-1.9l-1-0.8c-1-0.7-1.8-1.6-2.5-2.6
	c-0.5-0.8-0.7-1.6-0.7-2.5c0-1.2,0.5-2.3,1.4-3c1-0.8,2.3-1.2,3.7-1.2c0.6,0,1.2,0,1.8,0.1c0.4,0.1,0.7,0.1,1.1,0.3
	c0.2,0,0.3,0.1,0.3,0.3c0,0.2,0,0.4,0,0.8s0,1,0,1.8c0,0.5-0.1,0.7-0.2,0.6c-0.1-0.1-0.2-0.1-0.2-0.4c0-0.2,0-0.4-0.1-0.6
	c-0.1-0.3-0.3-0.6-0.5-0.9s-0.5-0.5-0.8-0.7c-0.5-0.3-1-0.4-1.6-0.4c-0.7,0-1.4,0.2-1.9,0.6s-0.7,1-0.7,1.6c0,0.5,0.2,1,0.5,1.4
	c0.5,0.7,1.1,1.2,1.8,1.7l0.6,0.5c1.1,0.8,2,1.7,2.8,2.8c0.9,1.4,1,3.2,0.4,4.8c-0.4,0.7-0.9,1.4-1.6,1.8c-0.5,0.3-1.1,0.6-1.7,0.7
	C276.4,45.7,275.9,45.8,275.2,45.8L275.2,45.8z M286.3,35.3c0-2.9,0-4.4,0-4.6c0-0.3-0.1-0.6-0.2-0.9c-0.2-0.2-0.4-0.4-0.7-0.4
	c-0.3,0-0.6-0.1-0.8-0.1s-0.4-0.1-0.4-0.2s0.2-0.2,0.5-0.2c1.3,0,2.3,0,3.1,0.1c1.9,0,3.8,0,5.4,0c0.4,0,0.7-0.1,0.9-0.1
	c0.1,0,0.2-0.1,0.3-0.1c0.1,0,0.1,0.1,0.1,0.2s-0.1,0.5-0.2,1.4c0,0.5-0.1,0.9-0.1,1.4c0,0.1-0.1,0.2-0.2,0.2l0,0
	c-0.2,0-0.2-0.1-0.2-0.3c0-0.3-0.1-0.5-0.1-0.8c-0.1-0.2-0.2-0.4-0.4-0.5c-0.3-0.2-0.7-0.3-1.1-0.3c-0.2,0-0.7-0.1-1.5-0.1h-1.6
	c-0.1,0-0.1,0.1-0.1,0.2v5.5c0,0.2,0,0.2,0.1,0.2h1.8c0.8,0,1.4,0,1.7,0c0.4,0,0.7-0.1,1-0.3c0.2-0.2,0.3-0.3,0.4-0.3
	c0.1,0,0.1,0.1,0.1,0.2s-0.1,0.6-0.2,1.6c-0.1,0.6-0.1,1.1-0.1,1.5c0,0.1,0,0.2,0,0.3s-0.1,0.1-0.2,0.1l0,0c-0.1,0-0.2-0.1-0.2-0.2
	c0-0.3,0-0.5-0.1-0.8c0-0.2-0.2-0.4-0.3-0.6c-0.3-0.2-0.6-0.3-0.9-0.3s-0.8-0.1-1.5-0.1H289c-0.1,0-0.1,0.1-0.1,0.2v1.7
	c0,1.2,0,2.3,0,3.4c-0.1,0.5,0.1,1.1,0.5,1.5c0.7,0.3,1.4,0.5,2.1,0.4c0.3,0,0.6,0,1,0c0.4,0,0.7-0.1,1-0.2c0.6-0.3,1-0.9,1-1.6
	c0-0.1,0-0.2,0.1-0.3c0,0,0.1-0.1,0.2-0.1c0.1,0,0.2,0.1,0.2,0.4c0,0.4,0,0.8-0.1,1.2c0,0.4-0.1,0.8-0.2,1.2
	c-0.1,0.3-0.2,0.4-0.3,0.5c-0.3,0.1-0.6,0.1-0.8,0.1c-3,0-5-0.1-6-0.1l-2.7,0.1c-0.3,0-0.4-0.1-0.4-0.2s0.1-0.2,0.3-0.2
	c0.3,0,0.5,0,0.8-0.1c0.2-0.1,0.4-0.2,0.4-0.4c0.1-0.3,0.2-0.5,0.2-0.8c0.1-1,0.1-2.5,0.1-4.7L286.3,35.3L286.3,35.3z"/>
<path fill="#FFFFFF" d="M17.8,45.8c-3.9,0-7.1-1-9.6-3.1c-1.3-1.1-2.2-2.5-2.8-4.1c-0.5-1.4-0.7-2.8-0.7-4.3c0-1.3,0.2-2.5,0.6-3.7
	c0.5-1.6,1.4-3,2.6-4.1c1.1-1,2.3-1.7,3.6-2.2c1.7-0.6,3.4-0.9,5.2-0.8c1.4,0,2.7,0.1,4.1,0.3c0.5,0.1,1.1,0.1,1.5,0.2
	c0.5,0.1,0.9,0.2,1.3,0.3c0.3,0,0.4,0.1,0.4,0.3s-0.1,0.6-0.1,1.6c0,1.2-0.1,2.2-0.1,3.1c0,0.4-0.1,0.6-0.3,0.6
	c-0.2,0-0.3-0.2-0.3-0.6c0-1-0.4-1.9-1.1-2.6c-1.1-1.1-3-1.7-5.7-1.8c-2.4,0-4.1,0.6-5.3,1.8c-1,0.9-1.7,2.1-2.1,3.3
	c-0.4,1.3-0.6,2.7-0.5,4c0.2,3.4,1.2,5.9,3.2,7.6c1.9,1.7,3.8,2.5,5.8,2.5c2.4,0.1,4.1-0.5,5.2-1.6c0.5-0.5,0.8-1.2,1-1.9
	c0.1-0.4,0.2-0.6,0.4-0.6s0.3,0.2,0.3,0.4c0,0.5-0.1,1.1-0.2,1.6c-0.1,0.9-0.3,1.6-0.4,2.1c0,0.2-0.1,0.4-0.2,0.5
	c-0.1,0.2-0.3,0.3-0.5,0.3c-0.7,0.2-1.5,0.4-2.3,0.5C19.6,45.7,18.7,45.8,17.8,45.8L17.8,45.8L17.8,45.8z M32.4,39.8
	c0-0.5,0-0.9-0.1-1.4c-0.1-0.3-0.2-0.6-0.4-0.9c-0.1-0.3-0.3-0.7-0.5-1c-0.3-0.5-0.7-1.2-1.2-1.9c-0.9-1.5-1.7-2.7-2.1-3.4
	c-0.4-0.6-0.9-1.2-1.5-1.6c-0.3-0.2-0.6-0.3-0.9-0.3c-0.2,0-0.3-0.1-0.3-0.2s0.2-0.2,0.4-0.2l2.7,0.1c0.2,0,0.6,0,1,0s0.8,0,1.3,0
	c0.2,0,0.3,0.1,0.3,0.2s-0.2,0.2-0.5,0.2c-0.2,0-0.3,0.2-0.3,0.4c0,0.3,0.1,0.5,0.3,0.7c0.1,0.2,0.3,0.6,0.7,1.2
	c0.4,0.6,0.7,1.3,1.1,2.1c0.9,1.7,1.6,2.8,1.8,3.3c0.1-0.2,0.3-0.5,0.6-1.1c0.3-0.5,0.6-1.2,1-1.9c0.8-1.5,1.4-2.6,1.6-3.1
	c0.2-0.4,0.3-0.8,0.3-1.2c0-0.1,0-0.2-0.1-0.4c-0.1-0.1-0.2-0.2-0.4-0.2s-0.4-0.1-0.4-0.2s0.1-0.2,0.4-0.2c0.7,0,1.4,0,2,0.1
	c0.8,0,1.6,0,2.3-0.1c0.2,0,0.4,0.1,0.4,0.2s-0.2,0.2-0.4,0.2c-0.3,0-0.7,0.1-0.9,0.3c-0.5,0.3-0.9,0.6-1.2,1.1
	c-0.4,0.6-1.2,1.8-2.2,3.4c-0.5,0.8-0.9,1.5-1.2,2.2c-0.3,0.4-0.5,0.9-0.7,1.4c-0.1,0.2-0.1,0.4-0.2,0.5c0,0.2-0.1,0.4-0.1,0.6
	c0,0.4,0,0.7,0,1.1v1.8c0,0.4,0,1.2,0.1,2.2c0,0.3,0.1,0.6,0.2,0.8c0.1,0.2,0.4,0.4,0.6,0.4c0.5,0,0.8,0,1.2,0
	c0.2,0,0.3,0.1,0.3,0.2s-0.2,0.2-0.5,0.2l-3.2-0.1L31,45.4c-0.3,0-0.5-0.1-0.5-0.2s0.1-0.2,0.3-0.2c0.3,0,0.5,0,0.8-0.1
	c0.2-0.1,0.4-0.2,0.5-0.4c0.1-0.3,0.2-0.5,0.2-0.8c0-1,0.1-1.7,0.1-2.2l0,0L32.4,39.8L32.4,39.8z M48,35.2c0-2.9,0-4.4,0-4.6
	c0-0.3-0.1-0.6-0.2-0.9c-0.2-0.2-0.4-0.4-0.7-0.4s-0.6-0.1-0.8-0.1s-0.4-0.1-0.4-0.2s0.2-0.2,0.5-0.2c1.3,0,2.3,0,3.1,0.1
	c1,0,2,0,3.2-0.1c0.6,0,1.2,0,1.8,0.1c0.4,0.1,0.8,0.2,1.2,0.4c0.3,0.1,0.5,0.2,0.7,0.4c0.1,0.1,0.3,0.2,0.4,0.4
	c0.3,0.3,0.6,0.6,0.7,1c0.2,0.5,0.3,1,0.3,1.6c0,1.4-0.5,2.8-1.5,3.8S53.9,38,52.5,38c-0.1,0-0.3,0-0.5,0s-0.3-0.1-0.3-0.2
	c0-0.1,0.1-0.2,0.2-0.2c0.1,0,0.3,0,0.5,0c0.7-0.1,1.4-0.4,1.9-1c0.7-0.7,1-1.7,1-2.6c0-0.2,0-0.4,0-0.7s-0.1-0.5-0.2-0.8
	c-0.1-0.3-0.2-0.6-0.4-0.9c-0.5-0.7-1.1-1.3-1.9-1.6c-0.3-0.1-0.7-0.1-1-0.1s-0.6,0-0.8,0.1c-0.1,0-0.2,0.2-0.2,0.4v8.8
	c0,2.1,0,3.7,0.1,4.7c0,0.3,0.1,0.5,0.2,0.8c0.1,0.2,0.4,0.4,0.6,0.4c0.4,0.1,0.7,0.1,1.1,0.1c0.2,0,0.3,0.1,0.3,0.2
	s-0.2,0.2-0.4,0.2l-3.4-0.1l-2.7,0.1c-0.3,0-0.4-0.1-0.4-0.2c0-0.1,0.1-0.2,0.3-0.2c0.3,0,0.5,0,0.8-0.1c0.2-0.1,0.4-0.2,0.4-0.4
	c0.1-0.3,0.2-0.5,0.2-0.8c0.1-1,0.1-2.5,0.1-4.6L48,35.2L48,35.2z M81.2,35.2c0-2.9,0-4.4,0-4.7c0-0.3-0.1-0.6-0.2-0.9
	c-0.2-0.2-0.5-0.4-0.8-0.4s-0.6-0.1-0.8-0.1c-0.2,0-0.4-0.1-0.4-0.2s0.2-0.2,0.5-0.2c1.3,0,2.3,0,3.2,0.1s1.7,0,2.7-0.1
	c0.3,0,0.5,0.1,0.5,0.2s-0.1,0.2-0.3,0.2c-0.2,0-0.4,0-0.6,0.1c-0.2,0-0.5,0.2-0.6,0.4c-0.1,0.3-0.2,0.6-0.2,0.9s0,0.7,0,1.3
	c0,0.6,0,1.7,0,3.3v3.1c-0.1,1.2,0.1,2.4,0.5,3.5c0.2,0.7,0.6,1.4,1.2,1.9c0.2,0.2,0.5,0.3,0.8,0.5c0.2,0.1,0.5,0.2,0.7,0.3
	s0.4,0.1,0.6,0.1s0.4,0,0.6,0c0.5,0,1-0.1,1.5-0.3s1-0.5,1.5-0.9c0.6-0.6,1-1.5,1.1-2.3c0.1-1,0.2-2.1,0.2-3.1v-2.7
	c0-2.9,0-4.4,0-4.7c0-0.3-0.1-0.6-0.2-0.9c-0.2-0.3-0.5-0.4-0.8-0.4s-0.5-0.1-0.8-0.1c-0.2,0-0.4-0.1-0.4-0.2s0.2-0.2,0.5-0.2
	c1.4,0,2.2,0,2.5,0.1h1c0.5,0,1,0,1.4,0c0.3,0,0.4,0.1,0.4,0.2s-0.1,0.2-0.4,0.2c-0.2,0-0.4,0-0.6,0.1c-0.2,0-0.5,0.1-0.6,0.4
	c-0.2,0.3-0.2,0.6-0.2,0.9s0,0.7,0,1.3s0,1.7,0,3.3v2.3c0,1.2-0.1,2.4-0.3,3.6c-0.2,1.2-0.8,2.2-1.7,3c-0.7,0.6-1.4,1-2.3,1.3
	c-0.7,0.2-1.5,0.3-2.2,0.3s-1.5-0.1-2.2-0.2c-1-0.2-1.8-0.6-2.6-1.3c-0.6-0.6-1.1-1.3-1.4-2.1c-0.4-1.2-0.6-2.4-0.6-3.7v-3.2H81.2z
	 M104.5,45.7c-1.1,0-2.2-0.2-3.2-0.6c-0.1-0.1-0.2-0.1-0.3-0.3c-0.1-0.2-0.1-0.3-0.1-0.5c0-1.4,0-2.3,0.1-2.9c0-0.4,0.1-0.6,0.2-0.6
	c0.2,0,0.2,0,0.2,0.1s0,0.2,0,0.3c0,0.4,0.1,0.8,0.2,1.1c0.2,0.7,0.6,1.3,1.3,1.7c0.6,0.3,1.2,0.5,1.9,0.5c0.8,0,1.6-0.3,2.2-0.8
	c0.4-0.4,0.7-1,0.7-1.7c0-0.3,0-0.6,0-0.8c-0.1-0.3-0.2-0.6-0.3-0.8c-0.4-0.7-1-1.4-1.7-1.9l-1-0.8c-1-0.7-1.8-1.6-2.5-2.6
	c-0.5-0.8-0.7-1.6-0.7-2.5c0-1.2,0.5-2.3,1.4-3c1-0.8,2.3-1.2,3.6-1.1c0.6,0,1.2,0,1.8,0.1c0.4,0.1,0.7,0.1,1.1,0.3
	c0.2,0,0.3,0.1,0.3,0.3c0,0.2,0,0.4,0,0.8s0,1,0,1.8c0,0.5-0.1,0.7-0.2,0.6c-0.2,0-0.2-0.1-0.2-0.4c0-0.2,0-0.4-0.1-0.6
	c-0.2-0.6-0.7-1.2-1.3-1.6c-0.5-0.3-1-0.4-1.6-0.4c-0.7,0-1.4,0.2-1.9,0.6s-0.7,1-0.7,1.6c0,0.5,0.2,1,0.5,1.4
	c0.5,0.7,1.1,1.2,1.8,1.7l0.6,0.5c1.1,0.8,2,1.7,2.8,2.8c0.5,0.9,0.8,1.8,0.8,2.8c0,0.7-0.1,1.3-0.4,2c-0.4,0.7-0.9,1.4-1.6,1.8
	c-0.5,0.3-1.1,0.6-1.7,0.7C105.7,45.6,105.1,45.7,104.5,45.7L104.5,45.7z M64,35.2c0-2.9,0-4.4,0-4.6c0-0.3-0.1-0.6-0.2-0.9
	c-0.2-0.2-0.4-0.4-0.7-0.4s-0.6-0.1-0.8-0.1s-0.4-0.1-0.4-0.2s0.2-0.2,0.5-0.2c1.3,0,2.3,0,3,0.1c1.1,0,2.1,0,3-0.1
	c0.7,0,1.4,0,2.1,0.2c0.7,0.1,1.3,0.4,1.9,0.8c0.4,0.3,0.7,0.6,1,1.1c0.3,0.6,0.5,1.3,0.5,1.9c0,0.8-0.2,1.6-0.6,2.4
	c-0.6,1-1.4,1.8-2.3,2.5c1.9,2.5,3.5,4.4,4.7,5.8c0.4,0.5,1,0.9,1.6,1.2c0.3,0.1,0.6,0.2,0.9,0.3c0.2,0,0.4,0.1,0.6,0.1
	s0.3,0.1,0.3,0.2c0,0.1-0.1,0.2-0.4,0.2h-2.1c-0.5,0-0.9,0-1.4-0.1c-0.3,0-0.6-0.1-0.9-0.3c-0.9-0.5-1.8-1.6-3-3.2
	c-0.4-0.6-0.9-1.3-1.3-1.9c-0.3-0.4-0.6-0.8-0.9-1.2c-0.1-0.1-0.2-0.2-0.4-0.2h-1.9c-0.1,0-0.2,0-0.2,0.1c0,0,0,0,0,0.1V39
	c0,2.1,0,3.7,0.1,4.7c0,0.3,0.1,0.5,0.2,0.8c0.1,0.2,0.4,0.4,0.6,0.4c0.4,0,0.7,0.1,1.1,0.1c0.2,0,0.3,0.1,0.3,0.2s-0.1,0.2-0.4,0.2
	c-1.5,0-2.6,0-3.2-0.1l-2.6,0.1c-0.3,0-0.4-0.1-0.4-0.2s0.1-0.2,0.3-0.2c0.3,0,0.5,0,0.8-0.1c0.2,0,0.4-0.2,0.5-0.4
	c0.1-0.3,0.2-0.5,0.2-0.8c0.1-1,0.1-2.5,0.1-4.6L64,35.2L64,35.2z M66.5,36.9c0,0.2,0.1,0.3,0.2,0.4c0.5,0.2,1.1,0.2,1.6,0.2
	c0.3,0,0.7,0,1-0.1c0.2-0.1,0.4-0.2,0.6-0.3c0.4-0.3,0.7-0.7,0.9-1.2c0.3-0.7,0.4-1.4,0.4-2.1c0-0.7-0.1-1.3-0.3-2
	c-0.3-0.9-1-1.6-1.9-1.9c-0.4-0.1-0.7-0.2-1.1-0.2s-0.8,0-1.1,0.1c-0.1,0-0.2,0.2-0.2,0.3l0,0L66.5,36.9L66.5,36.9z"/>
<path fill="#FFFFFF" d="M294.7,67.8c-0.5,1-0.7,1.1-1.5,1.1h-3l2.2-2.4c1.5-1.6,2.1-2.5,2.1-3.9s-1.1-2.6-2.5-2.7h-0.1
	c-0.8,0-1.6,0.3-2.1,0.9l-0.9,1.3l0.3,0.3c0.4-0.6,1.1-1.5,2.2-1.5c1.1,0,1.9,0.8,1.9,2.1s-1,2.7-2,3.8c-0.8,0.9-1.7,1.8-2.5,2.7V70
	h5.9c0.2-0.7,0.3-1.4,0.6-2.1L294.7,67.8z M284.1,60.5c1.6,0,2,2,2,3.4c0,0.3,0,0.7-0.1,1c-0.4,0.3-0.9,0.4-1.4,0.4
	c-1.3,0-2.1-1.2-2.1-2.6C282.4,61.8,282.9,60.5,284.1,60.5 M284.3,60c-1.8,0.1-3.3,1.6-3.3,3.4c-0.1,1.5,1.1,2.8,2.6,2.9
	c0.1,0,0.2,0,0.2,0c0.3,0,0.7-0.1,1-0.2l1.1-0.6c-0.4,2.3-2.2,4-4.5,4.4l0.1,0.5c0.8-0.1,1.5-0.2,2.2-0.5c2.4-1,3.8-3.3,3.7-5.9
	C287.5,61.8,286.4,59.9,284.3,60 M276.5,60.5c1.6,0,2,2,2,3.4c0,0.3,0,0.7-0.1,1c-0.4,0.3-0.9,0.4-1.4,0.4c-1.3,0-2.1-1.2-2.1-2.6
	C274.9,61.8,275.3,60.5,276.5,60.5 M276.8,59.9c-1.8,0.1-3.3,1.6-3.3,3.4c-0.1,1.5,1.1,2.8,2.6,2.9c0.1,0,0.2,0,0.2,0
	c0.3,0,0.7-0.1,0.9-0.2l1.1-0.6c-0.4,2.3-2.2,4-4.5,4.4l0.1,0.5c0.8-0.1,1.5-0.2,2.2-0.5c2.4-1,3.8-3.3,3.7-5.9
	C279.9,61.8,278.7,59.9,276.8,59.9 M271.4,70v-0.4c-1.4-0.1-1.5-0.2-1.5-1.4V60c-0.9,0.4-1.9,0.7-2.8,0.8v0.4h0.8
	c0.7,0,0.8,0.1,0.8,0.9v6.1c0,1.1-0.1,1.3-1.5,1.4V70H271.4z M263.5,70.2c0.5,0,0.9-0.3,0.9-0.8v-0.1c0-0.5-0.4-0.9-0.9-0.9
	s-0.9,0.4-0.9,0.9l0,0C262.6,69.8,262.9,70.2,263.5,70.2C263.4,70.2,263.4,70.2,263.5,70.2 M261.6,69.5l-0.1-0.4
	c-0.3,0.2-0.6,0.3-1,0.3c-0.4,0-0.9-0.2-0.9-1.5v-4.1h1.7c0.2-0.1,0.3-0.4,0.1-0.6l0,0h-1.8V61h-0.2l-1,1.1v1.1h-0.8l-0.4,0.5
	l0.1,0.2h1.1v4.6c0,1.3,0.6,1.9,1.6,1.9c0.2,0,0.5-0.1,0.7-0.2L261.6,69.5z M256.1,64.9c-0.1-0.6-0.2-1.1-0.3-1.7
	c-0.4-0.2-0.9-0.3-1.4-0.3c-1.5,0-2.4,0.9-2.4,2.1s1,1.7,2,2.2c0.8,0.4,1.3,0.7,1.3,1.4c0,0.6-0.5,1.1-1.1,1.1c0,0,0,0-0.1,0
	c-0.9,0-1.7-0.9-1.9-2l-0.4,0.1c0,0.6,0.1,1.3,0.3,1.9c0.5,0.4,1.2,0.6,1.8,0.5c1.3,0,2.6-0.7,2.6-2.2c0-1.1-0.8-1.7-2-2.2
	c-0.7-0.3-1.3-0.6-1.3-1.4c0-0.6,0.4-1.1,0.9-1.1h0.1c0.8,0,1.3,0.6,1.6,1.6H256.1z M250.2,67.5c-0.2,0.5-0.4,1-0.8,1.5
	c-0.3,0.4-0.8,0.5-2,0.5c-0.6,0.1-1.1,0-1.7-0.2c-0.3-0.2-0.4-0.5-0.4-1.3v-3h1.5c1.4,0,1.5,0.1,1.7,1.2h0.5v-3h-0.5
	c-0.2,1.1-0.3,1.2-1.7,1.2h-1.5v-3.6c0-0.5,0-0.5,0.5-0.5h1.2c1.1,0,1.6,0.1,1.8,0.5s0.4,0.9,0.5,1.4l0.5-0.1c0-0.8-0.1-1.9-0.1-2.3
	h-7.1v0.4c1.3,0.1,1.4,0.2,1.4,1.6v6.3c0,1.3-0.1,1.4-1.6,1.5V70h7.6c0.1-0.5,0.5-2,0.6-2.5H250.2z"/>
</svg>
