<?xml version="1.0" encoding="utf-8"?>
<!-- Generator: Adobe Illustrator 24.2.1, SVG Export Plug-In . SVG Version: 6.00 Build 0)  -->
<svg version="1.1" id="Layer_1" xmlns="http://www.w3.org/2000/svg" xmlns:xlink="http://www.w3.org/1999/xlink" x="0px" y="0px"
	 viewBox="0 0 150 150" style="enable-background:new 0 0 150 150;" xml:space="preserve">
<style type="text/css">
	.st0{fill:#3C4E5A;}
</style>
<g>
	<g>
		<path class="st0" d="M87.8,46.2c3.4,0,6.7,0,10.1,0c-0.4-5.9-2.6-11-6.8-15.3c-1.8,1.6-3.8,2.8-6.1,3.8
			C86.6,38.3,87.5,42.1,87.8,46.2z"/>
		<path class="st0" d="M75.9,36.8c0,3.2,0,6.3,0,9.4c3.3,0,6.7,0,10.1,0c-0.1-3.8-0.9-7.4-2.5-10.9C81,36.1,78.5,36.6,75.9,36.8z"/>
		<path class="st0" d="M38.6,117.7c2.3-4.6,4.6-9.3,6.9-13.9c2.5-5.1,5-10.2,7.5-15.3c0.1-0.3,0.3-0.4,0.6-0.4c2.9,0,5.8,0,8.6,0
			c0.3,0,0.5,0.1,0.5,0.4c1.7,8.4,3.4,16.7,5.1,25.1c0.3,1.3,0.6,2.7,0.8,4c-2.9,0-5.9,0-8.9,0c-0.2-1.1-0.4-2.2-0.5-3.2
			c0-0.3-0.2-0.4-0.4-0.4c-3,0-5.9,0-8.9,0c-0.2,0-0.4,0.1-0.4,0.3c-0.4,1-0.9,2-1.3,3c0,0.1,0,0.2,0,0.2
			C45,117.7,41.8,117.7,38.6,117.7z M58.2,108c-0.5-3.6-1.1-7.2-1.6-10.8c0,0-0.1,0-0.1,0c-1.5,3.6-3,7.2-4.5,10.8
			C54.1,108,56.2,108,58.2,108z"/>
		<path class="st0" d="M96.5,117.7c0.4-0.7,0.7-1.3,1-2c4.4-9,8.9-18.1,13.3-27.1c0.2-0.4,0.4-0.5,0.7-0.5c2.8,0,5.7,0,8.5,0
			c0.3,0,0.5,0.1,0.5,0.4c1.5,7.5,3,15.1,4.6,22.6c0.4,2.1,0.9,4.2,1.3,6.3c0,0.1,0,0.2,0,0.3c-3,0-6,0-9,0
			c-0.1-1.1-0.3-2.2-0.4-3.3c0-0.2-0.1-0.3-0.3-0.3c-3,0-6,0-9,0c-0.1,0-0.3,0.1-0.4,0.2c-0.5,1.1-0.9,2.2-1.4,3.3
			C102.9,117.7,99.7,117.7,96.5,117.7z M116.2,108c-0.5-3.6-1.1-7.2-1.6-10.8c0,0-0.1,0-0.1,0c-1.5,3.6-3,7.2-4.5,10.8
			C112.1,108,114.1,108,116.2,108z"/>
		<path class="st0" d="M77.6,117.7c1.1-7.4,2.2-14.8,3.3-22.3c-2.8,0-5.6,0-8.5,0c0.1-0.7,0.2-1.3,0.4-1.9c0.3-1.7,0.7-3.4,1-5.2
			c0.1-0.3,0.2-0.4,0.5-0.4c8.3,0,16.7,0,25,0c0.1,0,0.3,0,0.4,0c-0.5,2.5-0.9,4.9-1.4,7.4c-2.7,0-5.3,0-8.1,0
			c-0.1,0.9-0.2,1.7-0.4,2.5c-0.3,2.3-0.7,4.5-1,6.8c-0.3,2.1-0.6,4.1-0.9,6.2c-0.3,2.3-0.7,4.5-1,6.8
			C83.9,117.7,80.7,117.7,77.6,117.7z"/>
		<path class="st0" d="M23,117.6c0.2-1.2,0.5-2.4,0.7-3.6c0.9-4.3,1.7-8.6,2.6-12.9c0.9-4.2,1.7-8.5,2.6-12.7c0-0.3,0.2-0.3,0.4-0.3
			c1.8,0,9,0,9.2,0c-0.2,0.7-0.3,1.4-0.4,2c-0.8,4.2-1.7,8.4-2.5,12.6c-0.9,4.3-1.7,8.6-2.6,12.9c-0.1,0.6-0.2,1.3-0.4,1.9
			C29.4,117.6,26.2,117.6,23,117.6z"/>
		<path class="st0" d="M102.3,54.7c15.1,0,30.2,0,45.4,0c-0.5,0.7-0.9,1.3-1.3,1.9c-0.8,1.1-1.7,2-2.9,2.8c-0.8,0.5-1.7,0.8-2.6,0.8
			c-10.6,0-21.1,0-31.7,0c-0.3,0-0.7,0-1,0.1c-0.3,0.1-0.6,0.3-0.6,0.7c0,0.4,0.2,0.6,0.5,0.7c0.3,0.1,0.6,0.2,1,0.2
			c5.4,0,10.7,0,16.1,0c5,0,9.9,0,14.8,0c0.2,0,0.3,0,0.5,0c-0.2,0.3-0.3,0.5-0.4,0.7c-0.8,1.4-1.8,2.6-3.1,3.6
			c-1.1,0.9-2.3,1.3-3.7,1.3c-9.4,0-18.7,0-28.1,0c-0.4,0-0.7,0.1-1,0.2c-0.6,0.3-0.6,0.9,0,1.2c0.3,0.2,0.7,0.2,1,0.2
			c9.2,0,18.5,0,27.8,0c0.2,0,0.3,0,0.6,0c-0.2,0.3-0.4,0.6-0.6,0.9c-0.9,1.4-2.1,2.6-3.5,3.5c-1.2,0.8-2.6,1.2-4,1.2
			c-7.9,0-15.9,0-23.8,0c-0.3,0-0.7,0-1,0.1c-0.3,0.1-0.6,0.2-0.6,0.6c0,0.4,0.2,0.6,0.5,0.7c0.4,0.1,0.7,0.2,1.1,0.2
			c6.3,0,12.5,0,18.7,0c1.8,0,3.6,0,5.3,0c0.2,0,0.3,0,0.5,0c0,0.1,0,0.2,0,0.2c-1.3,2.4-3.1,4.2-5.7,5.1c-0.7,0.2-1.4,0.3-2.1,0.3
			c-8.3,0-16.5,0-24.7,0c-2.9,0-5.3-1.3-7.4-3.2c-1.2-1.1-2.1-2.4-2.7-3.9c0-0.1-0.1-0.3-0.2-0.4c0.3-0.1,0.6-0.2,0.8-0.4
			c3.7-1.7,7.2-3.6,10.3-6.3c4-3.5,6.6-7.8,7.7-13C102.2,54.9,102.3,54.8,102.3,54.7z"/>
		<path class="st0" d="M2.3,54.7c15.1,0,30.2,0,45.3,0c0.2,0.8,0.4,1.7,0.7,2.4c1.5,4.8,4.3,8.6,8.1,11.7c2.9,2.4,6.1,4.1,9.5,5.6
			c0.2,0.1,0.4,0.2,0.7,0.3c-0.2,0.5-0.4,1.1-0.7,1.5c-1.8,3.1-4.6,5.2-8.2,5.9c-0.6,0.1-1.3,0.1-1.9,0.1c-7.8,0-15.7,0-23.5,0
			c-2.9,0-5.2-1.2-7.1-3.3c-0.5-0.6-0.9-1.2-1.3-1.8c-0.1-0.1-0.2-0.3-0.2-0.5c0.2,0,0.4,0,0.6,0c8,0,16,0,24,0
			c0.4,0,0.8-0.1,1.2-0.3c0.3-0.1,0.5-0.4,0.4-0.7c0-0.3-0.3-0.5-0.6-0.6C49,75,48.6,75,48.2,75c-7.8,0-15.6,0-23.4,0
			c-2.5,0-4.5-0.9-6.2-2.6c-0.7-0.8-1.4-1.7-2-2.6c-0.1-0.1-0.2-0.2-0.2-0.4c0.2,0,0.4,0,0.5,0c9.3,0,18.5,0,27.8,0
			c0.4,0,0.8-0.1,1.1-0.3c0.5-0.3,0.5-0.8,0-1.1c-0.3-0.2-0.6-0.3-0.9-0.3c-0.6,0-1.2,0-1.8,0c-8.8,0-17.5,0-26.3,0
			c-1.6,0-2.9-0.5-4-1.5c-1.3-1.1-2.3-2.4-3.1-3.9c0-0.1,0-0.1-0.1-0.2c0.2,0,0.3,0,0.5,0c10.3,0,20.6,0,30.9,0
			c0.4,0,0.7-0.1,1.1-0.3c0.2-0.1,0.4-0.4,0.4-0.7c0-0.3-0.2-0.6-0.6-0.6c-0.3-0.1-0.7-0.2-1-0.2c-10.4,0-20.8,0-31.1,0
			c-1.8,0-3.2-0.6-4.4-1.7c-1.1-1.1-2.1-2.3-2.9-3.7C2.4,54.8,2.4,54.7,2.3,54.7z"/>
		<path class="st0" d="M59,63.3c-4.2-4.3-6.4-9.4-6.8-15.3c3.3,0,6.7,0,10.1,0c0.1,0.8,0.2,1.5,0.2,2.3c0.4,3,1.1,5.9,2.3,8.7
			c0,0,0,0.1,0.1,0.2c0.2,0.3,0.1,0.4-0.2,0.6c-1.7,0.8-3.4,1.8-4.9,2.9C59.5,62.8,59.3,63,59,63.3z"/>
		<path class="st0" d="M62.3,46.2c-3.4,0-6.7,0-10.1,0c0.4-5.9,2.6-11,6.8-15.3c1.8,1.6,3.8,2.8,6.1,3.8
			C63.4,38.3,62.5,42.1,62.3,46.2z"/>
		<path class="st0" d="M90.9,63.3c-1.8-1.5-3.8-2.8-5.9-3.8c1.6-3.7,2.6-7.5,2.7-11.6c3.3,0,6.6,0,10,0C97.4,53.9,95.1,59,90.9,63.3
			z"/>
		<path class="st0" d="M74.2,36.8c0,3.2,0,6.3,0,9.4c-3.3,0-6.7,0-10.1,0c0.1-3.8,0.9-7.4,2.5-10.9C69,36.1,71.5,36.6,74.2,36.8z"/>
		<path class="st0" d="M66.6,58.8c-1.3-2.4-2.7-8.3-2.5-10.9c3.3,0,6.6,0,10,0c0,3.1,0,6.3,0,9.4C71.6,57.4,69,57.9,66.6,58.8z"/>
		<path class="st0" d="M75.8,57.3c0-3.2,0-6.3,0-9.4c3.3,0,6.6,0,10,0c0,3.8-0.9,7.4-2.5,10.9C80.9,58,78.4,57.4,75.8,57.3z"/>
		<path class="st0" d="M77.5,24.6c4.5,0.6,8.6,2.2,12.2,5.1c-1.7,1.5-3.5,2.6-5.5,3.5C82.4,29.9,80.2,27.1,77.5,24.6z"/>
		<path class="st0" d="M72.3,24.5c-1.2,1.3-2.4,2.6-3.6,4c-1.2,1.4-2.1,2.9-3,4.6c-2-0.8-3.8-2-5.5-3.5
			C62.4,27.4,68.7,24.8,72.3,24.5z"/>
		<path class="st0" d="M77.5,69.6c2.7-2.5,5-5.3,6.7-8.5c2,0.8,3.8,2,5.5,3.4C86.1,67.3,82,68.9,77.5,69.6z"/>
		<path class="st0" d="M60.3,64.4c1.7-1.3,3.4-2.6,5.5-3.4c1.7,3.2,4,6.1,6.6,8.5c-0.7,0.2-4.5-0.8-6.4-1.7
			C63.9,66.9,61.5,65.5,60.3,64.4z"/>
		<path class="st0" d="M74.1,35.1c-2.3,0-4.5-0.6-6.7-1.3c1.7-3.2,3.9-5.9,6.7-8.3C74.1,28.7,74.1,31.8,74.1,35.1z"/>
		<path class="st0" d="M74.1,68.6c-2.8-2.3-5-5.1-6.7-8.3c2.2-0.8,4.4-1.2,6.7-1.2C74.1,62.3,74.1,65.4,74.1,68.6z"/>
		<path class="st0" d="M75.9,25.5c2.8,2.4,5,5,6.6,8.3c-2.2,0.8-4.3,1.3-6.6,1.3C75.9,31.9,75.9,28.7,75.9,25.5z"/>
		<path class="st0" d="M75.9,68.7c0-3.2,0-6.4,0-9.6c2.3,0,4.4,0.5,6.6,1.2C80.9,63.5,78.6,66.3,75.9,68.7z"/>
	</g>
</g>
</svg>
