<?xml version="1.0" encoding="utf-8"?>
<!-- Generator: Adobe Illustrator 24.2.1, SVG Export Plug-In . SVG Version: 6.00 Build 0)  -->
<svg version="1.1" id="Layer_1" xmlns="http://www.w3.org/2000/svg" xmlns:xlink="http://www.w3.org/1999/xlink" x="0px" y="0px"
	 viewBox="0 0 150 150" style="enable-background:new 0 0 150 150;" xml:space="preserve">
<style type="text/css">
	.st0{fill:#3C4E5A;}
</style>
<g>
	<g>
		<path class="st0" d="M75,7c-2.2,0-4.3,0.1-6.5,0.3v11.1v121.7v4.3c2.1,0.2,4.2,0.3,6.5,0.3c38.1,0,68.9-30.8,68.9-68.9
			C143.9,37.8,113.1,7,75,7 M100.2,82.2c-0.3,4.4-0.9,8.7-1.7,12.9H82.4V82.2H100.2z M82.4,69.3V56.4h16.1c0.9,4.1,1.5,8.5,1.8,12.8
			H82.4z M113.8,82.2h16.2c-0.5,4.4-1.5,8.8-3,12.9h-14.9C112.9,90.9,113.5,86.6,113.8,82.2 M113.7,69.3c-0.3-4.4-0.9-8.7-1.8-12.8
			h14.8c1.6,4.1,2.6,8.4,3.1,12.8H113.7z M119.8,43.6h-11.6c-2.3-6.2-5.3-12-8.8-17.3C107.6,30.3,114.6,36.3,119.8,43.6 M94.7,43.6
			H82.4V21.1C87.5,27.7,91.7,35.2,94.7,43.6 M82.4,130.6v-22.7h12.5C91.8,116.3,87.6,124,82.4,130.6L82.4,130.6z M99.6,125.4
			c3.5-5.3,6.5-11.2,8.8-17.5H120C114.8,115.3,107.8,121.3,99.6,125.4"/>
		<path class="st0" d="M62.1,62.9v-5.3l-33-33c-1.8,1.7-3.6,3.4-5.2,5.2l33,33L62.1,62.9L62.1,62.9z"/>
		<path class="st0" d="M62.1,88.5v5.2l-33,33c-1.8-1.7-3.6-3.4-5.2-5.2l33-33L62.1,88.5L62.1,88.5z"/>
		<path class="st0" d="M62.1,69.5H6.4c-0.2,2.1-0.3,4.2-0.3,6.4s0.1,4.3,0.3,6.4h55.7V69.5z"/>
		<path class="st0" d="M20.2,34.2c-6.3,8.3-10.8,18-12.7,28.6h41.4L20.2,34.2z"/>
		<path class="st0" d="M62.1,49.7V8.3c-10.6,2-20.3,6.5-28.6,12.7L62.1,49.7z"/>
		<path class="st0" d="M33.4,130.3c8.3,6.3,18,10.7,28.6,12.7v-41.4L33.4,130.3z"/>
		<path class="st0" d="M48.9,88.5H7.5c2,10.6,6.5,20.4,12.7,28.6L48.9,88.5z"/>
	</g>
</g>
</svg>
